SplineFontDB: 3.0
FontName: Gelasio-Bold
FullName: Gelasio Bold
FamilyName: Gelasio
Weight: Bold
Copyright: Copyright (c) 2012, Sorkin Type Co (www.sorkintype.com), with Reserved Font Name 'Gelasio'
Version: 1.000
ItalicAngle: 0
UnderlinePosition: -137
UnderlineWidth: 106
Ascent: 1638
Descent: 410
sfntRevision: 0x00010000
LayerCount: 2
Layer: 0 1 "Back"  1
Layer: 1 1 "Fore"  0
XUID: [1021 631 1661839179 15991923]
FSType: 0
OS2Version: 3
OS2_WeightWidthSlopeOnly: 0
OS2_UseTypoMetrics: 1
CreationTime: 1352440260
ModificationTime: 1353608844
PfmFamily: 17
TTFWeight: 700
TTFWidth: 5
LineGap: 0
VLineGap: 0
Panose: 2 0 8 5 0 0 0 2 0 3
OS2TypoAscent: 1889
OS2TypoAOffset: 0
OS2TypoDescent: -671
OS2TypoDOffset: 0
OS2TypoLinegap: 0
OS2WinAscent: 1889
OS2WinAOffset: 0
OS2WinDescent: 671
OS2WinDOffset: 0
HheadAscent: 1889
HheadAOffset: 0
HheadDescent: -671
HheadDOffset: 0
OS2SubXSize: 1434
OS2SubYSize: 1331
OS2SubXOff: 0
OS2SubYOff: 155
OS2SupXSize: 1434
OS2SupYSize: 1331
OS2SupXOff: 0
OS2SupYOff: 542
OS2StrikeYSize: 146
OS2StrikeYPos: 549
OS2FamilyClass: 1027
OS2Vendor: 'STC '
OS2CodePages: 20000093.00000000
OS2UnicodeRanges: a00000af.5000204a.00000000.00000000
Lookup: 1 0 0 "'aalt' Access All Alternates in Latin lookup 0"  {"'aalt' Access All Alternates in Latin lookup 0 subtable"  } ['aalt' ('DFLT' <'dflt' > 'latn' <'MOL ' 'ROM ' 'TRK ' 'dflt' > ) ]
Lookup: 6 0 0 "'ordn' Ordinals in Latin lookup 1"  {"'ordn' Ordinals in Latin lookup 1 contextual 0"  "'ordn' Ordinals in Latin lookup 1 contextual 1"  "'ordn' Ordinals in Latin lookup 1 contextual 2"  "'ordn' Ordinals in Latin lookup 1 contextual 3"  } ['ordn' ('latn' <'MOL ' 'ROM ' 'TRK ' 'dflt' > ) ]
Lookup: 1 0 0 "'locl' Localized Forms in Latin lookup 2"  {"'locl' Localized Forms in Latin lookup 2 subtable"  } ['locl' ('latn' <'AZE ' > ) ]
Lookup: 1 0 0 "'locl' Localized Forms in Latin lookup 3"  {"'locl' Localized Forms in Latin lookup 3 subtable"  } ['locl' ('latn' <'CRT ' > ) ]

StartChar: .notdef
Encoding: 65536 -1 0
Width: 2048
GlyphClass: 2
Flags: W
LayerCount: 2
Fore
SplineSet
246 1547 m 1,0,-1
 1802 1547 l 1,1,-1
 1802 0 l 1,2,-1
 246 0 l 1,3,-1
 246 1547 l 1,0,-1
1696 90 m 1,4,-1
 1696 1457 l 1,5,-1
 352 1457 l 1,6,-1
 352 90 l 1,7,-1
 1696 90 l 1,4,-1
936 767 m 1,8,-1
 571 1138 l 1,9,-1
 663 1224 l 1,10,-1
 1024 857 l 1,11,-1
 1385 1224 l 1,12,-1
 1477 1138 l 1,13,-1
 1112 767 l 1,14,-1
 1477 397 l 1,15,-1
 1385 312 l 1,16,-1
 1024 678 l 1,17,-1
 663 312 l 1,18,-1
 571 397 l 1,19,-1
 936 767 l 1,8,-1
EndSplineSet
EndChar

StartChar: exclam
Encoding: 33 33 4
Width: 770
GlyphClass: 2
Flags: W
LayerCount: 2
Fore
SplineSet
328 512 m 1,0,1
 316 650 316 650 299.5 750 c 128,-1,2
 283 850 283 850 264.5 923 c 128,-1,3
 246 996 246 996 227.5 1047.5 c 128,-1,4
 209 1099 209 1099 194.5 1140 c 128,-1,5
 180 1181 180 1181 171 1216.5 c 128,-1,6
 162 1252 162 1252 162 1293 c 0,7,8
 162 1343 162 1343 179 1386 c 128,-1,9
 196 1429 196 1429 226 1461 c 128,-1,10
 256 1493 256 1493 297 1511.5 c 128,-1,11
 338 1530 338 1530 385 1530 c 0,12,13
 431 1530 431 1530 472 1511.5 c 128,-1,14
 513 1493 513 1493 543 1461 c 128,-1,15
 573 1429 573 1429 590.5 1386 c 128,-1,16
 608 1343 608 1343 608 1293 c 0,17,18
 608 1252 608 1252 597.5 1216.5 c 128,-1,19
 587 1181 587 1181 571 1140 c 128,-1,20
 555 1099 555 1099 535.5 1047.5 c 128,-1,21
 516 996 516 996 497.5 923 c 128,-1,22
 479 850 479 850 463.5 750 c 128,-1,23
 448 650 448 650 440 512 c 1,24,-1
 328 512 l 1,0,1
191 176 m 256,25,26
 191 215 191 215 206 248.5 c 128,-1,27
 221 282 221 282 247 307.5 c 128,-1,28
 273 333 273 333 308 347.5 c 128,-1,29
 343 362 343 362 384 362 c 256,30,31
 425 362 425 362 460.5 347.5 c 128,-1,32
 496 333 496 333 522.5 307.5 c 128,-1,33
 549 282 549 282 564 248.5 c 128,-1,34
 579 215 579 215 579 176 c 256,35,36
 579 137 579 137 564 101.5 c 128,-1,37
 549 66 549 66 522.5 39 c 128,-1,38
 496 12 496 12 460.5 -4 c 128,-1,39
 425 -20 425 -20 384 -20 c 256,40,41
 343 -20 343 -20 308 -4 c 128,-1,42
 273 12 273 12 247 39 c 128,-1,43
 221 66 221 66 206 101.5 c 128,-1,44
 191 137 191 137 191 176 c 256,25,26
EndSplineSet
EndChar

StartChar: numbersign
Encoding: 35 35 6
Width: 1440
GlyphClass: 2
Flags: W
LayerCount: 2
Fore
SplineSet
394 420 m 1,0,-1
 160 420 l 1,1,-1
 160 526 l 1,2,-1
 414 526 l 1,3,-1
 484 900 l 1,4,-1
 210 900 l 1,5,-1
 210 1006 l 1,6,-1
 504 1006 l 1,7,-1
 582 1419 l 1,8,-1
 709 1419 l 1,9,-1
 630 1006 l 1,10,-1
 921 1006 l 1,11,-1
 999 1419 l 1,12,-1
 1126 1419 l 1,13,-1
 1047 1006 l 1,14,-1
 1280 1006 l 1,15,-1
 1280 900 l 1,16,-1
 1027 900 l 1,17,-1
 956 526 l 1,18,-1
 1210 526 l 1,19,-1
 1210 420 l 1,20,-1
 936 420 l 1,21,-1
 857 0 l 1,22,-1
 732 0 l 1,23,-1
 811 420 l 1,24,-1
 519 420 l 1,25,-1
 440 0 l 1,26,-1
 315 0 l 1,27,-1
 394 420 l 1,0,-1
831 526 m 1,28,-1
 901 900 l 1,29,-1
 610 900 l 1,30,-1
 539 526 l 1,31,-1
 831 526 l 1,28,-1
EndSplineSet
EndChar

StartChar: dollar
Encoding: 36 36 7
Width: 1313
GlyphClass: 2
Flags: W
LayerCount: 2
Fore
SplineSet
138 72 m 0,0,1
 141 125 141 125 140 181 c 128,-1,2
 139 237 139 237 135.5 288.5 c 128,-1,3
 132 340 132 340 127.5 384 c 128,-1,4
 123 428 123 428 120 458 c 1,5,6
 116 487 116 487 132.5 502.5 c 128,-1,7
 149 518 149 518 171.5 520 c 128,-1,8
 194 522 194 522 214.5 511 c 128,-1,9
 235 500 235 500 240 478 c 0,10,11
 243 465 243 465 247 451 c 128,-1,12
 251 437 251 437 259.5 416.5 c 128,-1,13
 268 396 268 396 281 366.5 c 128,-1,14
 294 337 294 337 314 294 c 1,15,16
 342 237 342 237 384.5 193 c 128,-1,17
 427 149 427 149 475.5 119 c 128,-1,18
 524 89 524 89 573 74 c 128,-1,19
 622 59 622 59 662 59 c 0,20,21
 711 59 711 59 754.5 68 c 128,-1,22
 798 77 798 77 831 101 c 128,-1,23
 864 125 864 125 883 166 c 128,-1,24
 902 207 902 207 902 271 c 0,25,26
 902 319 902 319 872.5 355.5 c 128,-1,27
 843 392 843 392 795 423 c 128,-1,28
 747 454 747 454 685 483 c 128,-1,29
 623 512 623 512 558 546 c 0,30,31
 492 580 492 580 423 619 c 128,-1,32
 354 658 354 658 297 708 c 128,-1,33
 240 758 240 758 204 821.5 c 128,-1,34
 168 885 168 885 168 969 c 0,35,36
 168 1056 168 1056 205 1121.5 c 128,-1,37
 242 1187 242 1187 302 1232 c 128,-1,38
 362 1277 362 1277 438.5 1303.5 c 128,-1,39
 515 1330 515 1330 595 1341 c 1,40,-1
 595 1548 l 1,41,-1
 711 1548 l 1,42,-1
 711 1349 l 1,43,44
 754 1349 754 1349 791.5 1342 c 128,-1,45
 829 1335 829 1335 858.5 1327 c 128,-1,46
 888 1319 888 1319 910 1311 c 128,-1,47
 932 1303 932 1303 945 1301 c 0,48,49
 966 1297 966 1297 978 1298.5 c 128,-1,50
 990 1300 990 1300 998 1304 c 128,-1,51
 1006 1308 1006 1308 1012 1314 c 128,-1,52
 1018 1320 1018 1320 1027 1325 c 0,53,54
 1038 1332 1038 1332 1055.5 1332 c 128,-1,55
 1073 1332 1073 1332 1089 1327 c 128,-1,56
 1105 1322 1105 1322 1116.5 1313 c 128,-1,57
 1128 1304 1128 1304 1128 1294 c 0,58,59
 1128 1285 1128 1285 1130 1253 c 128,-1,60
 1132 1221 1132 1221 1135.5 1178.5 c 128,-1,61
 1139 1136 1139 1136 1143.5 1088.5 c 128,-1,62
 1148 1041 1148 1041 1153 1000 c 0,63,64
 1158 964 1158 964 1142 947.5 c 128,-1,65
 1126 931 1126 931 1104 928.5 c 128,-1,66
 1082 926 1082 926 1061.5 933 c 128,-1,67
 1041 940 1041 940 1038 951 c 0,68,69
 986 1112 986 1112 910 1191 c 128,-1,70
 834 1270 834 1270 725 1270 c 0,71,72
 606 1270 606 1270 547.5 1219 c 128,-1,73
 489 1168 489 1168 489 1059 c 0,74,75
 489 1018 489 1018 521.5 982.5 c 128,-1,76
 554 947 554 947 606 914.5 c 128,-1,77
 658 882 658 882 722 852.5 c 128,-1,78
 786 823 786 823 849 795 c 0,79,80
 922 762 922 762 992 719.5 c 128,-1,81
 1062 677 1062 677 1116 625 c 128,-1,82
 1170 573 1170 573 1203 512.5 c 128,-1,83
 1236 452 1236 452 1236 382 c 0,84,85
 1236 287 1236 287 1197.5 212.5 c 128,-1,86
 1159 138 1159 138 1090 85.5 c 128,-1,87
 1021 33 1021 33 924.5 4 c 128,-1,88
 828 -25 828 -25 712 -29 c 1,89,-1
 712 -238 l 1,90,-1
 596 -238 l 1,91,-1
 596 -25 l 1,92,93
 554 -20 554 -20 520.5 -10.5 c 128,-1,94
 487 -1 487 -1 461.5 8.5 c 128,-1,95
 436 18 436 18 417 27 c 128,-1,96
 398 36 398 36 384 41 c 0,97,98
 363 49 363 49 348 59.5 c 128,-1,99
 333 70 333 70 320 76.5 c 128,-1,100
 307 83 307 83 295.5 82 c 128,-1,101
 284 81 284 81 270 65 c 0,102,103
 248 40 248 40 224.5 31 c 128,-1,104
 201 22 201 22 181.5 25 c 128,-1,105
 162 28 162 28 149.5 40.5 c 128,-1,106
 137 53 137 53 138 72 c 0,0,1
EndSplineSet
EndChar

StartChar: percent
Encoding: 37 37 8
Width: 1800
GlyphClass: 2
Flags: W
LayerCount: 2
Fore
SplineSet
469 711 m 0,0,1
 382 711 382 711 312 736.5 c 128,-1,2
 242 762 242 762 192.5 809.5 c 128,-1,3
 143 857 143 857 116.5 924.5 c 128,-1,4
 90 992 90 992 90 1076 c 0,5,6
 90 1162 90 1162 117.5 1231 c 128,-1,7
 145 1300 145 1300 195 1348.5 c 128,-1,8
 245 1397 245 1397 315.5 1423 c 128,-1,9
 386 1449 386 1449 473 1449 c 0,10,11
 562 1449 562 1449 633.5 1423 c 128,-1,12
 705 1397 705 1397 755.5 1348.5 c 128,-1,13
 806 1300 806 1300 833 1231 c 128,-1,14
 860 1162 860 1162 860 1076 c 0,15,16
 860 992 860 992 832 924.5 c 128,-1,17
 804 857 804 857 753 809.5 c 128,-1,18
 702 762 702 762 630 736.5 c 128,-1,19
 558 711 558 711 469 711 c 0,0,1
473 788 m 0,20,21
 512 788 512 788 537.5 805.5 c 128,-1,22
 563 823 563 823 578 859 c 128,-1,23
 593 895 593 895 599 949 c 128,-1,24
 605 1003 605 1003 605 1076 c 0,25,26
 605 1161 605 1161 599 1218 c 128,-1,27
 593 1275 593 1275 578 1309.5 c 128,-1,28
 563 1344 563 1344 537.5 1358 c 128,-1,29
 512 1372 512 1372 473 1372 c 0,30,31
 400 1372 400 1372 372 1298.5 c 128,-1,32
 344 1225 344 1225 344 1076 c 0,33,34
 344 930 344 930 372 859 c 128,-1,35
 400 788 400 788 473 788 c 0,20,21
939 330 m 0,36,37
 939 416 939 416 966.5 485 c 128,-1,38
 994 554 994 554 1044 602.5 c 128,-1,39
 1094 651 1094 651 1164.5 677 c 128,-1,40
 1235 703 1235 703 1322 703 c 0,41,42
 1411 703 1411 703 1482.5 677 c 128,-1,43
 1554 651 1554 651 1604.5 602.5 c 128,-1,44
 1655 554 1655 554 1682 485 c 128,-1,45
 1709 416 1709 416 1709 330 c 0,46,47
 1709 246 1709 246 1681 178.5 c 128,-1,48
 1653 111 1653 111 1602 63.5 c 128,-1,49
 1551 16 1551 16 1479 -9.5 c 128,-1,50
 1407 -35 1407 -35 1318 -35 c 0,51,52
 1231 -35 1231 -35 1161 -9.5 c 128,-1,53
 1091 16 1091 16 1041.5 63.5 c 128,-1,54
 992 111 992 111 965.5 178.5 c 128,-1,55
 939 246 939 246 939 330 c 0,36,37
1193 330 m 0,56,57
 1193 184 1193 184 1221 113 c 128,-1,58
 1249 42 1249 42 1322 42 c 0,59,60
 1361 42 1361 42 1386.5 59.5 c 128,-1,61
 1412 77 1412 77 1427 113 c 128,-1,62
 1442 149 1442 149 1448 203 c 128,-1,63
 1454 257 1454 257 1454 330 c 0,64,65
 1454 415 1454 415 1448 472 c 128,-1,66
 1442 529 1442 529 1427 563.5 c 128,-1,67
 1412 598 1412 598 1386.5 612 c 128,-1,68
 1361 626 1361 626 1322 626 c 0,69,70
 1249 626 1249 626 1221 552.5 c 128,-1,71
 1193 479 1193 479 1193 330 c 0,56,57
405 0 m 1,72,-1
 1162 1419 l 1,73,-1
 1309 1419 l 1,74,-1
 550 0 l 1,75,-1
 405 0 l 1,72,-1
EndSplineSet
Ligature2: "'frac' Diagonal Fractions in Latin lookup 11 subtable" zero slash zero
EndChar

StartChar: ampersand
Encoding: 38 38 9
Width: 1636
GlyphClass: 2
Flags: W
LayerCount: 2
Fore
SplineSet
70 333 m 0,0,1
 70 402 70 402 96 460.5 c 128,-1,2
 122 519 122 519 168.5 571 c 128,-1,3
 215 623 215 623 279 668.5 c 128,-1,4
 343 714 343 714 418 756 c 1,5,6
 383 796 383 796 351 838 c 128,-1,7
 319 880 319 880 295 925.5 c 128,-1,8
 271 971 271 971 256.5 1021.5 c 128,-1,9
 242 1072 242 1072 242 1129 c 0,10,11
 242 1184 242 1184 265.5 1242.5 c 128,-1,12
 289 1301 289 1301 343.5 1349 c 128,-1,13
 398 1397 398 1397 487.5 1427.5 c 128,-1,14
 577 1458 577 1458 708 1458 c 0,15,16
 795 1458 795 1458 864 1439 c 128,-1,17
 933 1420 933 1420 980.5 1386 c 128,-1,18
 1028 1352 1028 1352 1053.5 1304 c 128,-1,19
 1079 1256 1079 1256 1079 1198 c 0,20,21
 1079 1159 1079 1159 1063.5 1113.5 c 128,-1,22
 1048 1068 1048 1068 1011.5 1019 c 128,-1,23
 975 970 975 970 914 917 c 128,-1,24
 853 864 853 864 763 810 c 1,25,26
 798 771 798 771 839 725.5 c 128,-1,27
 880 680 880 680 924 632 c 128,-1,28
 968 584 968 584 1013 534.5 c 128,-1,29
 1058 485 1058 485 1100 439 c 1,30,31
 1140 502 1140 502 1165.5 556 c 128,-1,32
 1191 610 1191 610 1205.5 651 c 128,-1,33
 1220 692 1220 692 1225.5 717.5 c 128,-1,34
 1231 743 1231 743 1233 748 c 0,35,36
 1239 768 1239 768 1227.5 781 c 128,-1,37
 1216 794 1216 794 1196 801.5 c 128,-1,38
 1176 809 1176 809 1153.5 812.5 c 128,-1,39
 1131 816 1131 816 1115 818 c 0,40,41
 1095 820 1095 820 1089.5 829.5 c 128,-1,42
 1084 839 1084 839 1084 855 c 0,43,44
 1084 870 1084 870 1092.5 883 c 128,-1,45
 1101 896 1101 896 1118 896 c 2,46,-1
 1571 896 l 2,47,48
 1588 896 1588 896 1596.5 883 c 128,-1,49
 1605 870 1605 870 1605 855 c 0,50,51
 1605 818 1605 818 1572 818 c 0,52,53
 1546 818 1546 818 1519 813 c 128,-1,54
 1492 808 1492 808 1467 798 c 128,-1,55
 1442 788 1442 788 1422 774 c 128,-1,56
 1402 760 1402 760 1390 741 c 1,57,58
 1369 703 1369 703 1349.5 661 c 128,-1,59
 1330 619 1330 619 1307 571.5 c 128,-1,60
 1284 524 1284 524 1254.5 468.5 c 128,-1,61
 1225 413 1225 413 1184 348 c 1,62,63
 1229 300 1229 300 1262.5 264.5 c 128,-1,64
 1296 229 1296 229 1313 212 c 0,65,66
 1332 193 1332 193 1358 171 c 128,-1,67
 1384 149 1384 149 1414.5 129.5 c 128,-1,68
 1445 110 1445 110 1479 95.5 c 128,-1,69
 1513 81 1513 81 1548 78 c 0,70,71
 1569 76 1569 76 1576.5 70 c 128,-1,72
 1584 64 1584 64 1584 41 c 0,73,74
 1584 26 1584 26 1575.5 13 c 128,-1,75
 1567 0 1567 0 1550 0 c 2,76,-1
 1112 0 l 1,77,78
 1110 1 1110 1 1099.5 12 c 128,-1,79
 1089 23 1089 23 1071 41.5 c 128,-1,80
 1053 60 1053 60 1029.5 85 c 128,-1,81
 1006 110 1006 110 979 140 c 1,82,83
 938 102 938 102 891 69.5 c 128,-1,84
 844 37 844 37 790.5 13 c 128,-1,85
 737 -11 737 -11 678 -25 c 128,-1,86
 619 -39 619 -39 555 -39 c 0,87,88
 305 -39 305 -39 187.5 53 c 128,-1,89
 70 145 70 145 70 333 c 0,0,1
690 892 m 1,90,91
 747 919 747 919 780.5 959 c 128,-1,92
 814 999 814 999 831.5 1042 c 128,-1,93
 849 1085 849 1085 854.5 1125 c 128,-1,94
 860 1165 860 1165 860 1192 c 0,95,96
 860 1217 860 1217 852 1248 c 128,-1,97
 844 1279 844 1279 828 1306 c 128,-1,98
 812 1333 812 1333 787.5 1351 c 128,-1,99
 763 1369 763 1369 731 1369 c 0,100,101
 679 1369 679 1369 643.5 1358.5 c 128,-1,102
 608 1348 608 1348 586.5 1328 c 128,-1,103
 565 1308 565 1308 556 1277.5 c 128,-1,104
 547 1247 547 1247 547 1208 c 0,105,106
 547 1180 547 1180 551 1148.5 c 128,-1,107
 555 1117 555 1117 567 1081.5 c 128,-1,108
 579 1046 579 1046 601 1008 c 128,-1,109
 623 970 623 970 659 928 c 0,110,111
 664 921 664 921 672 912 c 128,-1,112
 680 903 680 903 690 892 c 1,90,91
374 370 m 0,113,114
 374 322 374 322 392.5 278.5 c 128,-1,115
 411 235 411 235 443.5 202.5 c 128,-1,116
 476 170 476 170 519.5 150.5 c 128,-1,117
 563 131 563 131 613 131 c 0,118,119
 690 131 690 131 761.5 150.5 c 128,-1,120
 833 170 833 170 902 223 c 1,121,122
 856 273 856 273 808 325.5 c 128,-1,123
 760 378 760 378 716 427 c 128,-1,124
 672 476 672 476 635.5 517 c 128,-1,125
 599 558 599 558 576 585 c 0,126,127
 562 600 562 600 548.5 615.5 c 128,-1,128
 535 631 535 631 521 646 c 1,129,130
 479 611 479 611 450.5 578 c 128,-1,131
 422 545 422 545 405 512 c 128,-1,132
 388 479 388 479 381 444 c 128,-1,133
 374 409 374 409 374 370 c 0,113,114
EndSplineSet
EndChar

StartChar: quotesingle
Encoding: 39 39 10
Width: 551
GlyphClass: 2
Flags: W
LayerCount: 2
Fore
SplineSet
222 967 m 1,0,1
 215 1061 215 1061 206.5 1132 c 128,-1,2
 198 1203 198 1203 188.5 1256.5 c 128,-1,3
 179 1310 179 1310 170 1349 c 128,-1,4
 161 1388 161 1388 153.5 1418.5 c 128,-1,5
 146 1449 146 1449 141.5 1473.5 c 128,-1,6
 137 1498 137 1498 137 1522 c 0,7,8
 137 1551 137 1551 141.5 1579.5 c 128,-1,9
 146 1608 146 1608 160 1630.5 c 128,-1,10
 174 1653 174 1653 200 1667 c 128,-1,11
 226 1681 226 1681 270 1681 c 0,12,13
 313 1681 313 1681 339.5 1667 c 128,-1,14
 366 1653 366 1653 380 1630.5 c 128,-1,15
 394 1608 394 1608 398.5 1579.5 c 128,-1,16
 403 1551 403 1551 403 1522 c 0,17,18
 403 1498 403 1498 398.5 1473.5 c 128,-1,19
 394 1449 394 1449 386.5 1418.5 c 128,-1,20
 379 1388 379 1388 370 1349 c 128,-1,21
 361 1310 361 1310 351.5 1256.5 c 128,-1,22
 342 1203 342 1203 333 1132 c 128,-1,23
 324 1061 324 1061 318 967 c 1,24,-1
 222 967 l 1,25,-1
 222 967 l 1,0,1
EndSplineSet
EndChar

StartChar: parenleft
Encoding: 40 40 11
Width: 915
GlyphClass: 2
Flags: W
LayerCount: 2
Fore
SplineSet
115 596 m 256,0,1
 115 774 115 774 149.5 912.5 c 128,-1,2
 184 1051 184 1051 240.5 1155 c 128,-1,3
 297 1259 297 1259 371 1331 c 128,-1,4
 445 1403 445 1403 524.5 1447.5 c 128,-1,5
 604 1492 604 1492 682.5 1512 c 128,-1,6
 761 1532 761 1532 828 1532 c 1,7,-1
 828 1429 l 1,8,9
 802 1429 802 1429 763.5 1420 c 128,-1,10
 725 1411 725 1411 683 1382 c 128,-1,11
 641 1353 641 1353 599.5 1297.5 c 128,-1,12
 558 1242 558 1242 524.5 1149.5 c 128,-1,13
 491 1057 491 1057 470.5 921.5 c 128,-1,14
 450 786 450 786 450 596 c 256,15,16
 450 406 450 406 470.5 270.5 c 128,-1,17
 491 135 491 135 524.5 42.5 c 128,-1,18
 558 -50 558 -50 599.5 -105.5 c 128,-1,19
 641 -161 641 -161 683 -190 c 128,-1,20
 725 -219 725 -219 763.5 -228 c 128,-1,21
 802 -237 802 -237 828 -237 c 1,22,-1
 828 -340 l 1,23,24
 761 -340 761 -340 682.5 -320 c 128,-1,25
 604 -300 604 -300 524.5 -255.5 c 128,-1,26
 445 -211 445 -211 371 -139 c 128,-1,27
 297 -67 297 -67 240.5 37 c 128,-1,28
 184 141 184 141 149.5 279.5 c 128,-1,29
 115 418 115 418 115 596 c 256,0,1
EndSplineSet
EndChar

StartChar: asterisk
Encoding: 42 42 13
Width: 987
GlyphClass: 2
Flags: W
LayerCount: 2
Fore
SplineSet
263 548 m 0,0,1
 241 548 241 548 220.5 556.5 c 128,-1,2
 200 565 200 565 184.5 580.5 c 128,-1,3
 169 596 169 596 159.5 617 c 128,-1,4
 150 638 150 638 150 662 c 0,5,6
 150 684 150 684 158 706.5 c 128,-1,7
 166 729 166 729 180 748 c 0,8,9
 184 754 184 754 196.5 766 c 128,-1,10
 209 778 209 778 226.5 794 c 128,-1,11
 244 810 244 810 265 828.5 c 128,-1,12
 286 847 286 847 307 866 c 0,13,14
 341 896 341 896 374 925.5 c 128,-1,15
 407 955 407 955 428 976 c 1,16,17
 412 978 412 978 385 979 c 128,-1,18
 358 980 358 980 326.5 981 c 128,-1,19
 295 982 295 982 261 982.5 c 128,-1,20
 227 983 227 983 197.5 984 c 128,-1,21
 168 985 168 985 144.5 987 c 128,-1,22
 121 989 121 989 110 993 c 0,23,24
 68 1007 68 1007 40 1036.5 c 128,-1,25
 12 1066 12 1066 12 1108 c 0,26,27
 12 1136 12 1136 22.5 1158 c 128,-1,28
 33 1180 33 1180 49.5 1195 c 128,-1,29
 66 1210 66 1210 87 1217.5 c 128,-1,30
 108 1225 108 1225 130 1225 c 0,31,32
 143 1225 143 1225 155.5 1223 c 128,-1,33
 168 1221 168 1221 182 1216 c 0,34,35
 198 1210 198 1210 232.5 1188.5 c 128,-1,36
 267 1167 267 1167 307.5 1141.5 c 128,-1,37
 348 1116 348 1116 387 1091.5 c 128,-1,38
 426 1067 426 1067 452 1054 c 1,39,40
 448 1076 448 1076 441 1107 c 128,-1,41
 434 1138 434 1138 426 1172 c 128,-1,42
 418 1206 418 1206 409 1240.5 c 128,-1,43
 400 1275 400 1275 393 1304.5 c 128,-1,44
 386 1334 386 1334 381.5 1355.5 c 128,-1,45
 377 1377 377 1377 377 1385 c 0,46,47
 377 1443 377 1443 406.5 1482 c 128,-1,48
 436 1521 436 1521 495 1521 c 0,49,50
 552 1521 552 1521 582.5 1482 c 128,-1,51
 613 1443 613 1443 613 1385 c 0,52,53
 613 1375 613 1375 607.5 1350.5 c 128,-1,54
 602 1326 602 1326 594 1294 c 128,-1,55
 586 1262 586 1262 576 1226 c 128,-1,56
 566 1190 566 1190 557.5 1157 c 128,-1,57
 549 1124 549 1124 543 1096.5 c 128,-1,58
 537 1069 537 1069 536 1054 c 1,59,60
 562 1068 562 1068 598 1090 c 128,-1,61
 634 1112 634 1112 673 1137 c 0,62,63
 722 1168 722 1168 751.5 1185.5 c 128,-1,64
 781 1203 781 1203 799 1212 c 128,-1,65
 817 1221 817 1221 829.5 1223 c 128,-1,66
 842 1225 842 1225 858 1225 c 0,67,68
 880 1225 880 1225 901 1217.5 c 128,-1,69
 922 1210 922 1210 938.5 1195 c 128,-1,70
 955 1180 955 1180 965 1157.5 c 128,-1,71
 975 1135 975 1135 975 1105 c 0,72,73
 975 1064 975 1064 947.5 1035 c 128,-1,74
 920 1006 920 1006 876 993 c 0,75,76
 863 989 863 989 839.5 987 c 128,-1,77
 816 985 816 985 786.5 984 c 128,-1,78
 757 983 757 983 724.5 982.5 c 128,-1,79
 692 982 692 982 661.5 981.5 c 128,-1,80
 631 981 631 981 604.5 979.5 c 128,-1,81
 578 978 578 978 561 976 c 1,82,83
 582 955 582 955 610.5 931.5 c 128,-1,84
 639 908 639 908 670 882.5 c 128,-1,85
 701 857 701 857 731 830 c 128,-1,86
 761 803 761 803 785 775.5 c 128,-1,87
 809 748 809 748 823.5 719 c 128,-1,88
 838 690 838 690 838 662 c 0,89,90
 838 640 838 640 829.5 619.5 c 128,-1,91
 821 599 821 599 806 583.5 c 128,-1,92
 791 568 791 568 770.5 558.5 c 128,-1,93
 750 549 750 549 726 549 c 0,94,95
 695 549 695 549 665.5 566 c 128,-1,96
 636 583 636 583 616 612 c 0,97,98
 611 620 611 620 601.5 642 c 128,-1,99
 592 664 592 664 581 694 c 128,-1,100
 570 724 570 724 557.5 758.5 c 128,-1,101
 545 793 545 793 533 825.5 c 128,-1,102
 521 858 521 858 511 885 c 128,-1,103
 501 912 501 912 494 928 c 1,104,105
 487 912 487 912 477 884.5 c 128,-1,106
 467 857 467 857 455 824.5 c 128,-1,107
 443 792 443 792 431 758 c 128,-1,108
 419 724 419 724 407.5 694 c 128,-1,109
 396 664 396 664 387 642 c 128,-1,110
 378 620 378 620 372 612 c 0,111,112
 351 582 351 582 322 565 c 128,-1,113
 293 548 293 548 263 548 c 0,0,1
EndSplineSet
EndChar

StartChar: plus
Encoding: 43 43 14
Width: 1440
GlyphClass: 2
Flags: W
LayerCount: 2
Fore
SplineSet
240 647 m 1,0,-1
 642 647 l 1,1,-1
 642 1062 l 1,2,-1
 808 1062 l 1,3,-1
 808 647 l 1,4,-1
 1210 647 l 1,5,-1
 1210 501 l 1,6,-1
 808 501 l 1,7,-1
 808 75 l 1,8,-1
 642 75 l 1,9,-1
 642 501 l 1,10,-1
 240 501 l 1,11,-1
 240 647 l 1,0,-1
EndSplineSet
EndChar

StartChar: comma
Encoding: 44 44 15
Width: 672
GlyphClass: 2
Flags: W
LayerCount: 2
Fore
SplineSet
147 149 m 0,0,1
 147 197 147 197 163 233 c 128,-1,2
 179 269 179 269 206.5 292.5 c 128,-1,3
 234 316 234 316 270.5 328 c 128,-1,4
 307 340 307 340 348 340 c 0,5,6
 379 340 379 340 412 328 c 128,-1,7
 445 316 445 316 472 285.5 c 128,-1,8
 499 255 499 255 516.5 203 c 128,-1,9
 534 151 534 151 534 71 c 0,10,11
 534 18 534 18 518.5 -32.5 c 128,-1,12
 503 -83 503 -83 479 -128.5 c 128,-1,13
 455 -174 455 -174 424.5 -214 c 128,-1,14
 394 -254 394 -254 365 -285.5 c 128,-1,15
 336 -317 336 -317 310.5 -339.5 c 128,-1,16
 285 -362 285 -362 270 -372 c 0,17,18
 258 -381 258 -381 238.5 -380 c 128,-1,19
 219 -379 219 -379 205.5 -369.5 c 128,-1,20
 192 -360 192 -360 190.5 -342.5 c 128,-1,21
 189 -325 189 -325 212 -301 c 0,22,23
 243 -268 243 -268 266.5 -226.5 c 128,-1,24
 290 -185 290 -185 305 -144.5 c 128,-1,25
 320 -104 320 -104 325 -69.5 c 128,-1,26
 330 -35 330 -35 326 -16 c 0,27,28
 325 -12 325 -12 311.5 -9.5 c 128,-1,29
 298 -7 298 -7 278 -1.5 c 128,-1,30
 258 4 258 4 235 13 c 128,-1,31
 212 22 212 22 192.5 39 c 128,-1,32
 173 56 173 56 160 82.5 c 128,-1,33
 147 109 147 109 147 149 c 0,0,1
EndSplineSet
EndChar

StartChar: hyphen
Encoding: 45 45 16
Width: 776
GlyphClass: 2
Flags: W
LayerCount: 2
Fore
SplineSet
75 622 m 1,0,-1
 701 622 l 1,1,-1
 701 476 l 1,2,-1
 75 476 l 1,3,-1
 75 622 l 1,0,-1
EndSplineSet
EndChar

StartChar: period
Encoding: 46 46 17
Width: 672
GlyphClass: 2
Flags: W
LayerCount: 2
Fore
SplineSet
139 176 m 256,0,1
 139 215 139 215 154 248.5 c 128,-1,2
 169 282 169 282 195 307.5 c 128,-1,3
 221 333 221 333 256 347.5 c 128,-1,4
 291 362 291 362 332 362 c 256,5,6
 373 362 373 362 408.5 347.5 c 128,-1,7
 444 333 444 333 470.5 307.5 c 128,-1,8
 497 282 497 282 512 248.5 c 128,-1,9
 527 215 527 215 527 176 c 256,10,11
 527 137 527 137 512 101.5 c 128,-1,12
 497 66 497 66 470.5 39 c 128,-1,13
 444 12 444 12 408.5 -4 c 128,-1,14
 373 -20 373 -20 332 -20 c 256,15,16
 291 -20 291 -20 256 -4 c 128,-1,17
 221 12 221 12 195 39 c 128,-1,18
 169 66 169 66 154 101.5 c 128,-1,19
 139 137 139 137 139 176 c 256,0,1
EndSplineSet
EndChar

StartChar: slash
Encoding: 47 47 18
Width: 967
GlyphClass: 2
Flags: W
LayerCount: 2
Fore
SplineSet
692 1700 m 1,0,-1
 849 1700 l 1,1,-1
 272 -340 l 1,2,-1
 117 -340 l 1,3,-1
 692 1700 l 1,0,-1
EndSplineSet
EndChar

StartChar: zero
Encoding: 48 48 19
Width: 1436
GlyphClass: 2
Flags: W
LayerCount: 2
Fore
SplineSet
103 582 m 0,0,1
 103 726 103 726 146 841 c 128,-1,2
 189 956 189 956 269 1037 c 128,-1,3
 349 1118 349 1118 464 1161.5 c 128,-1,4
 579 1205 579 1205 723 1205 c 0,5,6
 869 1205 869 1205 982.5 1161.5 c 128,-1,7
 1096 1118 1096 1118 1174 1037 c 128,-1,8
 1252 956 1252 956 1292.5 841 c 128,-1,9
 1333 726 1333 726 1333 582 c 0,10,11
 1333 441 1333 441 1291 328 c 128,-1,12
 1249 215 1249 215 1170 135.5 c 128,-1,13
 1091 56 1091 56 976 13.5 c 128,-1,14
 861 -29 861 -29 716 -29 c 0,15,16
 572 -29 572 -29 458 13.5 c 128,-1,17
 344 56 344 56 265.5 135.5 c 128,-1,18
 187 215 187 215 145 328 c 128,-1,19
 103 441 103 441 103 582 c 0,0,1
719 66 m 0,20,21
 797 66 797 66 847 97.5 c 128,-1,22
 897 129 897 129 925.5 193.5 c 128,-1,23
 954 258 954 258 965 354.5 c 128,-1,24
 976 451 976 451 976 582 c 0,25,26
 976 715 976 715 964.5 814 c 128,-1,27
 953 913 953 913 924 979 c 128,-1,28
 895 1045 895 1045 844 1077.5 c 128,-1,29
 793 1110 793 1110 715 1110 c 0,30,31
 636 1110 636 1110 586 1077.5 c 128,-1,32
 536 1045 536 1045 507.5 979 c 128,-1,33
 479 913 479 913 468.5 814 c 128,-1,34
 458 715 458 715 458 582 c 0,35,36
 458 451 458 451 469 354.5 c 128,-1,37
 480 258 480 258 509.5 193.5 c 128,-1,38
 539 129 539 129 589.5 97.5 c 128,-1,39
 640 66 640 66 719 66 c 0,20,21
EndSplineSet
EndChar

StartChar: one
Encoding: 49 49 20
Width: 1004
GlyphClass: 2
Flags: W
LayerCount: 2
Fore
SplineSet
139 41 m 0,0,1
 139 57 139 57 145.5 66.5 c 128,-1,2
 152 76 152 76 172 78 c 0,3,4
 196 80 196 80 225 84 c 128,-1,5
 254 88 254 88 278.5 95.5 c 128,-1,6
 303 103 303 103 320 114 c 128,-1,7
 337 125 337 125 337 142 c 2,8,-1
 338 960 l 1,9,10
 317 957 317 957 291 954 c 128,-1,11
 265 951 265 951 239.5 949 c 128,-1,12
 214 947 214 947 191 946 c 128,-1,13
 168 945 168 945 151 945 c 256,14,15
 134 945 134 945 125.5 955 c 128,-1,16
 117 965 117 965 117 976 c 0,17,18
 117 999 117 999 124.5 1015 c 128,-1,19
 132 1031 132 1031 153 1033 c 0,20,21
 176 1035 176 1035 215 1049.5 c 128,-1,22
 254 1064 254 1064 298 1085.5 c 128,-1,23
 342 1107 342 1107 386.5 1134.5 c 128,-1,24
 431 1162 431 1162 466 1189 c 1,25,-1
 665 1189 l 1,26,-1
 664 175 l 2,27,28
 664 143 664 143 682.5 124.5 c 128,-1,29
 701 106 701 106 727.5 96 c 128,-1,30
 754 86 754 86 783.5 83 c 128,-1,31
 813 80 813 80 836 78 c 0,32,33
 857 76 857 76 864.5 70 c 128,-1,34
 872 64 872 64 872 41 c 0,35,36
 872 30 872 30 863.5 15 c 128,-1,37
 855 0 855 0 838 0 c 2,38,-1
 173 0 l 2,39,40
 156 0 156 0 147.5 15 c 128,-1,41
 139 30 139 30 139 41 c 0,0,1
EndSplineSet
Substitution2: "'sups' Superscript in Latin lookup 10 subtable" onesuperior
EndChar

StartChar: two
Encoding: 50 50 21
Width: 1282
GlyphClass: 2
Flags: W
LayerCount: 2
Fore
SplineSet
120 75 m 1,0,1
 197 127 197 127 276.5 181.5 c 128,-1,2
 356 236 356 236 430.5 293.5 c 128,-1,3
 505 351 505 351 571 413 c 128,-1,4
 637 475 637 475 686 543.5 c 128,-1,5
 735 612 735 612 763.5 688 c 128,-1,6
 792 764 792 764 792 850 c 0,7,8
 792 888 792 888 784.5 933 c 128,-1,9
 777 978 777 978 756 1017 c 128,-1,10
 735 1056 735 1056 698.5 1082.5 c 128,-1,11
 662 1109 662 1109 604 1109 c 0,12,13
 560 1109 560 1109 530 1098.5 c 128,-1,14
 500 1088 500 1088 481 1072 c 128,-1,15
 462 1056 462 1056 451.5 1037 c 128,-1,16
 441 1018 441 1018 436 1002 c 2,17,-1
 368 782 l 2,18,19
 363 766 363 766 357 749.5 c 128,-1,20
 351 733 351 733 340.5 720 c 128,-1,21
 330 707 330 707 313 698.5 c 128,-1,22
 296 690 296 690 270 690 c 0,23,24
 234 690 234 690 197 710 c 128,-1,25
 160 730 160 730 137 767 c 128,-1,26
 114 804 114 804 111 856 c 128,-1,27
 108 908 108 908 140 972 c 0,28,29
 162 1017 162 1017 204.5 1059 c 128,-1,30
 247 1101 247 1101 307.5 1133.5 c 128,-1,31
 368 1166 368 1166 446.5 1185.5 c 128,-1,32
 525 1205 525 1205 619 1205 c 0,33,34
 879 1205 879 1205 1010 1113.5 c 128,-1,35
 1141 1022 1141 1022 1141 851 c 0,36,37
 1141 782 1141 782 1114 720.5 c 128,-1,38
 1087 659 1087 659 1040 604 c 128,-1,39
 993 549 993 549 930.5 500.5 c 128,-1,40
 868 452 868 452 797.5 408 c 128,-1,41
 727 364 727 364 652 324.5 c 128,-1,42
 577 285 577 285 506 249 c 1,43,-1
 1167 249 l 1,44,-1
 1157 0 l 1,45,-1
 119 0 l 1,46,-1
 120 75 l 1,0,1
EndSplineSet
Substitution2: "'sups' Superscript in Latin lookup 10 subtable" twosuperior
EndChar

StartChar: three
Encoding: 51 51 22
Width: 1280
GlyphClass: 2
Flags: W
LayerCount: 2
Fore
SplineSet
57 -78 m 0,0,1
 57 -30 57 -30 74 6 c 128,-1,2
 91 42 91 42 115.5 67 c 128,-1,3
 140 92 140 92 168 104.5 c 128,-1,4
 196 117 196 117 218 117 c 0,5,6
 282 117 282 117 296 70 c 2,7,-1
 398 -268 l 1,8,9
 406 -277 406 -277 424 -283 c 0,10,11
 439 -288 439 -288 464.5 -292.5 c 128,-1,12
 490 -297 490 -297 530 -297 c 0,13,14
 603 -297 603 -297 657.5 -269 c 128,-1,15
 712 -241 712 -241 748.5 -190 c 128,-1,16
 785 -139 785 -139 803.5 -68.5 c 128,-1,17
 822 2 822 2 822 86 c 0,18,19
 822 174 822 174 798 233 c 128,-1,20
 774 292 774 292 732 327.5 c 128,-1,21
 690 363 690 363 632.5 378 c 128,-1,22
 575 393 575 393 507 393 c 2,23,-1
 414 393 l 1,24,-1
 414 505 l 1,25,-1
 487 505 l 2,26,27
 540 505 540 505 591.5 524 c 128,-1,28
 643 543 643 543 684 582 c 128,-1,29
 725 621 725 621 750.5 680.5 c 128,-1,30
 776 740 776 740 776 821 c 0,31,32
 776 859 776 859 766.5 908.5 c 128,-1,33
 757 958 757 958 732 1002.5 c 128,-1,34
 707 1047 707 1047 663.5 1077.5 c 128,-1,35
 620 1108 620 1108 552 1108 c 0,36,37
 499 1108 499 1108 457.5 1085.5 c 128,-1,38
 416 1063 416 1063 386 1002 c 1,39,40
 369 972 369 972 351.5 932.5 c 128,-1,41
 334 893 334 893 317.5 856.5 c 128,-1,42
 301 820 301 820 286.5 792.5 c 128,-1,43
 272 765 272 765 262 760 c 0,44,45
 242 751 242 751 212 752 c 128,-1,46
 182 753 182 753 154 768.5 c 128,-1,47
 126 784 126 784 106 815 c 128,-1,48
 86 846 86 846 86 896 c 0,49,50
 86 965 86 965 128.5 1021.5 c 128,-1,51
 171 1078 171 1078 241.5 1119 c 128,-1,52
 312 1160 312 1160 404.5 1182.5 c 128,-1,53
 497 1205 497 1205 598 1205 c 0,54,55
 718 1205 718 1205 813 1178.5 c 128,-1,56
 908 1152 908 1152 973.5 1104 c 128,-1,57
 1039 1056 1039 1056 1073.5 989 c 128,-1,58
 1108 922 1108 922 1108 840 c 0,59,60
 1108 763 1108 763 1078.5 697.5 c 128,-1,61
 1049 632 1049 632 999.5 582 c 128,-1,62
 950 532 950 532 886 499.5 c 128,-1,63
 822 467 822 467 753 456 c 1,64,65
 843 455 843 455 922.5 431 c 128,-1,66
 1002 407 1002 407 1061 362.5 c 128,-1,67
 1120 318 1120 318 1154.5 255 c 128,-1,68
 1189 192 1189 192 1189 113 c 0,69,70
 1189 10 1189 10 1143.5 -81.5 c 128,-1,71
 1098 -173 1098 -173 1014 -242 c 128,-1,72
 930 -311 930 -311 809.5 -351.5 c 128,-1,73
 689 -392 689 -392 539 -392 c 0,74,75
 444 -392 444 -392 357 -371 c 128,-1,76
 270 -350 270 -350 203.5 -309.5 c 128,-1,77
 137 -269 137 -269 97 -211 c 128,-1,78
 57 -153 57 -153 57 -78 c 0,0,1
EndSplineSet
Substitution2: "'sups' Superscript in Latin lookup 10 subtable" threesuperior
EndChar

StartChar: four
Encoding: 52 52 23
Width: 1329
GlyphClass: 2
Flags: W
LayerCount: 2
Fore
SplineSet
49 67 m 1,0,-1
 682 1314 l 1,1,2
 692 1327 692 1327 713 1335 c 128,-1,3
 734 1343 734 1343 759.5 1346 c 128,-1,4
 785 1349 785 1349 812 1347 c 128,-1,5
 839 1345 839 1345 862 1339 c 0,6,7
 894 1331 894 1331 916 1312.5 c 128,-1,8
 938 1294 938 1294 950.5 1273 c 128,-1,9
 963 1252 963 1252 966.5 1233.5 c 128,-1,10
 970 1215 970 1215 964 1206 c 2,11,-1
 270 164 l 1,12,-1
 713 164 l 1,13,-1
 713 546 l 1,14,-1
 1026 547 l 1,15,-1
 1026 164 l 1,16,-1
 1252 164 l 1,17,-1
 1242 0 l 1,18,-1
 1026 0 l 1,19,-1
 1026 -384 l 1,20,-1
 713 -384 l 1,21,-1
 713 0 l 1,22,-1
 79 0 l 1,23,-1
 49 67 l 1,0,-1
EndSplineSet
EndChar

StartChar: five
Encoding: 53 53 24
Width: 1227
GlyphClass: 2
Flags: W
LayerCount: 2
Fore
SplineSet
55 -78 m 0,0,1
 55 -30 55 -30 72 6 c 128,-1,2
 89 42 89 42 113.5 67 c 128,-1,3
 138 92 138 92 166 104.5 c 128,-1,4
 194 117 194 117 216 117 c 0,5,6
 281 117 281 117 294 70 c 2,7,-1
 385 -258 l 1,8,9
 397 -272 397 -272 417 -283 c 0,10,11
 434 -292 434 -292 461 -299.5 c 128,-1,12
 488 -307 488 -307 528 -307 c 0,13,14
 595 -307 595 -307 647.5 -281.5 c 128,-1,15
 700 -256 700 -256 736 -202 c 128,-1,16
 772 -148 772 -148 790.5 -64 c 128,-1,17
 809 20 809 20 809 136 c 0,18,19
 809 220 809 220 794 285 c 128,-1,20
 779 350 779 350 747 394.5 c 128,-1,21
 715 439 715 439 664.5 462.5 c 128,-1,22
 614 486 614 486 543 486 c 0,23,24
 452 486 452 486 374.5 446 c 128,-1,25
 297 406 297 406 238 340 c 1,26,-1
 170 373 l 1,27,-1
 245 1189 l 1,28,-1
 1080 1189 l 1,29,-1
 1064 910 l 1,30,-1
 354 910 l 1,31,-1
 306 499 l 1,32,33
 370 543 370 543 460.5 570 c 128,-1,34
 551 597 551 597 659 597 c 0,35,36
 900 597 900 597 1028 484.5 c 128,-1,37
 1156 372 1156 372 1156 140 c 0,38,39
 1156 24 1156 24 1110.5 -73.5 c 128,-1,40
 1065 -171 1065 -171 981.5 -242 c 128,-1,41
 898 -313 898 -313 780 -352.5 c 128,-1,42
 662 -392 662 -392 517 -392 c 0,43,44
 426 -392 426 -392 342.5 -371 c 128,-1,45
 259 -350 259 -350 195 -309.5 c 128,-1,46
 131 -269 131 -269 93 -211 c 128,-1,47
 55 -153 55 -153 55 -78 c 0,0,1
EndSplineSet
EndChar

StartChar: six
Encoding: 54 54 25
Width: 1327
GlyphClass: 2
Flags: W
LayerCount: 2
Fore
SplineSet
102 582 m 0,0,1
 102 676 102 676 123.5 781.5 c 128,-1,2
 145 887 145 887 191 991 c 128,-1,3
 237 1095 237 1095 308 1191 c 128,-1,4
 379 1287 379 1287 478 1363 c 128,-1,5
 577 1439 577 1439 704.5 1488.5 c 128,-1,6
 832 1538 832 1538 991 1549 c 1,7,-1
 992 1457 l 1,8,9
 901 1440 901 1440 829.5 1406.5 c 128,-1,10
 758 1373 758 1373 703.5 1328 c 128,-1,11
 649 1283 649 1283 609.5 1228 c 128,-1,12
 570 1173 570 1173 542.5 1113 c 128,-1,13
 515 1053 515 1053 498 990.5 c 128,-1,14
 481 928 481 928 472 867 c 1,15,16
 528 906 528 906 603.5 934.5 c 128,-1,17
 679 963 679 963 782 963 c 0,18,19
 899 963 899 963 985 928 c 128,-1,20
 1071 893 1071 893 1127.5 831 c 128,-1,21
 1184 769 1184 769 1211.5 685 c 128,-1,22
 1239 601 1239 601 1239 502 c 0,23,24
 1239 393 1239 393 1199 296.5 c 128,-1,25
 1159 200 1159 200 1084 127.5 c 128,-1,26
 1009 55 1009 55 901.5 13 c 128,-1,27
 794 -29 794 -29 659 -29 c 0,28,29
 509 -29 509 -29 403.5 19 c 128,-1,30
 298 67 298 67 231 150 c 128,-1,31
 164 233 164 233 133 344.5 c 128,-1,32
 102 456 102 456 102 582 c 0,0,1
655 66 m 0,33,34
 721 66 721 66 765 96 c 128,-1,35
 809 126 809 126 835 180 c 128,-1,36
 861 234 861 234 871.5 308.5 c 128,-1,37
 882 383 882 383 882 472 c 0,38,39
 882 560 882 560 869 629 c 128,-1,40
 856 698 856 698 828 746 c 128,-1,41
 800 794 800 794 757.5 819.5 c 128,-1,42
 715 845 715 845 656 845 c 0,43,44
 600 845 600 845 551 825.5 c 128,-1,45
 502 806 502 806 460 776 c 1,46,47
 456 726 456 726 455 682 c 128,-1,48
 454 638 454 638 454 602 c 0,49,50
 454 488 454 488 463.5 390 c 128,-1,51
 473 292 473 292 496 220 c 128,-1,52
 519 148 519 148 557.5 107 c 128,-1,53
 596 66 596 66 655 66 c 0,33,34
EndSplineSet
EndChar

StartChar: seven
Encoding: 55 55 26
Width: 1135
GlyphClass: 2
Flags: W
LayerCount: 2
Fore
SplineSet
860 905 m 1,0,-1
 324 905 l 2,1,2
 278 905 278 905 247.5 881 c 128,-1,3
 217 857 217 857 198 825 c 128,-1,4
 179 793 179 793 170 761.5 c 128,-1,5
 161 730 161 730 159 715 c 0,6,7
 157 695 157 695 142.5 688.5 c 128,-1,8
 128 682 128 682 112 682 c 0,9,10
 106 682 106 682 97.5 684 c 128,-1,11
 89 686 89 686 81 690.5 c 128,-1,12
 73 695 73 695 67 701 c 128,-1,13
 61 707 61 707 61 716 c 2,14,-1
 96 1190 l 1,15,-1
 1053 1189 l 1,16,-1
 1096 1152 l 1,17,-1
 544 -383 l 1,18,-1
 302 -382 l 1,19,-1
 860 905 l 1,0,-1
EndSplineSet
EndChar

StartChar: eight
Encoding: 56 56 27
Width: 1384
GlyphClass: 2
Flags: W
LayerCount: 2
Fore
SplineSet
106 373 m 0,0,1
 106 449 106 449 135 508 c 128,-1,2
 164 567 164 567 209 610 c 128,-1,3
 254 653 254 653 308 681 c 128,-1,4
 362 709 362 709 411 723 c 1,5,6
 360 758 360 758 317 798.5 c 128,-1,7
 274 839 274 839 242.5 886 c 128,-1,8
 211 933 211 933 193.5 986.5 c 128,-1,9
 176 1040 176 1040 176 1102 c 0,10,11
 176 1165 176 1165 207.5 1227.5 c 128,-1,12
 239 1290 239 1290 303 1339 c 128,-1,13
 367 1388 367 1388 464 1418.5 c 128,-1,14
 561 1449 561 1449 693 1449 c 0,15,16
 823 1449 823 1449 918 1423.5 c 128,-1,17
 1013 1398 1013 1398 1075 1353 c 128,-1,18
 1137 1308 1137 1308 1167 1246 c 128,-1,19
 1197 1184 1197 1184 1197 1111 c 0,20,21
 1197 1052 1197 1052 1171.5 1004 c 128,-1,22
 1146 956 1146 956 1105 918 c 128,-1,23
 1064 880 1064 880 1012.5 852 c 128,-1,24
 961 824 961 824 908 806 c 1,25,26
 983 769 983 769 1050.5 727.5 c 128,-1,27
 1118 686 1118 686 1169 633.5 c 128,-1,28
 1220 581 1220 581 1250 513.5 c 128,-1,29
 1280 446 1280 446 1280 358 c 0,30,31
 1280 277 1280 277 1238 206 c 128,-1,32
 1196 135 1196 135 1120.5 82.5 c 128,-1,33
 1045 30 1045 30 938.5 0 c 128,-1,34
 832 -30 832 -30 703 -30 c 0,35,36
 565 -30 565 -30 454.5 -2 c 128,-1,37
 344 26 344 26 266.5 78 c 128,-1,38
 189 130 189 130 147.5 205 c 128,-1,39
 106 280 106 280 106 373 c 0,0,1
731 890 m 1,40,41
 750 880 750 880 769 871 c 128,-1,42
 788 862 788 862 808 853 c 1,43,44
 830 867 830 867 848.5 888 c 128,-1,45
 867 909 867 909 881 940.5 c 128,-1,46
 895 972 895 972 903 1016.5 c 128,-1,47
 911 1061 911 1061 911 1122 c 0,48,49
 911 1167 911 1167 899 1209 c 128,-1,50
 887 1251 887 1251 861 1283.5 c 128,-1,51
 835 1316 835 1316 793 1335 c 128,-1,52
 751 1354 751 1354 690 1354 c 0,53,54
 582 1354 582 1354 522.5 1302 c 128,-1,55
 463 1250 463 1250 463 1157 c 0,56,57
 463 1077 463 1077 528.5 1014 c 128,-1,58
 594 951 594 951 731 890 c 1,40,41
415 382 m 0,59,60
 415 318 415 318 433 260.5 c 128,-1,61
 451 203 451 203 487.5 159.5 c 128,-1,62
 524 116 524 116 578.5 90.5 c 128,-1,63
 633 65 633 65 706 65 c 0,64,65
 758 65 758 65 807.5 80.5 c 128,-1,66
 857 96 857 96 896 126 c 128,-1,67
 935 156 935 156 959 200.5 c 128,-1,68
 983 245 983 245 983 303 c 0,69,70
 983 357 983 357 956 398 c 128,-1,71
 929 439 929 439 887 471 c 128,-1,72
 845 503 845 503 794 527 c 128,-1,73
 743 551 743 551 695 571 c 1,74,75
 645 593 645 593 596 616.5 c 128,-1,76
 547 640 547 640 499 667 c 1,77,78
 460 629 460 629 437.5 560.5 c 128,-1,79
 415 492 415 492 415 382 c 0,59,60
EndSplineSet
EndChar

StartChar: less
Encoding: 60 60 31
Width: 1440
GlyphClass: 2
Flags: W
LayerCount: 2
Fore
SplineSet
221 633 m 1,0,-1
 1219 1160 l 1,1,-1
 1219 964 l 1,2,-1
 419 573 l 1,3,-1
 1219 183 l 1,4,-1
 1219 -11 l 1,5,-1
 221 514 l 1,6,-1
 221 633 l 1,0,-1
EndSplineSet
EndChar

StartChar: equal
Encoding: 61 61 32
Width: 1440
GlyphClass: 2
Flags: W
LayerCount: 2
Fore
SplineSet
240 846 m 1,0,-1
 1210 846 l 1,1,-1
 1210 700 l 1,2,-1
 240 700 l 1,3,-1
 240 846 l 1,0,-1
240 418 m 1,4,-1
 1210 418 l 1,5,-1
 1210 272 l 1,6,-1
 240 272 l 1,7,-1
 240 418 l 1,4,-1
EndSplineSet
EndChar

StartChar: question
Encoding: 63 63 34
Width: 1122
GlyphClass: 2
Flags: W
LayerCount: 2
Fore
SplineSet
446 786 m 1,0,1
 470 788 470 788 500 793.5 c 128,-1,2
 530 799 530 799 560.5 812 c 128,-1,3
 591 825 591 825 620.5 846 c 128,-1,4
 650 867 650 867 672.5 899.5 c 128,-1,5
 695 932 695 932 709 978 c 128,-1,6
 723 1024 723 1024 723 1086 c 0,7,8
 723 1117 723 1117 719.5 1155 c 128,-1,9
 716 1193 716 1193 708 1231.5 c 128,-1,10
 700 1270 700 1270 686.5 1306.5 c 128,-1,11
 673 1343 673 1343 654 1371.5 c 128,-1,12
 635 1400 635 1400 609 1417 c 128,-1,13
 583 1434 583 1434 550 1434 c 0,14,15
 508 1434 508 1434 480 1423.5 c 128,-1,16
 452 1413 452 1413 434 1397 c 128,-1,17
 416 1381 416 1381 406 1362 c 128,-1,18
 396 1343 396 1343 392 1327 c 1,19,20
 386 1308 386 1308 377 1276.5 c 128,-1,21
 368 1245 368 1245 358.5 1212 c 128,-1,22
 349 1179 349 1179 339.5 1150 c 128,-1,23
 330 1121 330 1121 324 1107 c 0,24,25
 317 1092 317 1092 310.5 1075.5 c 128,-1,26
 304 1059 304 1059 294 1045.5 c 128,-1,27
 284 1032 284 1032 268 1023.5 c 128,-1,28
 252 1015 252 1015 226 1015 c 0,29,30
 189 1015 189 1015 152.5 1035 c 128,-1,31
 116 1055 116 1055 92.5 1092 c 128,-1,32
 69 1129 69 1129 66.5 1181 c 128,-1,33
 64 1233 64 1233 96 1297 c 0,34,35
 118 1342 118 1342 159.5 1384 c 128,-1,36
 201 1426 201 1426 260 1458.5 c 128,-1,37
 319 1491 319 1491 396 1510.5 c 128,-1,38
 473 1530 473 1530 565 1530 c 0,39,40
 684 1530 684 1530 776.5 1496.5 c 128,-1,41
 869 1463 869 1463 932.5 1406 c 128,-1,42
 996 1349 996 1349 1029 1274 c 128,-1,43
 1062 1199 1062 1199 1062 1117 c 0,44,45
 1062 1014 1062 1014 1024 934.5 c 128,-1,46
 986 855 986 855 920 800 c 128,-1,47
 854 745 854 745 766 714 c 128,-1,48
 678 683 678 683 578 678 c 1,49,-1
 578 467 l 1,50,-1
 446 467 l 1,51,-1
 446 786 l 1,0,1
323 176 m 256,52,53
 323 215 323 215 338 248.5 c 128,-1,54
 353 282 353 282 379 307.5 c 128,-1,55
 405 333 405 333 440 347.5 c 128,-1,56
 475 362 475 362 516 362 c 256,57,58
 557 362 557 362 592.5 347.5 c 128,-1,59
 628 333 628 333 654.5 307.5 c 128,-1,60
 681 282 681 282 696 248.5 c 128,-1,61
 711 215 711 215 711 176 c 256,62,63
 711 137 711 137 696 101.5 c 128,-1,64
 681 66 681 66 654.5 39 c 128,-1,65
 628 12 628 12 592.5 -4 c 128,-1,66
 557 -20 557 -20 516 -20 c 256,67,68
 475 -20 475 -20 440 -4 c 128,-1,69
 405 12 405 12 379 39 c 128,-1,70
 353 66 353 66 338 101.5 c 128,-1,71
 323 137 323 137 323 176 c 256,52,53
EndSplineSet
EndChar

StartChar: at
Encoding: 64 64 35
Width: 1980
GlyphClass: 2
Flags: W
LayerCount: 2
Fore
SplineSet
134 528 m 0,0,1
 134 683 134 683 173.5 812 c 128,-1,2
 213 941 213 941 281.5 1043.5 c 128,-1,3
 350 1146 350 1146 442 1222 c 128,-1,4
 534 1298 534 1298 639 1348.5 c 128,-1,5
 744 1399 744 1399 856 1424 c 128,-1,6
 968 1449 968 1449 1077 1449 c 0,7,8
 1169 1449 1169 1449 1262 1431 c 128,-1,9
 1355 1413 1355 1413 1440.5 1376 c 128,-1,10
 1526 1339 1526 1339 1600 1283 c 128,-1,11
 1674 1227 1674 1227 1728.5 1150.5 c 128,-1,12
 1783 1074 1783 1074 1814.5 976.5 c 128,-1,13
 1846 879 1846 879 1846 760 c 0,14,15
 1846 647 1846 647 1820 554 c 128,-1,16
 1794 461 1794 461 1750.5 388 c 128,-1,17
 1707 315 1707 315 1651 261.5 c 128,-1,18
 1595 208 1595 208 1535 172.5 c 128,-1,19
 1475 137 1475 137 1416 120 c 128,-1,20
 1357 103 1357 103 1307 103 c 0,21,22
 1260 103 1260 103 1223 112.5 c 128,-1,23
 1186 122 1186 122 1157.5 137.5 c 128,-1,24
 1129 153 1129 153 1109 173.5 c 128,-1,25
 1089 194 1089 194 1077 217 c 1,26,27
 1053 188 1053 188 1025 168 c 128,-1,28
 997 148 997 148 968.5 135.5 c 128,-1,29
 940 123 940 123 911.5 117 c 128,-1,30
 883 111 883 111 858 111 c 0,31,32
 825 111 825 111 790 115.5 c 128,-1,33
 755 120 755 120 720.5 133 c 128,-1,34
 686 146 686 146 655 168.5 c 128,-1,35
 624 191 624 191 601 227.5 c 128,-1,36
 578 264 578 264 564 316 c 128,-1,37
 550 368 550 368 550 439 c 0,38,39
 550 556 550 556 584.5 660 c 128,-1,40
 619 764 619 764 682.5 843 c 128,-1,41
 746 922 746 922 836 968 c 128,-1,42
 926 1014 926 1014 1036 1014 c 0,43,44
 1093 1014 1093 1014 1129 994 c 128,-1,45
 1165 974 1165 974 1184 943 c 1,46,-1
 1195 994 l 1,47,-1
 1439 994 l 1,48,-1
 1270 374 l 2,49,50
 1267 365 1267 365 1264.5 349 c 128,-1,51
 1262 333 1262 333 1262 314 c 0,52,53
 1262 299 1262 299 1264.5 284.5 c 128,-1,54
 1267 270 1267 270 1274 258.5 c 128,-1,55
 1281 247 1281 247 1293.5 239.5 c 128,-1,56
 1306 232 1306 232 1325 232 c 0,57,58
 1364 232 1364 232 1407.5 246.5 c 128,-1,59
 1451 261 1451 261 1493.5 290.5 c 128,-1,60
 1536 320 1536 320 1574 364 c 128,-1,61
 1612 408 1612 408 1641 467 c 128,-1,62
 1670 526 1670 526 1687 599 c 128,-1,63
 1704 672 1704 672 1704 760 c 0,64,65
 1704 854 1704 854 1678.5 933 c 128,-1,66
 1653 1012 1653 1012 1608.5 1075.5 c 128,-1,67
 1564 1139 1564 1139 1503.5 1186.5 c 128,-1,68
 1443 1234 1443 1234 1372 1266.5 c 128,-1,69
 1301 1299 1301 1299 1222.5 1315 c 128,-1,70
 1144 1331 1144 1331 1065 1331 c 0,71,72
 983 1331 983 1331 893 1311.5 c 128,-1,73
 803 1292 803 1292 716.5 1251 c 128,-1,74
 630 1210 630 1210 552 1146 c 128,-1,75
 474 1082 474 1082 415 994 c 128,-1,76
 356 906 356 906 321 792.5 c 128,-1,77
 286 679 286 679 286 538 c 0,78,79
 286 420 286 420 307 325 c 128,-1,80
 328 230 328 230 364.5 155.5 c 128,-1,81
 401 81 401 81 450.5 25.5 c 128,-1,82
 500 -30 500 -30 557.5 -70 c 128,-1,83
 615 -110 615 -110 677.5 -136 c 128,-1,84
 740 -162 740 -162 801.5 -177.5 c 128,-1,85
 863 -193 863 -193 922 -199 c 128,-1,86
 981 -205 981 -205 1032 -205 c 0,87,88
 1150 -205 1150 -205 1239 -181 c 128,-1,89
 1328 -157 1328 -157 1391 -124.5 c 128,-1,90
 1454 -92 1454 -92 1493 -59 c 128,-1,91
 1532 -26 1532 -26 1550 -7 c 1,92,-1
 1616 -90 l 1,93,94
 1604 -103 1604 -103 1580.5 -124.5 c 128,-1,95
 1557 -146 1557 -146 1521 -171.5 c 128,-1,96
 1485 -197 1485 -197 1437.5 -223.5 c 128,-1,97
 1390 -250 1390 -250 1329 -271.5 c 128,-1,98
 1268 -293 1268 -293 1194.5 -306.5 c 128,-1,99
 1121 -320 1121 -320 1034 -320 c 0,100,101
 921 -320 921 -320 810.5 -300 c 128,-1,102
 700 -280 700 -280 600 -236.5 c 128,-1,103
 500 -193 500 -193 414.5 -126 c 128,-1,104
 329 -59 329 -59 267 35.5 c 128,-1,105
 205 130 205 130 169.5 252.5 c 128,-1,106
 134 375 134 375 134 528 c 0,0,1
811 394 m 0,107,108
 811 375 811 375 814 345.5 c 128,-1,109
 817 316 817 316 825.5 288.5 c 128,-1,110
 834 261 834 261 848 241.5 c 128,-1,111
 862 222 862 222 885 222 c 0,112,113
 903 222 903 222 924.5 233.5 c 128,-1,114
 946 245 946 245 967 267.5 c 128,-1,115
 988 290 988 290 1006.5 324.5 c 128,-1,116
 1025 359 1025 359 1038 404 c 1,117,-1
 1130 799 l 1,118,119
 1130 848 1130 848 1109.5 882 c 128,-1,120
 1089 916 1089 916 1046 916 c 0,121,122
 999 916 999 916 963 883 c 128,-1,123
 927 850 927 850 901 799 c 128,-1,124
 875 748 875 748 857.5 686.5 c 128,-1,125
 840 625 840 625 830 567 c 128,-1,126
 820 509 820 509 815.5 462 c 128,-1,127
 811 415 811 415 811 394 c 0,107,108
EndSplineSet
EndChar

StartChar: A
Encoding: 65 65 36
Width: 1552
GlyphClass: 2
Flags: W
LayerCount: 2
Fore
SplineSet
4 0 m 2,0,1
 -4 0 -4 0 -9 6 c 128,-1,2
 -14 12 -14 12 -16.5 20 c 128,-1,3
 -19 28 -19 28 -19.5 36.5 c 128,-1,4
 -20 45 -20 45 -20 51 c 0,5,6
 -20 71 -20 71 -9.5 78.5 c 128,-1,7
 1 86 1 86 17.5 88 c 128,-1,8
 34 90 34 90 55 90.5 c 128,-1,9
 76 91 76 91 97 97 c 128,-1,10
 118 103 118 103 137 118 c 128,-1,11
 156 133 156 133 169 165 c 2,12,-1
 705 1482 l 1,13,-1
 790 1482 l 1,14,-1
 1392 165 l 2,15,16
 1406 134 1406 134 1425.5 119 c 128,-1,17
 1445 104 1445 104 1466 98 c 128,-1,18
 1487 92 1487 92 1507 91.5 c 128,-1,19
 1527 91 1527 91 1543 89 c 128,-1,20
 1559 87 1559 87 1569 79 c 128,-1,21
 1579 71 1579 71 1579 51 c 0,22,23
 1579 45 1579 45 1577 36.5 c 128,-1,24
 1575 28 1575 28 1570.5 20 c 128,-1,25
 1566 12 1566 12 1559.5 6 c 128,-1,26
 1553 0 1553 0 1545 0 c 2,27,-1
 874 0 l 2,28,29
 865 0 865 0 859 6 c 128,-1,30
 853 12 853 12 848.5 20 c 128,-1,31
 844 28 844 28 842 36.5 c 128,-1,32
 840 45 840 45 840 51 c 0,33,34
 840 67 840 67 846.5 77 c 128,-1,35
 853 87 853 87 873 88 c 0,36,37
 905 89 905 89 933.5 90.5 c 128,-1,38
 962 92 962 92 983.5 94.5 c 128,-1,39
 1005 97 1005 97 1017.5 102 c 128,-1,40
 1030 107 1030 107 1030 116 c 0,41,42
 1030 127 1030 127 1025 136.5 c 128,-1,43
 1020 146 1020 146 1015 160 c 2,44,-1
 909 408 l 1,45,-1
 400 408 l 1,46,-1
 295 132 l 2,47,48
 293 128 293 128 293 120 c 0,49,50
 293 107 293 107 307 101.5 c 128,-1,51
 321 96 321 96 344.5 94 c 128,-1,52
 368 92 368 92 397.5 91.5 c 128,-1,53
 427 91 427 91 458 88 c 0,54,55
 478 86 478 86 484.5 76.5 c 128,-1,56
 491 67 491 67 491 51 c 0,57,58
 491 45 491 45 490.5 36.5 c 128,-1,59
 490 28 490 28 487.5 20 c 128,-1,60
 485 12 485 12 480.5 6 c 128,-1,61
 476 0 476 0 467 0 c 2,62,-1
 4 0 l 2,0,1
873 494 m 1,63,-1
 641 1040 l 1,64,-1
 433 494 l 1,65,-1
 873 494 l 1,63,-1
EndSplineSet
EndChar

StartChar: B
Encoding: 66 66 37
Width: 1550
GlyphClass: 2
Flags: W
LayerCount: 2
Fore
SplineSet
68 51 m 0,0,1
 68 67 68 67 74.5 76.5 c 128,-1,2
 81 86 81 86 101 88 c 0,3,4
 131 90 131 90 162 94 c 128,-1,5
 193 98 193 98 218.5 105.5 c 128,-1,6
 244 113 244 113 260 124 c 128,-1,7
 276 135 276 135 276 152 c 2,8,-1
 277 1234 l 2,9,10
 277 1266 277 1266 259 1284.5 c 128,-1,11
 241 1303 241 1303 213.5 1313 c 128,-1,12
 186 1323 186 1323 154 1326 c 128,-1,13
 122 1329 122 1329 95 1331 c 0,14,15
 74 1333 74 1333 66.5 1339 c 128,-1,16
 59 1345 59 1345 59 1368 c 0,17,18
 59 1374 59 1374 61 1382.5 c 128,-1,19
 63 1391 63 1391 67.5 1399 c 128,-1,20
 72 1407 72 1407 78 1413 c 128,-1,21
 84 1419 84 1419 93 1419 c 2,22,-1
 787 1419 l 2,23,24
 921 1419 921 1419 1028.5 1401.5 c 128,-1,25
 1136 1384 1136 1384 1211 1346.5 c 128,-1,26
 1286 1309 1286 1309 1326.5 1250.5 c 128,-1,27
 1367 1192 1367 1192 1367 1110 c 0,28,29
 1367 1056 1367 1056 1350 1010.5 c 128,-1,30
 1333 965 1333 965 1305 928.5 c 128,-1,31
 1277 892 1277 892 1239.5 864 c 128,-1,32
 1202 836 1202 836 1161.5 816.5 c 128,-1,33
 1121 797 1121 797 1079 786 c 128,-1,34
 1037 775 1037 775 1000 773 c 1,35,36
 1045 774 1045 774 1097 765.5 c 128,-1,37
 1149 757 1149 757 1200.5 739 c 128,-1,38
 1252 721 1252 721 1299.5 692.5 c 128,-1,39
 1347 664 1347 664 1383.5 624.5 c 128,-1,40
 1420 585 1420 585 1442 534.5 c 128,-1,41
 1464 484 1464 484 1464 421 c 0,42,43
 1464 209 1464 209 1316.5 104.5 c 128,-1,44
 1169 0 1169 0 868 0 c 2,45,-1
 743 0 l 1,46,-1
 740 0 l 1,47,-1
 102 0 l 2,48,49
 93 0 93 0 87 6 c 128,-1,50
 81 12 81 12 76.5 20 c 128,-1,51
 72 28 72 28 70 36.5 c 128,-1,52
 68 45 68 45 68 51 c 0,0,1
719 817 m 2,53,54
 779 817 779 817 836.5 828.5 c 128,-1,55
 894 840 894 840 939.5 868.5 c 128,-1,56
 985 897 985 897 1012.5 946.5 c 128,-1,57
 1040 996 1040 996 1040 1073 c 0,58,59
 1040 1142 1040 1142 1016.5 1189.5 c 128,-1,60
 993 1237 993 1237 950.5 1266.5 c 128,-1,61
 908 1296 908 1296 848 1309 c 128,-1,62
 788 1322 788 1322 716 1322 c 2,63,-1
 613 1322 l 1,64,-1
 613 817 l 1,65,-1
 719 817 l 2,53,54
613 137 m 2,66,67
 613 136 613 136 619.5 130.5 c 128,-1,68
 626 125 626 125 644.5 118.5 c 128,-1,69
 663 112 663 112 697.5 106.5 c 128,-1,70
 732 101 732 101 789 101 c 0,71,72
 843 101 843 101 898.5 111.5 c 128,-1,73
 954 122 954 122 998.5 155.5 c 128,-1,74
 1043 189 1043 189 1071.5 251.5 c 128,-1,75
 1100 314 1100 314 1100 418 c 0,76,77
 1100 492 1100 492 1082.5 543 c 128,-1,78
 1065 594 1065 594 1035 627.5 c 128,-1,79
 1005 661 1005 661 966.5 680 c 128,-1,80
 928 699 928 699 886 708 c 128,-1,81
 844 717 844 717 801.5 719 c 128,-1,82
 759 721 759 721 722 721 c 2,83,-1
 613 721 l 1,84,-1
 613 137 l 2,66,67
EndSplineSet
EndChar

StartChar: C
Encoding: 67 67 38
Width: 1464
GlyphClass: 2
Flags: W
LayerCount: 2
Fore
SplineSet
71 706 m 0,0,1
 71 838 71 838 105 944.5 c 128,-1,2
 139 1051 139 1051 197.5 1133.5 c 128,-1,3
 256 1216 256 1216 334 1275.5 c 128,-1,4
 412 1335 412 1335 500 1373.5 c 128,-1,5
 588 1412 588 1412 680.5 1430.5 c 128,-1,6
 773 1449 773 1449 861 1449 c 0,7,8
 983 1449 983 1449 1064.5 1435 c 128,-1,9
 1146 1421 1146 1421 1199 1404.5 c 128,-1,10
 1252 1388 1252 1388 1283 1374.5 c 128,-1,11
 1314 1361 1314 1361 1334 1361 c 1,12,-1
 1356 1051 l 2,13,14
 1357 1042 1357 1042 1351 1035 c 128,-1,15
 1345 1028 1345 1028 1335.5 1023 c 128,-1,16
 1326 1018 1326 1018 1316 1015 c 128,-1,17
 1306 1012 1306 1012 1300 1011 c 0,18,19
 1292 1010 1292 1010 1277.5 1010.5 c 128,-1,20
 1263 1011 1263 1011 1248.5 1014 c 128,-1,21
 1234 1017 1234 1017 1222.5 1023 c 128,-1,22
 1211 1029 1211 1029 1209 1039 c 0,23,24
 1196 1103 1196 1103 1171.5 1160 c 128,-1,25
 1147 1217 1147 1217 1106 1260 c 128,-1,26
 1065 1303 1065 1303 1004.5 1328 c 128,-1,27
 944 1353 944 1353 859 1353 c 0,28,29
 818 1353 818 1353 772 1345.5 c 128,-1,30
 726 1338 726 1338 680.5 1315 c 128,-1,31
 635 1292 635 1292 593.5 1248.5 c 128,-1,32
 552 1205 552 1205 520 1133 c 128,-1,33
 488 1061 488 1061 469 956.5 c 128,-1,34
 450 852 450 852 450 706 c 0,35,36
 450 568 450 568 471 466.5 c 128,-1,37
 492 365 492 365 526.5 293.5 c 128,-1,38
 561 222 561 222 605.5 177.5 c 128,-1,39
 650 133 650 133 698 108 c 128,-1,40
 746 83 746 83 793.5 74 c 128,-1,41
 841 65 841 65 881 65 c 0,42,43
 957 65 957 65 1017.5 92 c 128,-1,44
 1078 119 1078 119 1122 165.5 c 128,-1,45
 1166 212 1166 212 1194 273 c 128,-1,46
 1222 334 1222 334 1233 403 c 0,47,48
 1237 423 1237 423 1250.5 429.5 c 128,-1,49
 1264 436 1264 436 1281 436 c 0,50,51
 1287 436 1287 436 1299 434 c 128,-1,52
 1311 432 1311 432 1322.5 427.5 c 128,-1,53
 1334 423 1334 423 1343 417 c 128,-1,54
 1352 411 1352 411 1352 402 c 1,55,-1
 1319 108 l 2,56,57
 1317 97 1317 97 1282 74.5 c 128,-1,58
 1247 52 1247 52 1188 28.5 c 128,-1,59
 1129 5 1129 5 1050 -12.5 c 128,-1,60
 971 -30 971 -30 882 -30 c 0,61,62
 782 -30 782 -30 683 -14.5 c 128,-1,63
 584 1 584 1 493.5 36 c 128,-1,64
 403 71 403 71 326 127.5 c 128,-1,65
 249 184 249 184 192 265.5 c 128,-1,66
 135 347 135 347 103 456 c 128,-1,67
 71 565 71 565 71 706 c 0,0,1
EndSplineSet
EndChar

StartChar: D
Encoding: 68 68 39
Width: 1708
GlyphClass: 2
Flags: W
LayerCount: 2
Fore
SplineSet
99 51 m 0,0,1
 99 67 99 67 105.5 76.5 c 128,-1,2
 112 86 112 86 132 88 c 0,3,4
 156 90 156 90 181.5 94 c 128,-1,5
 207 98 207 98 228.5 105.5 c 128,-1,6
 250 113 250 113 263.5 124 c 128,-1,7
 277 135 277 135 277 152 c 2,8,-1
 277 1234 l 2,9,10
 277 1266 277 1266 262 1284.5 c 128,-1,11
 247 1303 247 1303 224 1313 c 128,-1,12
 201 1323 201 1323 174.5 1326 c 128,-1,13
 148 1329 148 1329 125 1331 c 0,14,15
 104 1333 104 1333 96.5 1339 c 128,-1,16
 89 1345 89 1345 89 1368 c 0,17,18
 89 1374 89 1374 91 1382.5 c 128,-1,19
 93 1391 93 1391 97.5 1399 c 128,-1,20
 102 1407 102 1407 108 1413 c 128,-1,21
 114 1419 114 1419 123 1419 c 2,22,-1
 819 1419 l 1,23,24
 955 1418 955 1418 1068 1391.5 c 128,-1,25
 1181 1365 1181 1365 1271 1318 c 128,-1,26
 1361 1271 1361 1271 1428 1207 c 128,-1,27
 1495 1143 1495 1143 1540 1067.5 c 128,-1,28
 1585 992 1585 992 1607 908 c 128,-1,29
 1629 824 1629 824 1629 738 c 0,30,31
 1629 608 1629 608 1595 502.5 c 128,-1,32
 1561 397 1561 397 1504 315 c 128,-1,33
 1447 233 1447 233 1372.5 173.5 c 128,-1,34
 1298 114 1298 114 1216 75.5 c 128,-1,35
 1134 37 1134 37 1050 18.5 c 128,-1,36
 966 0 966 0 891 0 c 2,37,-1
 133 0 l 2,38,39
 124 0 124 0 118 6 c 128,-1,40
 112 12 112 12 107.5 20 c 128,-1,41
 103 28 103 28 101 36.5 c 128,-1,42
 99 45 99 45 99 51 c 0,0,1
614 168 m 2,43,44
 614 157 614 157 622 145.5 c 128,-1,45
 630 134 630 134 652.5 124 c 128,-1,46
 675 114 675 114 716 107.5 c 128,-1,47
 757 101 757 101 822 101 c 0,48,49
 883 101 883 101 937.5 108 c 128,-1,50
 992 115 992 115 1038 137.5 c 128,-1,51
 1084 160 1084 160 1121.5 202.5 c 128,-1,52
 1159 245 1159 245 1185 315.5 c 128,-1,53
 1211 386 1211 386 1225 488.5 c 128,-1,54
 1239 591 1239 591 1239 734 c 0,55,56
 1239 858 1239 858 1223.5 949.5 c 128,-1,57
 1208 1041 1208 1041 1180 1106.5 c 128,-1,58
 1152 1172 1152 1172 1113 1213.5 c 128,-1,59
 1074 1255 1074 1255 1026.5 1279.5 c 128,-1,60
 979 1304 979 1304 924.5 1313 c 128,-1,61
 870 1322 870 1322 812 1322 c 2,62,-1
 615 1322 l 1,63,-1
 614 168 l 2,43,44
EndSplineSet
EndChar

StartChar: E
Encoding: 69 69 40
Width: 1477
GlyphClass: 2
Flags: W
LayerCount: 2
Fore
SplineSet
98 51 m 0,0,1
 98 67 98 67 104.5 76.5 c 128,-1,2
 111 86 111 86 131 88 c 0,3,4
 155 90 155 90 181 94 c 128,-1,5
 207 98 207 98 228 105.5 c 128,-1,6
 249 113 249 113 263 124 c 128,-1,7
 277 135 277 135 277 152 c 2,8,-1
 277 1234 l 2,9,10
 277 1266 277 1266 262 1284.5 c 128,-1,11
 247 1303 247 1303 224 1313 c 128,-1,12
 201 1323 201 1323 174.5 1326 c 128,-1,13
 148 1329 148 1329 125 1331 c 0,14,15
 104 1333 104 1333 96.5 1339 c 128,-1,16
 89 1345 89 1345 89 1368 c 0,17,18
 89 1374 89 1374 91 1382.5 c 128,-1,19
 93 1391 93 1391 97.5 1399 c 128,-1,20
 102 1407 102 1407 108 1413 c 128,-1,21
 114 1419 114 1419 123 1419 c 2,22,-1
 1282 1419 l 1,23,-1
 1317 1094 l 2,24,25
 1318 1077 1318 1077 1304.5 1068.5 c 128,-1,26
 1291 1060 1291 1060 1280 1060 c 0,27,28
 1264 1060 1264 1060 1246 1065 c 128,-1,29
 1228 1070 1228 1070 1216 1093 c 0,30,31
 1186 1149 1186 1149 1165 1191.5 c 128,-1,32
 1144 1234 1144 1234 1123 1262.5 c 128,-1,33
 1102 1291 1102 1291 1076 1305.5 c 128,-1,34
 1050 1320 1050 1320 1010 1320 c 2,35,-1
 613 1320 l 1,36,-1
 613 778 l 1,37,-1
 892 778 l 1,38,39
 911 781 911 781 929 802 c 128,-1,40
 947 823 947 823 960.5 851 c 128,-1,41
 974 879 974 879 982.5 906.5 c 128,-1,42
 991 934 991 934 993 949 c 0,43,44
 995 969 995 969 1009 975 c 128,-1,45
 1023 981 1023 981 1039 981 c 0,46,47
 1050 981 1050 981 1065 972.5 c 128,-1,48
 1080 964 1080 964 1080 947 c 2,49,-1
 1080 504 l 2,50,51
 1080 487 1080 487 1065 478.5 c 128,-1,52
 1050 470 1050 470 1039 470 c 0,53,54
 1023 470 1023 470 1007.5 476.5 c 128,-1,55
 992 483 992 483 990 503 c 0,56,57
 989 519 989 519 980.5 549 c 128,-1,58
 972 579 972 579 958 608.5 c 128,-1,59
 944 638 944 638 925.5 660 c 128,-1,60
 907 682 907 682 886 682 c 2,61,-1
 613 682 l 1,62,-1
 613 197 l 2,63,64
 613 170 613 170 620.5 152 c 128,-1,65
 628 134 628 134 641 123 c 128,-1,66
 654 112 654 112 669.5 107 c 128,-1,67
 685 102 685 102 702 101 c 1,68,-1
 1091 101 l 2,69,70
 1117 101 1117 101 1143 122.5 c 128,-1,71
 1169 144 1169 144 1193 180.5 c 128,-1,72
 1217 217 1217 217 1239 266.5 c 128,-1,73
 1261 316 1261 316 1280 373 c 0,74,75
 1283 382 1283 382 1291 388.5 c 128,-1,76
 1299 395 1299 395 1309 398.5 c 128,-1,77
 1319 402 1319 402 1329.5 404 c 128,-1,78
 1340 406 1340 406 1348 406 c 0,79,80
 1367 406 1367 406 1381 397.5 c 128,-1,81
 1395 389 1395 389 1397 372 c 1,82,-1
 1397 0 l 1,83,-1
 132 0 l 2,84,85
 123 0 123 0 117 6 c 128,-1,86
 111 12 111 12 106.5 20 c 128,-1,87
 102 28 102 28 100 36.5 c 128,-1,88
 98 45 98 45 98 51 c 0,0,1
EndSplineSet
EndChar

StartChar: F
Encoding: 70 70 41
Width: 1374
GlyphClass: 2
Flags: W
LayerCount: 2
Fore
SplineSet
68 51 m 0,0,1
 68 67 68 67 74.5 76.5 c 128,-1,2
 81 86 81 86 101 88 c 0,3,4
 131 90 131 90 162 94 c 128,-1,5
 193 98 193 98 218.5 105.5 c 128,-1,6
 244 113 244 113 260.5 124 c 128,-1,7
 277 135 277 135 277 152 c 2,8,-1
 277 1234 l 2,9,10
 277 1266 277 1266 259 1284.5 c 128,-1,11
 241 1303 241 1303 213.5 1313 c 128,-1,12
 186 1323 186 1323 154 1326 c 128,-1,13
 122 1329 122 1329 95 1331 c 0,14,15
 74 1333 74 1333 66.5 1339 c 128,-1,16
 59 1345 59 1345 59 1368 c 0,17,18
 59 1374 59 1374 61 1382.5 c 128,-1,19
 63 1391 63 1391 67.5 1399 c 128,-1,20
 72 1407 72 1407 78 1413 c 128,-1,21
 84 1419 84 1419 93 1419 c 2,22,-1
 1275 1418 l 1,23,-1
 1314 1070 l 1,24,25
 1314 1053 1314 1053 1301 1044.5 c 128,-1,26
 1288 1036 1288 1036 1277 1036 c 0,27,28
 1269 1036 1269 1036 1258.5 1037 c 128,-1,29
 1248 1038 1248 1038 1237 1041.5 c 128,-1,30
 1226 1045 1226 1045 1216 1051.5 c 128,-1,31
 1206 1058 1206 1058 1200 1069 c 0,32,33
 1170 1125 1170 1125 1148.5 1171.5 c 128,-1,34
 1127 1218 1127 1218 1105.5 1251 c 128,-1,35
 1084 1284 1084 1284 1057 1302 c 128,-1,36
 1030 1320 1030 1320 990 1320 c 2,37,-1
 613 1320 l 1,38,-1
 613 746 l 1,39,-1
 892 746 l 1,40,41
 911 749 911 749 929 770 c 128,-1,42
 947 791 947 791 960.5 819 c 128,-1,43
 974 847 974 847 982.5 874.5 c 128,-1,44
 991 902 991 902 993 917 c 0,45,46
 995 937 995 937 1009 943 c 128,-1,47
 1023 949 1023 949 1039 949 c 0,48,49
 1050 949 1050 949 1065 940.5 c 128,-1,50
 1080 932 1080 932 1080 915 c 2,51,-1
 1080 472 l 2,52,53
 1080 455 1080 455 1065 446.5 c 128,-1,54
 1050 438 1050 438 1039 438 c 0,55,56
 1023 438 1023 438 1007.5 444.5 c 128,-1,57
 992 451 992 451 990 471 c 0,58,59
 989 487 989 487 980.5 517 c 128,-1,60
 972 547 972 547 958 576.5 c 128,-1,61
 944 606 944 606 925.5 628 c 128,-1,62
 907 650 907 650 886 650 c 2,63,-1
 613 650 l 1,64,-1
 613 197 l 2,65,66
 613 165 613 165 635.5 144 c 128,-1,67
 658 123 658 123 692 110.5 c 128,-1,68
 726 98 726 98 764.5 93 c 128,-1,69
 803 88 803 88 835 88 c 0,70,71
 852 88 852 88 861.5 81 c 128,-1,72
 871 74 871 74 871 51 c 0,73,74
 871 45 871 45 869 36.5 c 128,-1,75
 867 28 867 28 862.5 20 c 128,-1,76
 858 12 858 12 852 6 c 128,-1,77
 846 0 846 0 837 0 c 2,78,-1
 102 0 l 2,79,80
 93 0 93 0 87 6 c 128,-1,81
 81 12 81 12 76.5 20 c 128,-1,82
 72 28 72 28 70 36.5 c 128,-1,83
 68 45 68 45 68 51 c 0,0,1
EndSplineSet
EndChar

StartChar: G
Encoding: 71 71 42
Width: 1653
GlyphClass: 2
Flags: W
LayerCount: 2
Fore
SplineSet
71 706 m 256,0,1
 71 844 71 844 108 952.5 c 128,-1,2
 145 1061 145 1061 207 1143.5 c 128,-1,3
 269 1226 269 1226 351.5 1284 c 128,-1,4
 434 1342 434 1342 525 1378.5 c 128,-1,5
 616 1415 616 1415 710 1432 c 128,-1,6
 804 1449 804 1449 890 1449 c 0,7,8
 987 1449 987 1449 1066 1439.5 c 128,-1,9
 1145 1430 1145 1430 1205.5 1416.5 c 128,-1,10
 1266 1403 1266 1403 1309 1388 c 128,-1,11
 1352 1373 1352 1373 1378 1361 c 1,12,-1
 1400 1051 l 2,13,14
 1401 1042 1401 1042 1394.5 1035 c 128,-1,15
 1388 1028 1388 1028 1379 1023 c 128,-1,16
 1370 1018 1370 1018 1360 1015 c 128,-1,17
 1350 1012 1350 1012 1344 1011 c 0,18,19
 1336 1010 1336 1010 1322 1010.5 c 128,-1,20
 1308 1011 1308 1011 1294.5 1014 c 128,-1,21
 1281 1017 1281 1017 1270.5 1023 c 128,-1,22
 1260 1029 1260 1029 1258 1039 c 0,23,24
 1241 1102 1241 1102 1215 1159 c 128,-1,25
 1189 1216 1189 1216 1147 1259 c 128,-1,26
 1105 1302 1105 1302 1042 1327.5 c 128,-1,27
 979 1353 979 1353 888 1353 c 0,28,29
 852 1353 852 1353 805.5 1343.5 c 128,-1,30
 759 1334 759 1334 710.5 1308.5 c 128,-1,31
 662 1283 662 1283 615 1237.5 c 128,-1,32
 568 1192 568 1192 531.5 1120 c 128,-1,33
 495 1048 495 1048 472.5 946 c 128,-1,34
 450 844 450 844 450 706 c 0,35,36
 450 584 450 584 471.5 489 c 128,-1,37
 493 394 493 394 529 322.5 c 128,-1,38
 565 251 565 251 611 202 c 128,-1,39
 657 153 657 153 707 122.5 c 128,-1,40
 757 92 757 92 806 78.5 c 128,-1,41
 855 65 855 65 897 65 c 0,42,43
 967 65 967 65 1010 76.5 c 128,-1,44
 1053 88 1053 88 1076.5 106 c 128,-1,45
 1100 124 1100 124 1108 147 c 128,-1,46
 1116 170 1116 170 1116 194 c 2,47,-1
 1116 456 l 2,48,49
 1116 488 1116 488 1098 506.5 c 128,-1,50
 1080 525 1080 525 1052 534.5 c 128,-1,51
 1024 544 1024 544 991.5 547 c 128,-1,52
 959 550 959 550 930 553 c 0,53,54
 909 555 909 555 901.5 561 c 128,-1,55
 894 567 894 567 894 590 c 0,56,57
 894 596 894 596 896 604.5 c 128,-1,58
 898 613 898 613 902.5 621 c 128,-1,59
 907 629 907 629 913 635 c 128,-1,60
 919 641 919 641 928 641 c 2,61,-1
 1553 641 l 2,62,63
 1562 641 1562 641 1568 635 c 128,-1,64
 1574 629 1574 629 1578.5 621 c 128,-1,65
 1583 613 1583 613 1585 604.5 c 128,-1,66
 1587 596 1587 596 1587 590 c 0,67,68
 1587 574 1587 574 1580.5 564.5 c 128,-1,69
 1574 555 1574 555 1554 553 c 0,70,71
 1532 551 1532 551 1512 547 c 128,-1,72
 1492 543 1492 543 1477 535.5 c 128,-1,73
 1462 528 1462 528 1453.5 516.5 c 128,-1,74
 1445 505 1445 505 1445 489 c 2,75,-1
 1446 123 l 1,76,77
 1435 106 1435 106 1389 80.5 c 128,-1,78
 1343 55 1343 55 1269.5 30 c 128,-1,79
 1196 5 1196 5 1097 -12.5 c 128,-1,80
 998 -30 998 -30 880 -30 c 0,81,82
 801 -30 801 -30 710.5 -14 c 128,-1,83
 620 2 620 2 530 38 c 128,-1,84
 440 74 440 74 357 131 c 128,-1,85
 274 188 274 188 210.5 269.5 c 128,-1,86
 147 351 147 351 109 459.5 c 128,-1,87
 71 568 71 568 71 706 c 256,0,1
EndSplineSet
EndChar

StartChar: H
Encoding: 72 72 43
Width: 1870
GlyphClass: 2
Flags: W
LayerCount: 2
Fore
SplineSet
114 51 m 0,0,1
 114 67 114 67 120.5 76.5 c 128,-1,2
 127 86 127 86 147 88 c 0,3,4
 171 90 171 90 195 94 c 128,-1,5
 219 98 219 98 238.5 105.5 c 128,-1,6
 258 113 258 113 270 124 c 128,-1,7
 282 135 282 135 282 152 c 2,8,-1
 283 1234 l 2,9,10
 283 1266 283 1266 269.5 1284.5 c 128,-1,11
 256 1303 256 1303 235 1313 c 128,-1,12
 214 1323 214 1323 189 1326 c 128,-1,13
 164 1329 164 1329 141 1331 c 0,14,15
 120 1333 120 1333 112.5 1339 c 128,-1,16
 105 1345 105 1345 105 1368 c 0,17,18
 105 1374 105 1374 107 1382.5 c 128,-1,19
 109 1391 109 1391 113.5 1399 c 128,-1,20
 118 1407 118 1407 124 1413 c 128,-1,21
 130 1419 130 1419 139 1419 c 2,22,-1
 764 1419 l 2,23,24
 773 1419 773 1419 779 1413 c 128,-1,25
 785 1407 785 1407 789.5 1399 c 128,-1,26
 794 1391 794 1391 796 1382.5 c 128,-1,27
 798 1374 798 1374 798 1368 c 0,28,29
 798 1352 798 1352 791.5 1342.5 c 128,-1,30
 785 1333 785 1333 765 1331 c 0,31,32
 739 1329 739 1329 713.5 1325 c 128,-1,33
 688 1321 688 1321 667 1313.5 c 128,-1,34
 646 1306 646 1306 633 1294.5 c 128,-1,35
 620 1283 620 1283 620 1267 c 2,36,-1
 619 778 l 1,37,-1
 1248 778 l 1,38,-1
 1249 1234 l 2,39,40
 1249 1266 1249 1266 1234 1284.5 c 128,-1,41
 1219 1303 1219 1303 1196 1313 c 128,-1,42
 1173 1323 1173 1323 1146.5 1326 c 128,-1,43
 1120 1329 1120 1329 1097 1331 c 0,44,45
 1076 1333 1076 1333 1068.5 1339 c 128,-1,46
 1061 1345 1061 1345 1061 1368 c 0,47,48
 1061 1374 1061 1374 1063 1382.5 c 128,-1,49
 1065 1391 1065 1391 1069.5 1399 c 128,-1,50
 1074 1407 1074 1407 1080 1413 c 128,-1,51
 1086 1419 1086 1419 1095 1419 c 2,52,-1
 1730 1419 l 2,53,54
 1739 1419 1739 1419 1745 1413 c 128,-1,55
 1751 1407 1751 1407 1755.5 1399 c 128,-1,56
 1760 1391 1760 1391 1762 1382.5 c 128,-1,57
 1764 1374 1764 1374 1764 1368 c 0,58,59
 1764 1352 1764 1352 1757.5 1342.5 c 128,-1,60
 1751 1333 1751 1333 1731 1331 c 0,61,62
 1705 1329 1705 1329 1679.5 1325 c 128,-1,63
 1654 1321 1654 1321 1633 1313.5 c 128,-1,64
 1612 1306 1612 1306 1599 1294.5 c 128,-1,65
 1586 1283 1586 1283 1586 1267 c 2,66,-1
 1585 185 l 2,67,68
 1585 153 1585 153 1600 134.5 c 128,-1,69
 1615 116 1615 116 1638 106 c 128,-1,70
 1661 96 1661 96 1687.5 93 c 128,-1,71
 1714 90 1714 90 1737 88 c 0,72,73
 1758 86 1758 86 1765.5 80 c 128,-1,74
 1773 74 1773 74 1773 51 c 0,75,76
 1773 45 1773 45 1771 36.5 c 128,-1,77
 1769 28 1769 28 1764.5 20 c 128,-1,78
 1760 12 1760 12 1754 6 c 128,-1,79
 1748 0 1748 0 1739 0 c 2,80,-1
 1104 0 l 2,81,82
 1095 0 1095 0 1089 6 c 128,-1,83
 1083 12 1083 12 1078.5 20 c 128,-1,84
 1074 28 1074 28 1072 36.5 c 128,-1,85
 1070 45 1070 45 1070 51 c 0,86,87
 1070 67 1070 67 1076.5 76.5 c 128,-1,88
 1083 86 1083 86 1103 88 c 0,89,90
 1127 90 1127 90 1152.5 94 c 128,-1,91
 1178 98 1178 98 1199.5 105.5 c 128,-1,92
 1221 113 1221 113 1234.5 124 c 128,-1,93
 1248 135 1248 135 1248 152 c 2,94,-1
 1248 682 l 1,95,-1
 619 682 l 1,96,-1
 619 185 l 2,97,98
 619 153 619 153 634 134.5 c 128,-1,99
 649 116 649 116 672 106 c 128,-1,100
 695 96 695 96 721.5 93 c 128,-1,101
 748 90 748 90 771 88 c 0,102,103
 792 86 792 86 799.5 80 c 128,-1,104
 807 74 807 74 807 51 c 0,105,106
 807 45 807 45 805 36.5 c 128,-1,107
 803 28 803 28 798.5 20 c 128,-1,108
 794 12 794 12 788 6 c 128,-1,109
 782 0 782 0 773 0 c 2,110,-1
 148 0 l 2,111,112
 139 0 139 0 133 6 c 128,-1,113
 127 12 127 12 122.5 20 c 128,-1,114
 118 28 118 28 116 36.5 c 128,-1,115
 114 45 114 45 114 51 c 0,0,1
EndSplineSet
EndChar

StartChar: I
Encoding: 73 73 44
Width: 913
GlyphClass: 2
Flags: W
LayerCount: 2
Fore
SplineSet
109 51 m 0,0,1
 109 67 109 67 115.5 76.5 c 128,-1,2
 122 86 122 86 142 88 c 0,3,4
 166 90 166 90 191.5 94 c 128,-1,5
 217 98 217 98 238.5 105.5 c 128,-1,6
 260 113 260 113 273.5 124 c 128,-1,7
 287 135 287 135 287 152 c 2,8,-1
 288 1234 l 2,9,10
 288 1266 288 1266 273 1284.5 c 128,-1,11
 258 1303 258 1303 235 1313 c 128,-1,12
 212 1323 212 1323 185.5 1326 c 128,-1,13
 159 1329 159 1329 136 1331 c 0,14,15
 115 1333 115 1333 107.5 1339 c 128,-1,16
 100 1345 100 1345 100 1368 c 0,17,18
 100 1374 100 1374 102 1382.5 c 128,-1,19
 104 1391 104 1391 108.5 1399 c 128,-1,20
 113 1407 113 1407 119 1413 c 128,-1,21
 125 1419 125 1419 134 1419 c 2,22,-1
 769 1419 l 2,23,24
 778 1419 778 1419 784 1413 c 128,-1,25
 790 1407 790 1407 794.5 1399 c 128,-1,26
 799 1391 799 1391 801 1382.5 c 128,-1,27
 803 1374 803 1374 803 1368 c 0,28,29
 803 1352 803 1352 796.5 1342.5 c 128,-1,30
 790 1333 790 1333 770 1331 c 0,31,32
 744 1329 744 1329 718.5 1325 c 128,-1,33
 693 1321 693 1321 672 1313.5 c 128,-1,34
 651 1306 651 1306 638 1294.5 c 128,-1,35
 625 1283 625 1283 625 1267 c 2,36,-1
 624 185 l 2,37,38
 624 153 624 153 639 134.5 c 128,-1,39
 654 116 654 116 677 106 c 128,-1,40
 700 96 700 96 726.5 93 c 128,-1,41
 753 90 753 90 776 88 c 0,42,43
 797 86 797 86 804.5 80 c 128,-1,44
 812 74 812 74 812 51 c 0,45,46
 812 45 812 45 810 36.5 c 128,-1,47
 808 28 808 28 803.5 20 c 128,-1,48
 799 12 799 12 793 6 c 128,-1,49
 787 0 787 0 778 0 c 2,50,-1
 143 0 l 2,51,52
 134 0 134 0 128 6 c 128,-1,53
 122 12 122 12 117.5 20 c 128,-1,54
 113 28 113 28 111 36.5 c 128,-1,55
 109 45 109 45 109 51 c 0,0,1
EndSplineSet
EndChar

StartChar: J
Encoding: 74 74 45
Width: 1219
GlyphClass: 2
Flags: W
LayerCount: 2
Fore
SplineSet
127 94 m 0,0,1
 88 127 88 127 65.5 169.5 c 128,-1,2
 43 212 43 212 34.5 257.5 c 128,-1,3
 26 303 26 303 30.5 348 c 128,-1,4
 35 393 35 393 50 431 c 0,5,6
 58 452 58 452 77.5 471.5 c 128,-1,7
 97 491 97 491 122.5 506.5 c 128,-1,8
 148 522 148 522 177.5 531.5 c 128,-1,9
 207 541 207 541 236 541 c 256,10,11
 265 541 265 541 288 533.5 c 128,-1,12
 311 526 311 526 327 514 c 128,-1,13
 343 502 343 502 351.5 488 c 128,-1,14
 360 474 360 474 360 461 c 0,15,16
 359 440 359 440 353.5 396 c 128,-1,17
 348 352 348 352 339.5 298.5 c 128,-1,18
 331 245 331 245 321 188.5 c 128,-1,19
 311 132 311 132 301 84 c 1,20,21
 328 73 328 73 360 66 c 128,-1,22
 392 59 392 59 430 59 c 0,23,24
 483 59 483 59 521.5 79 c 128,-1,25
 560 99 560 99 585 141 c 128,-1,26
 610 183 610 183 622 248.5 c 128,-1,27
 634 314 634 314 634 406 c 2,28,-1
 635 1234 l 2,29,30
 635 1266 635 1266 615 1284.5 c 128,-1,31
 595 1303 595 1303 564.5 1313 c 128,-1,32
 534 1323 534 1323 498.5 1326 c 128,-1,33
 463 1329 463 1329 433 1331 c 0,34,35
 412 1333 412 1333 404.5 1339 c 128,-1,36
 397 1345 397 1345 397 1368 c 0,37,38
 397 1374 397 1374 399 1382.5 c 128,-1,39
 401 1391 401 1391 405.5 1399 c 128,-1,40
 410 1407 410 1407 416 1413 c 128,-1,41
 422 1419 422 1419 431 1419 c 2,42,-1
 1136 1419 l 2,43,44
 1145 1419 1145 1419 1151 1413 c 128,-1,45
 1157 1407 1157 1407 1161.5 1399 c 128,-1,46
 1166 1391 1166 1391 1168 1382.5 c 128,-1,47
 1170 1374 1170 1374 1170 1368 c 0,48,49
 1170 1352 1170 1352 1163.5 1342 c 128,-1,50
 1157 1332 1157 1332 1137 1331 c 0,51,52
 1061 1328 1061 1328 1016 1314 c 128,-1,53
 971 1300 971 1300 971 1267 c 2,54,-1
 971 439 l 2,55,56
 971 341 971 341 947.5 268.5 c 128,-1,57
 924 196 924 196 883.5 144 c 128,-1,58
 843 92 843 92 790 58 c 128,-1,59
 737 24 737 24 678 4.5 c 128,-1,60
 619 -15 619 -15 557.5 -22.5 c 128,-1,61
 496 -30 496 -30 439 -30 c 0,62,63
 403 -30 403 -30 363 -22 c 128,-1,64
 323 -14 323 -14 282.5 1.5 c 128,-1,65
 242 17 242 17 202 40.5 c 128,-1,66
 162 64 162 64 127 94 c 0,0,1
EndSplineSet
EndChar

StartChar: K
Encoding: 75 75 46
Width: 1673
GlyphClass: 2
Flags: W
LayerCount: 2
Fore
SplineSet
98 51 m 0,0,1
 98 67 98 67 104.5 76.5 c 128,-1,2
 111 86 111 86 131 88 c 0,3,4
 155 90 155 90 180.5 95.5 c 128,-1,5
 206 101 206 101 227.5 110.5 c 128,-1,6
 249 120 249 120 262.5 132.5 c 128,-1,7
 276 145 276 145 276 162 c 2,8,-1
 277 1234 l 2,9,10
 277 1266 277 1266 262 1284.5 c 128,-1,11
 247 1303 247 1303 224 1313 c 128,-1,12
 201 1323 201 1323 174.5 1326 c 128,-1,13
 148 1329 148 1329 125 1331 c 0,14,15
 104 1333 104 1333 96.5 1339 c 128,-1,16
 89 1345 89 1345 89 1368 c 0,17,18
 89 1374 89 1374 91 1382.5 c 128,-1,19
 93 1391 93 1391 97.5 1399 c 128,-1,20
 102 1407 102 1407 108 1413 c 128,-1,21
 114 1419 114 1419 123 1419 c 2,22,-1
 748 1419 l 2,23,24
 757 1419 757 1419 763 1413 c 128,-1,25
 769 1407 769 1407 773.5 1399 c 128,-1,26
 778 1391 778 1391 780 1382.5 c 128,-1,27
 782 1374 782 1374 782 1368 c 0,28,29
 782 1352 782 1352 775.5 1342.5 c 128,-1,30
 769 1333 769 1333 749 1331 c 256,31,32
 729 1329 729 1329 705 1325 c 128,-1,33
 681 1321 681 1321 661 1313.5 c 128,-1,34
 641 1306 641 1306 627.5 1294.5 c 128,-1,35
 614 1283 614 1283 614 1267 c 2,36,-1
 613 185 l 2,37,38
 613 153 613 153 626.5 134.5 c 128,-1,39
 640 116 640 116 661 106 c 128,-1,40
 682 96 682 96 707 93 c 128,-1,41
 732 90 732 90 755 88 c 0,42,43
 776 86 776 86 783.5 80 c 128,-1,44
 791 74 791 74 791 51 c 0,45,46
 791 45 791 45 789 36.5 c 128,-1,47
 787 28 787 28 782.5 20 c 128,-1,48
 778 12 778 12 772 6 c 128,-1,49
 766 0 766 0 757 0 c 2,50,-1
 132 0 l 2,51,52
 123 0 123 0 117 6 c 128,-1,53
 111 12 111 12 106.5 20 c 128,-1,54
 102 28 102 28 100 36.5 c 128,-1,55
 98 45 98 45 98 51 c 0,0,1
1164 1276 m 2,56,57
 1179 1292 1179 1292 1170.5 1302 c 128,-1,58
 1162 1312 1162 1312 1142.5 1317.5 c 128,-1,59
 1123 1323 1123 1323 1098.5 1325.5 c 128,-1,60
 1074 1328 1074 1328 1058 1330 c 0,61,62
 1038 1332 1038 1332 1032.5 1341.5 c 128,-1,63
 1027 1351 1027 1351 1027 1367 c 0,64,65
 1027 1373 1027 1373 1029 1381.5 c 128,-1,66
 1031 1390 1031 1390 1035.5 1398 c 128,-1,67
 1040 1406 1040 1406 1046 1412 c 128,-1,68
 1052 1418 1052 1418 1061 1418 c 2,69,-1
 1543 1418 l 2,70,71
 1552 1418 1552 1418 1558 1412 c 128,-1,72
 1564 1406 1564 1406 1568.5 1398 c 128,-1,73
 1573 1390 1573 1390 1575 1381.5 c 128,-1,74
 1577 1373 1577 1373 1577 1367 c 0,75,76
 1577 1330 1577 1330 1544 1330 c 0,77,78
 1518 1330 1518 1330 1490.5 1325.5 c 128,-1,79
 1463 1321 1463 1321 1436 1312 c 128,-1,80
 1409 1303 1409 1303 1385 1290 c 128,-1,81
 1361 1277 1361 1277 1343 1260 c 2,82,-1
 898 826 l 1,83,84
 924 814 924 814 961 782.5 c 128,-1,85
 998 751 998 751 1041 706.5 c 128,-1,86
 1084 662 1084 662 1130.5 609 c 128,-1,87
 1177 556 1177 556 1221.5 500.5 c 128,-1,88
 1266 445 1266 445 1306.5 391.5 c 128,-1,89
 1347 338 1347 338 1379 293 c 0,90,91
 1452 190 1452 190 1509 141.5 c 128,-1,92
 1566 93 1566 93 1603 89 c 0,93,94
 1624 87 1624 87 1631.5 78 c 128,-1,95
 1639 69 1639 69 1639 46 c 0,96,97
 1639 40 1639 40 1637 32.5 c 128,-1,98
 1635 25 1635 25 1630.5 17.5 c 128,-1,99
 1626 10 1626 10 1619.5 5 c 128,-1,100
 1613 0 1613 0 1605 0 c 2,101,-1
 1241 0 l 2,102,103
 1201 0 1201 0 1162 30.5 c 128,-1,104
 1123 61 1123 61 1084 110.5 c 128,-1,105
 1045 160 1045 160 1007 223 c 128,-1,106
 969 286 969 286 930.5 352 c 128,-1,107
 892 418 892 418 853.5 480.5 c 128,-1,108
 815 543 815 543 776 591 c 128,-1,109
 737 639 737 639 696.5 667 c 128,-1,110
 656 695 656 695 615 692 c 1,111,-1
 1164 1276 l 2,56,57
EndSplineSet
EndChar

StartChar: L
Encoding: 76 76 47
Width: 1405
GlyphClass: 2
Flags: W
LayerCount: 2
Fore
SplineSet
99 51 m 0,0,1
 99 67 99 67 105.5 76.5 c 128,-1,2
 112 86 112 86 132 88 c 0,3,4
 156 90 156 90 181.5 95.5 c 128,-1,5
 207 101 207 101 228.5 110.5 c 128,-1,6
 250 120 250 120 263.5 132.5 c 128,-1,7
 277 145 277 145 277 162 c 2,8,-1
 277 1234 l 2,9,10
 277 1266 277 1266 263 1284.5 c 128,-1,11
 249 1303 249 1303 227.5 1313 c 128,-1,12
 206 1323 206 1323 179 1326 c 128,-1,13
 152 1329 152 1329 125 1331 c 0,14,15
 104 1333 104 1333 96.5 1339 c 128,-1,16
 89 1345 89 1345 89 1368 c 0,17,18
 89 1374 89 1374 91 1382.5 c 128,-1,19
 93 1391 93 1391 97.5 1399 c 128,-1,20
 102 1407 102 1407 108 1413 c 128,-1,21
 114 1419 114 1419 123 1419 c 2,22,-1
 808 1419 l 2,23,24
 817 1419 817 1419 823 1413 c 128,-1,25
 829 1407 829 1407 833.5 1399 c 128,-1,26
 838 1391 838 1391 840 1382.5 c 128,-1,27
 842 1374 842 1374 842 1368 c 0,28,29
 842 1352 842 1352 835.5 1341.5 c 128,-1,30
 829 1331 829 1331 809 1331 c 0,31,32
 766 1331 766 1331 730.5 1326.5 c 128,-1,33
 695 1322 695 1322 669 1311.5 c 128,-1,34
 643 1301 643 1301 628.5 1283 c 128,-1,35
 614 1265 614 1265 614 1237 c 2,36,-1
 614 177 l 2,37,38
 614 152 614 152 621.5 137 c 128,-1,39
 629 122 629 122 641.5 114 c 128,-1,40
 654 106 654 106 671 103.5 c 128,-1,41
 688 101 688 101 706 101 c 2,42,-1
 991 101 l 2,43,44
 1026 101 1026 101 1061 133.5 c 128,-1,45
 1096 166 1096 166 1128.5 216.5 c 128,-1,46
 1161 267 1161 267 1188 326.5 c 128,-1,47
 1215 386 1215 386 1234 440 c 0,48,49
 1237 449 1237 449 1245 455.5 c 128,-1,50
 1253 462 1253 462 1263 465.5 c 128,-1,51
 1273 469 1273 469 1283.5 471 c 128,-1,52
 1294 473 1294 473 1302 473 c 0,53,54
 1321 473 1321 473 1341 464.5 c 128,-1,55
 1361 456 1361 456 1359 439 c 2,56,-1
 1300 0 l 1,57,-1
 133 0 l 2,58,59
 124 0 124 0 118 6 c 128,-1,60
 112 12 112 12 107.5 20 c 128,-1,61
 103 28 103 28 101 36.5 c 128,-1,62
 99 45 99 45 99 51 c 0,0,1
EndSplineSet
EndChar

StartChar: M
Encoding: 77 77 48
Width: 2095
GlyphClass: 2
Flags: W
LayerCount: 2
Fore
SplineSet
59 51 m 0,0,1
 59 67 59 67 65.5 76.5 c 128,-1,2
 72 86 72 86 92 88 c 0,3,4
 122 90 122 90 153 93.5 c 128,-1,5
 184 97 184 97 209.5 106.5 c 128,-1,6
 235 116 235 116 251 134 c 128,-1,7
 267 152 267 152 267 184 c 2,8,-1
 267 1234 l 2,9,10
 267 1266 267 1266 249 1284.5 c 128,-1,11
 231 1303 231 1303 204 1313 c 128,-1,12
 177 1323 177 1323 145 1326 c 128,-1,13
 113 1329 113 1329 86 1331 c 0,14,15
 65 1333 65 1333 57.5 1339 c 128,-1,16
 50 1345 50 1345 50 1368 c 0,17,18
 50 1374 50 1374 52 1382.5 c 128,-1,19
 54 1391 54 1391 58.5 1399 c 128,-1,20
 63 1407 63 1407 69 1413 c 128,-1,21
 75 1419 75 1419 84 1419 c 2,22,-1
 726 1419 l 1,23,-1
 726 1414 l 1,24,25
 729 1398 729 1398 734.5 1373.5 c 128,-1,26
 740 1349 740 1349 747 1333 c 1,27,-1
 1055 497 l 1,28,-1
 1379 1331 l 2,29,30
 1382 1338 1382 1338 1385 1349.5 c 128,-1,31
 1388 1361 1388 1361 1390.5 1374 c 128,-1,32
 1393 1387 1393 1387 1394.5 1399 c 128,-1,33
 1396 1411 1396 1411 1396 1419 c 1,34,-1
 1973 1419 l 2,35,36
 1982 1419 1982 1419 1988 1413 c 128,-1,37
 1994 1407 1994 1407 1998.5 1399 c 128,-1,38
 2003 1391 2003 1391 2005 1382.5 c 128,-1,39
 2007 1374 2007 1374 2007 1368 c 0,40,41
 2007 1352 2007 1352 2000.5 1342.5 c 128,-1,42
 1994 1333 1994 1333 1974 1331 c 0,43,44
 1948 1329 1948 1329 1922.5 1325 c 128,-1,45
 1897 1321 1897 1321 1876 1313.5 c 128,-1,46
 1855 1306 1855 1306 1842 1294.5 c 128,-1,47
 1829 1283 1829 1283 1829 1267 c 2,48,-1
 1829 185 l 2,49,50
 1829 153 1829 153 1844 134.5 c 128,-1,51
 1859 116 1859 116 1881.5 106 c 128,-1,52
 1904 96 1904 96 1930.5 93 c 128,-1,53
 1957 90 1957 90 1980 88 c 0,54,55
 2001 86 2001 86 2008.5 80 c 128,-1,56
 2016 74 2016 74 2016 51 c 0,57,58
 2016 45 2016 45 2014 36.5 c 128,-1,59
 2012 28 2012 28 2007.5 20 c 128,-1,60
 2003 12 2003 12 1997 6 c 128,-1,61
 1991 0 1991 0 1982 0 c 2,62,-1
 1337 0 l 2,63,64
 1328 0 1328 0 1322 6 c 128,-1,65
 1316 12 1316 12 1311.5 20 c 128,-1,66
 1307 28 1307 28 1305 36.5 c 128,-1,67
 1303 45 1303 45 1303 51 c 0,68,69
 1303 67 1303 67 1309.5 76.5 c 128,-1,70
 1316 86 1316 86 1336 88 c 0,71,72
 1360 90 1360 90 1387 94 c 128,-1,73
 1414 98 1414 98 1437.5 105.5 c 128,-1,74
 1461 113 1461 113 1476 124 c 128,-1,75
 1491 135 1491 135 1491 152 c 2,76,-1
 1491 1281 l 1,77,-1
 1463 1281 l 1,78,-1
 971 0 l 1,79,-1
 921 0 l 1,80,-1
 921 3 l 1,81,-1
 920 0 l 1,82,-1
 402 1281 l 1,83,-1
 364 1281 l 1,84,-1
 364 185 l 2,85,86
 364 153 364 153 383.5 134.5 c 128,-1,87
 403 116 403 116 432.5 106 c 128,-1,88
 462 96 462 96 495.5 93 c 128,-1,89
 529 90 529 90 556 88 c 0,90,91
 577 86 577 86 584.5 80 c 128,-1,92
 592 74 592 74 592 51 c 0,93,94
 592 45 592 45 590 36.5 c 128,-1,95
 588 28 588 28 583.5 20 c 128,-1,96
 579 12 579 12 573 6 c 128,-1,97
 567 0 567 0 558 0 c 2,98,-1
 93 0 l 2,99,100
 84 0 84 0 78 6 c 128,-1,101
 72 12 72 12 67.5 20 c 128,-1,102
 63 28 63 28 61 36.5 c 128,-1,103
 59 45 59 45 59 51 c 0,0,1
EndSplineSet
EndChar

StartChar: N
Encoding: 78 78 49
Width: 1718
GlyphClass: 2
Flags: W
LayerCount: 2
Fore
SplineSet
55 51 m 0,0,1
 55 67 55 67 61.5 76.5 c 128,-1,2
 68 86 68 86 88 88 c 0,3,4
 112 90 112 90 144 94.5 c 128,-1,5
 176 99 176 99 204.5 108 c 128,-1,6
 233 117 233 117 253 132.5 c 128,-1,7
 273 148 273 148 273 172 c 2,8,-1
 273 1234 l 2,9,10
 273 1266 273 1266 256.5 1284.5 c 128,-1,11
 240 1303 240 1303 215.5 1313 c 128,-1,12
 191 1323 191 1323 163 1326 c 128,-1,13
 135 1329 135 1329 112 1331 c 0,14,15
 91 1333 91 1333 83.5 1339 c 128,-1,16
 76 1345 76 1345 76 1368 c 0,17,18
 76 1374 76 1374 78 1382.5 c 128,-1,19
 80 1391 80 1391 84.5 1399 c 128,-1,20
 89 1407 89 1407 95 1413 c 128,-1,21
 101 1419 101 1419 110 1419 c 2,22,-1
 568 1419 l 1,23,-1
 1327 483 l 1,24,-1
 1339 483 l 1,25,-1
 1339 1234 l 2,26,27
 1339 1266 1339 1266 1319 1284.5 c 128,-1,28
 1299 1303 1299 1303 1270.5 1313 c 128,-1,29
 1242 1323 1242 1323 1211 1326 c 128,-1,30
 1180 1329 1180 1329 1157 1331 c 0,31,32
 1136 1333 1136 1333 1128.5 1339 c 128,-1,33
 1121 1345 1121 1345 1121 1368 c 0,34,35
 1121 1374 1121 1374 1123 1382.5 c 128,-1,36
 1125 1391 1125 1391 1129.5 1399 c 128,-1,37
 1134 1407 1134 1407 1140 1413 c 128,-1,38
 1146 1419 1146 1419 1155 1419 c 2,39,-1
 1630 1419 l 2,40,41
 1639 1419 1639 1419 1645 1413 c 128,-1,42
 1651 1407 1651 1407 1655.5 1399 c 128,-1,43
 1660 1391 1660 1391 1662 1382.5 c 128,-1,44
 1664 1374 1664 1374 1664 1368 c 0,45,46
 1664 1352 1664 1352 1657.5 1342.5 c 128,-1,47
 1651 1333 1651 1333 1631 1331 c 0,48,49
 1608 1329 1608 1329 1578 1323.5 c 128,-1,50
 1548 1318 1548 1318 1521 1307.5 c 128,-1,51
 1494 1297 1494 1297 1475 1280.5 c 128,-1,52
 1456 1264 1456 1264 1456 1239 c 2,53,-1
 1456 113 l 2,54,55
 1456 104 1456 104 1456.5 96.5 c 128,-1,56
 1457 89 1457 89 1458 81.5 c 128,-1,57
 1459 74 1459 74 1460 64 c 128,-1,58
 1461 54 1461 54 1462 40 c 0,59,60
 1463 20 1463 20 1452 7 c 128,-1,61
 1441 -6 1441 -6 1424 -14.5 c 128,-1,62
 1407 -23 1407 -23 1387 -26.5 c 128,-1,63
 1367 -30 1367 -30 1352 -30 c 0,64,65
 1336 -30 1336 -30 1321 -23.5 c 128,-1,66
 1306 -17 1306 -17 1298 -8 c 2,67,-1
 417 1080 l 1,68,-1
 400 1080 l 1,69,-1
 400 185 l 2,70,71
 400 153 400 153 423 134.5 c 128,-1,72
 446 116 446 116 478 106 c 128,-1,73
 510 96 510 96 544.5 93 c 128,-1,74
 579 90 579 90 602 88 c 0,75,76
 623 86 623 86 630.5 80 c 128,-1,77
 638 74 638 74 638 51 c 0,78,79
 638 45 638 45 636 36.5 c 128,-1,80
 634 28 634 28 629.5 20 c 128,-1,81
 625 12 625 12 619 6 c 128,-1,82
 613 0 613 0 604 0 c 2,83,-1
 89 0 l 2,84,85
 80 0 80 0 74 6 c 128,-1,86
 68 12 68 12 63.5 20 c 128,-1,87
 59 28 59 28 57 36.5 c 128,-1,88
 55 45 55 45 55 51 c 0,0,1
EndSplineSet
EndChar

StartChar: O
Encoding: 79 79 50
Width: 1679
GlyphClass: 2
Flags: W
LayerCount: 2
Fore
SplineSet
83 716 m 256,0,1
 83 870 83 870 135.5 1003.5 c 128,-1,2
 188 1137 188 1137 286.5 1236 c 128,-1,3
 385 1335 385 1335 524.5 1392 c 128,-1,4
 664 1449 664 1449 838 1449 c 256,5,6
 1012 1449 1012 1449 1152 1392 c 128,-1,7
 1292 1335 1292 1335 1390.5 1236 c 128,-1,8
 1489 1137 1489 1137 1542 1003.5 c 128,-1,9
 1595 870 1595 870 1595 716 c 256,10,11
 1595 562 1595 562 1542 426.5 c 128,-1,12
 1489 291 1489 291 1390.5 189.5 c 128,-1,13
 1292 88 1292 88 1152 29.5 c 128,-1,14
 1012 -29 1012 -29 838 -29 c 256,15,16
 664 -29 664 -29 524.5 29.5 c 128,-1,17
 385 88 385 88 287 189.5 c 128,-1,18
 189 291 189 291 136 426.5 c 128,-1,19
 83 562 83 562 83 716 c 256,0,1
838 65 m 256,20,21
 933 65 933 65 1003 110 c 128,-1,22
 1073 155 1073 155 1118.5 239 c 128,-1,23
 1164 323 1164 323 1186.5 443 c 128,-1,24
 1209 563 1209 563 1209 714 c 256,25,26
 1209 865 1209 865 1186.5 984 c 128,-1,27
 1164 1103 1164 1103 1118.5 1185.5 c 128,-1,28
 1073 1268 1073 1268 1003 1312 c 128,-1,29
 933 1356 933 1356 838 1356 c 256,30,31
 743 1356 743 1356 673.5 1312 c 128,-1,32
 604 1268 604 1268 558.5 1185.5 c 128,-1,33
 513 1103 513 1103 491 984 c 128,-1,34
 469 865 469 865 469 714 c 256,35,36
 469 563 469 563 491 443 c 128,-1,37
 513 323 513 323 558.5 239 c 128,-1,38
 604 155 604 155 673.5 110 c 128,-1,39
 743 65 743 65 838 65 c 256,20,21
EndSplineSet
EndChar

StartChar: P
Encoding: 80 80 51
Width: 1436
GlyphClass: 2
Flags: W
LayerCount: 2
Fore
SplineSet
95 51 m 0,0,1
 95 67 95 67 101.5 76.5 c 128,-1,2
 108 86 108 86 128 88 c 0,3,4
 152 90 152 90 177.5 94 c 128,-1,5
 203 98 203 98 224.5 105.5 c 128,-1,6
 246 113 246 113 259.5 124 c 128,-1,7
 273 135 273 135 273 152 c 2,8,-1
 273 1234 l 2,9,10
 273 1266 273 1266 258 1284.5 c 128,-1,11
 243 1303 243 1303 220.5 1313 c 128,-1,12
 198 1323 198 1323 171.5 1326 c 128,-1,13
 145 1329 145 1329 122 1331 c 0,14,15
 101 1333 101 1333 93.5 1339 c 128,-1,16
 86 1345 86 1345 86 1368 c 0,17,18
 86 1374 86 1374 88 1382.5 c 128,-1,19
 90 1391 90 1391 94.5 1399 c 128,-1,20
 99 1407 99 1407 105 1413 c 128,-1,21
 111 1419 111 1419 120 1419 c 2,22,-1
 578 1419 l 1,23,-1
 834 1421 l 2,24,25
 901 1421 901 1421 968.5 1412 c 128,-1,26
 1036 1403 1036 1403 1097 1383.5 c 128,-1,27
 1158 1364 1158 1364 1211 1332 c 128,-1,28
 1264 1300 1264 1300 1303 1254.5 c 128,-1,29
 1342 1209 1342 1209 1364 1148.5 c 128,-1,30
 1386 1088 1386 1088 1386 1010 c 0,31,32
 1386 909 1386 909 1341.5 825.5 c 128,-1,33
 1297 742 1297 742 1217.5 682 c 128,-1,34
 1138 622 1138 622 1029.5 588.5 c 128,-1,35
 921 555 921 555 793 555 c 2,36,-1
 611 555 l 1,37,-1
 611 185 l 2,38,39
 611 153 611 153 631.5 134.5 c 128,-1,40
 652 116 652 116 682.5 106 c 128,-1,41
 713 96 713 96 748 93 c 128,-1,42
 783 90 783 90 812 88 c 0,43,44
 833 86 833 86 840.5 80 c 128,-1,45
 848 74 848 74 848 51 c 0,46,47
 848 45 848 45 846 36.5 c 128,-1,48
 844 28 844 28 839.5 20 c 128,-1,49
 835 12 835 12 829 6 c 128,-1,50
 823 0 823 0 814 0 c 2,51,-1
 129 0 l 2,52,53
 120 0 120 0 114 6 c 128,-1,54
 108 12 108 12 103.5 20 c 128,-1,55
 99 28 99 28 97 36.5 c 128,-1,56
 95 45 95 45 95 51 c 0,0,1
710 641 m 2,57,58
 729 641 729 641 759 648 c 128,-1,59
 789 655 789 655 823 671.5 c 128,-1,60
 857 688 857 688 892 714.5 c 128,-1,61
 927 741 927 741 955 779.5 c 128,-1,62
 983 818 983 818 1000.5 870 c 128,-1,63
 1018 922 1018 922 1018 989 c 0,64,65
 1018 1092 1018 1092 986.5 1160.5 c 128,-1,66
 955 1229 955 1229 905 1269 c 128,-1,67
 855 1309 855 1309 793.5 1325.5 c 128,-1,68
 732 1342 732 1342 673 1342 c 2,69,-1
 611 1342 l 1,70,-1
 611 641 l 1,71,-1
 710 641 l 2,57,58
EndSplineSet
EndChar

StartChar: Q
Encoding: 81 81 52
Width: 1679
GlyphClass: 2
Flags: W
LayerCount: 2
Fore
SplineSet
665 -14 m 1,0,1
 527 11 527 11 417 78 c 128,-1,2
 307 145 307 145 230.5 241.5 c 128,-1,3
 154 338 154 338 113 459.5 c 128,-1,4
 72 581 72 581 72 716 c 0,5,6
 72 870 72 870 124.5 1003.5 c 128,-1,7
 177 1137 177 1137 275.5 1236 c 128,-1,8
 374 1335 374 1335 513.5 1392 c 128,-1,9
 653 1449 653 1449 827 1449 c 256,10,11
 1001 1449 1001 1449 1141 1392 c 128,-1,12
 1281 1335 1281 1335 1379.5 1236 c 128,-1,13
 1478 1137 1478 1137 1531 1003.5 c 128,-1,14
 1584 870 1584 870 1584 716 c 0,15,16
 1584 588 1584 588 1547 472.5 c 128,-1,17
 1510 357 1510 357 1440.5 262.5 c 128,-1,18
 1371 168 1371 168 1271.5 100 c 128,-1,19
 1172 32 1172 32 1046 -1 c 1,20,21
 1048 -29 1048 -29 1055 -63 c 128,-1,22
 1062 -97 1062 -97 1078 -131 c 128,-1,23
 1094 -165 1094 -165 1121.5 -197 c 128,-1,24
 1149 -229 1149 -229 1192.5 -253 c 128,-1,25
 1236 -277 1236 -277 1298 -291 c 128,-1,26
 1360 -305 1360 -305 1445 -303 c 1,27,-1
 1445 -393 l 1,28,29
 1414 -401 1414 -401 1379 -406 c 0,30,31
 1349 -411 1349 -411 1311 -415 c 128,-1,32
 1273 -419 1273 -419 1232 -419 c 0,33,34
 1177 -419 1177 -419 1118.5 -413.5 c 128,-1,35
 1060 -408 1060 -408 1002.5 -393 c 128,-1,36
 945 -378 945 -378 891 -350 c 128,-1,37
 837 -322 837 -322 792 -277 c 128,-1,38
 747 -232 747 -232 714 -167.5 c 128,-1,39
 681 -103 681 -103 665 -14 c 1,0,1
827 65 m 256,40,41
 922 65 922 65 992 110 c 128,-1,42
 1062 155 1062 155 1107.5 239 c 128,-1,43
 1153 323 1153 323 1175.5 443 c 128,-1,44
 1198 563 1198 563 1198 714 c 256,45,46
 1198 865 1198 865 1175.5 984 c 128,-1,47
 1153 1103 1153 1103 1107.5 1185.5 c 128,-1,48
 1062 1268 1062 1268 992 1312 c 128,-1,49
 922 1356 922 1356 827 1356 c 256,50,51
 732 1356 732 1356 662.5 1312 c 128,-1,52
 593 1268 593 1268 547.5 1185.5 c 128,-1,53
 502 1103 502 1103 480 984 c 128,-1,54
 458 865 458 865 458 714 c 256,55,56
 458 563 458 563 480 443 c 128,-1,57
 502 323 502 323 547.5 239 c 128,-1,58
 593 155 593 155 662.5 110 c 128,-1,59
 732 65 732 65 827 65 c 256,40,41
EndSplineSet
EndChar

StartChar: R
Encoding: 82 82 53
Width: 1632
GlyphClass: 2
Flags: W
LayerCount: 2
Fore
SplineSet
98 51 m 0,0,1
 98 67 98 67 104.5 76.5 c 128,-1,2
 111 86 111 86 131 88 c 0,3,4
 155 90 155 90 181 94 c 128,-1,5
 207 98 207 98 228 105.5 c 128,-1,6
 249 113 249 113 263 124 c 128,-1,7
 277 135 277 135 277 152 c 2,8,-1
 277 1234 l 2,9,10
 277 1266 277 1266 262 1284.5 c 128,-1,11
 247 1303 247 1303 224 1313 c 128,-1,12
 201 1323 201 1323 174.5 1326 c 128,-1,13
 148 1329 148 1329 125 1331 c 0,14,15
 104 1333 104 1333 96.5 1339 c 128,-1,16
 89 1345 89 1345 89 1368 c 0,17,18
 89 1374 89 1374 91 1382.5 c 128,-1,19
 93 1391 93 1391 97.5 1399 c 128,-1,20
 102 1407 102 1407 108 1413 c 128,-1,21
 114 1419 114 1419 123 1419 c 2,22,-1
 841 1419 l 1,23,24
 962 1418 962 1418 1067.5 1399.5 c 128,-1,25
 1173 1381 1173 1381 1250.5 1338.5 c 128,-1,26
 1328 1296 1328 1296 1372.5 1225.5 c 128,-1,27
 1417 1155 1417 1155 1417 1050 c 0,28,29
 1417 976 1417 976 1391 916.5 c 128,-1,30
 1365 857 1365 857 1316 811 c 128,-1,31
 1267 765 1267 765 1198 731 c 128,-1,32
 1129 697 1129 697 1043 674 c 1,33,34
 1113 669 1113 669 1161.5 645 c 128,-1,35
 1210 621 1210 621 1244.5 584.5 c 128,-1,36
 1279 548 1279 548 1303 502 c 128,-1,37
 1327 456 1327 456 1348.5 405.5 c 128,-1,38
 1370 355 1370 355 1391.5 303.5 c 128,-1,39
 1413 252 1413 252 1442 206 c 1,40,41
 1459 173 1459 173 1479.5 151.5 c 128,-1,42
 1500 130 1500 130 1521 116.5 c 128,-1,43
 1542 103 1542 103 1563.5 97 c 128,-1,44
 1585 91 1585 91 1603 89 c 0,45,46
 1624 87 1624 87 1631.5 78 c 128,-1,47
 1639 69 1639 69 1639 46 c 0,48,49
 1639 40 1639 40 1637 32.5 c 128,-1,50
 1635 25 1635 25 1630.5 17.5 c 128,-1,51
 1626 10 1626 10 1619.5 5 c 128,-1,52
 1613 0 1613 0 1605 0 c 2,53,-1
 1292 0 l 2,54,55
 1237 0 1237 0 1197.5 27.5 c 128,-1,56
 1158 55 1158 55 1128.5 100.5 c 128,-1,57
 1099 146 1099 146 1076 204 c 128,-1,58
 1053 262 1053 262 1031.5 322.5 c 128,-1,59
 1010 383 1010 383 986.5 441 c 128,-1,60
 963 499 963 499 933 544.5 c 128,-1,61
 903 590 903 590 863 617.5 c 128,-1,62
 823 645 823 645 768 645 c 2,63,-1
 613 645 l 1,64,-1
 613 185 l 2,65,66
 613 153 613 153 629.5 134.5 c 128,-1,67
 646 116 646 116 671.5 106 c 128,-1,68
 697 96 697 96 727.5 93 c 128,-1,69
 758 90 758 90 785 88 c 0,70,71
 806 86 806 86 813.5 80 c 128,-1,72
 821 74 821 74 821 51 c 0,73,74
 821 45 821 45 819 36.5 c 128,-1,75
 817 28 817 28 812.5 20 c 128,-1,76
 808 12 808 12 802 6 c 128,-1,77
 796 0 796 0 787 0 c 2,78,-1
 132 0 l 2,79,80
 123 0 123 0 117 6 c 128,-1,81
 111 12 111 12 106.5 20 c 128,-1,82
 102 28 102 28 100 36.5 c 128,-1,83
 98 45 98 45 98 51 c 0,0,1
717 731 m 2,84,85
 779 731 779 731 837 741.5 c 128,-1,86
 895 752 895 752 939.5 783.5 c 128,-1,87
 984 815 984 815 1011 871 c 128,-1,88
 1038 927 1038 927 1038 1019 c 0,89,90
 1038 1110 1038 1110 1016 1170.5 c 128,-1,91
 994 1231 994 1231 953 1267 c 128,-1,92
 912 1303 912 1303 854 1317.5 c 128,-1,93
 796 1332 796 1332 724 1332 c 2,94,-1
 613 1332 l 1,95,-1
 613 731 l 1,96,-1
 717 731 l 2,84,85
EndSplineSet
EndChar

StartChar: S
Encoding: 83 83 54
Width: 1329
GlyphClass: 2
Flags: W
LayerCount: 2
Fore
SplineSet
150 53 m 0,0,1
 153 106 153 106 152 165 c 128,-1,2
 151 224 151 224 147.5 279 c 128,-1,3
 144 334 144 334 139.5 381 c 128,-1,4
 135 428 135 428 132 458 c 1,5,6
 128 487 128 487 144.5 502.5 c 128,-1,7
 161 518 161 518 183.5 520 c 128,-1,8
 206 522 206 522 226.5 511 c 128,-1,9
 247 500 247 500 252 478 c 0,10,11
 255 465 255 465 259 451 c 128,-1,12
 263 437 263 437 271.5 416.5 c 128,-1,13
 280 396 280 396 293 366.5 c 128,-1,14
 306 337 306 337 326 294 c 1,15,16
 354 237 354 237 398.5 193 c 128,-1,17
 443 149 443 149 493.5 119 c 128,-1,18
 544 89 544 89 595 74 c 128,-1,19
 646 59 646 59 687 59 c 0,20,21
 739 59 739 59 787.5 65.5 c 128,-1,22
 836 72 836 72 873.5 91.5 c 128,-1,23
 911 111 911 111 933 147.5 c 128,-1,24
 955 184 955 184 955 244 c 0,25,26
 955 301 955 301 920 350 c 128,-1,27
 885 399 885 399 828 442.5 c 128,-1,28
 771 486 771 486 699 526 c 128,-1,29
 627 566 627 566 553 605 c 1,30,31
 487 643 487 643 419.5 686.5 c 128,-1,32
 352 730 352 730 297 785.5 c 128,-1,33
 242 841 242 841 207.5 910.5 c 128,-1,34
 173 980 173 980 173 1069 c 0,35,36
 173 1165 173 1165 210.5 1234.5 c 128,-1,37
 248 1304 248 1304 314 1350 c 128,-1,38
 380 1396 380 1396 471 1419.5 c 128,-1,39
 562 1443 562 1443 669 1448 c 0,40,41
 710 1450 710 1450 756.5 1443.5 c 128,-1,42
 803 1437 803 1437 846 1428.5 c 128,-1,43
 889 1420 889 1420 922.5 1411.5 c 128,-1,44
 956 1403 956 1403 970 1401 c 0,45,46
 991 1397 991 1397 1003 1398.5 c 128,-1,47
 1015 1400 1015 1400 1023 1404 c 128,-1,48
 1031 1408 1031 1408 1037 1414 c 128,-1,49
 1043 1420 1043 1420 1052 1425 c 0,50,51
 1063 1432 1063 1432 1080.5 1432 c 128,-1,52
 1098 1432 1098 1432 1114 1427 c 128,-1,53
 1130 1422 1130 1422 1141.5 1413 c 128,-1,54
 1153 1404 1153 1404 1153 1394 c 0,55,56
 1153 1385 1153 1385 1155 1353 c 128,-1,57
 1157 1321 1157 1321 1160.5 1278.5 c 128,-1,58
 1164 1236 1164 1236 1168.5 1188.5 c 128,-1,59
 1173 1141 1173 1141 1178 1100 c 0,60,61
 1183 1064 1183 1064 1167 1047.5 c 128,-1,62
 1151 1031 1151 1031 1129 1028.5 c 128,-1,63
 1107 1026 1107 1026 1086.5 1033 c 128,-1,64
 1066 1040 1066 1040 1063 1051 c 0,65,66
 1011 1212 1011 1212 920.5 1291 c 128,-1,67
 830 1370 830 1370 721 1370 c 0,68,69
 662 1370 662 1370 616.5 1361 c 128,-1,70
 571 1352 571 1352 540.5 1331 c 128,-1,71
 510 1310 510 1310 494.5 1275.5 c 128,-1,72
 479 1241 479 1241 479 1190 c 0,73,74
 479 1142 479 1142 511 1094.5 c 128,-1,75
 543 1047 543 1047 594.5 1003 c 128,-1,76
 646 959 646 959 711.5 919 c 128,-1,77
 777 879 777 879 844 845 c 0,78,79
 925 804 925 804 1003 756.5 c 128,-1,80
 1081 709 1081 709 1141.5 652.5 c 128,-1,81
 1202 596 1202 596 1239.5 529 c 128,-1,82
 1277 462 1277 462 1277 382 c 0,83,84
 1277 284 1277 284 1238 207.5 c 128,-1,85
 1199 131 1199 131 1125.5 78 c 128,-1,86
 1052 25 1052 25 945.5 -2.5 c 128,-1,87
 839 -30 839 -30 704 -30 c 0,88,89
 639 -30 639 -30 588.5 -21 c 128,-1,90
 538 -12 538 -12 499.5 -0.5 c 128,-1,91
 461 11 461 11 434 23 c 128,-1,92
 407 35 407 35 389 41 c 0,93,94
 368 49 368 49 354 56.5 c 128,-1,95
 340 64 340 64 328.5 67 c 128,-1,96
 317 70 317 70 306.5 66 c 128,-1,97
 296 62 296 62 282 46 c 0,98,99
 260 21 260 21 236.5 12 c 128,-1,100
 213 3 213 3 193.5 6 c 128,-1,101
 174 9 174 9 161.5 21.5 c 128,-1,102
 149 34 149 34 150 53 c 0,0,1
EndSplineSet
EndChar

StartChar: T
Encoding: 84 84 55
Width: 1401
GlyphClass: 2
Flags: W
LayerCount: 2
Fore
SplineSet
294 51 m 0,0,1
 294 67 294 67 300.5 76.5 c 128,-1,2
 307 86 307 86 327 88 c 0,3,4
 362 90 362 90 398.5 94.5 c 128,-1,5
 435 99 435 99 465 109 c 128,-1,6
 495 119 495 119 514 136.5 c 128,-1,7
 533 154 533 154 533 182 c 2,8,-1
 533 1320 l 1,9,-1
 290 1320 l 2,10,11
 261 1320 261 1320 239 1302 c 128,-1,12
 217 1284 217 1284 200.5 1256 c 128,-1,13
 184 1228 184 1228 172 1193.5 c 128,-1,14
 160 1159 160 1159 152.5 1125.5 c 128,-1,15
 145 1092 145 1092 141 1063.5 c 128,-1,16
 137 1035 137 1035 136 1019 c 0,17,18
 135 1009 135 1009 129 1002.5 c 128,-1,19
 123 996 123 996 114.5 992.5 c 128,-1,20
 106 989 106 989 96.5 987.5 c 128,-1,21
 87 986 87 986 79 986 c 0,22,23
 73 986 73 986 64.5 988 c 128,-1,24
 56 990 56 990 48 994.5 c 128,-1,25
 40 999 40 999 34 1005 c 128,-1,26
 28 1011 28 1011 28 1020 c 0,27,28
 29 1053 29 1053 30.5 1095 c 128,-1,29
 32 1137 32 1137 34 1181.5 c 128,-1,30
 36 1226 36 1226 38.5 1268.5 c 128,-1,31
 41 1311 41 1311 44 1344.5 c 128,-1,32
 47 1378 47 1378 50.5 1398.5 c 128,-1,33
 54 1419 54 1419 58 1419 c 2,34,-1
 1345 1419 l 2,35,36
 1349 1419 1349 1419 1352.5 1398.5 c 128,-1,37
 1356 1378 1356 1378 1359 1344.5 c 128,-1,38
 1362 1311 1362 1311 1364.5 1268.5 c 128,-1,39
 1367 1226 1367 1226 1369 1181.5 c 128,-1,40
 1371 1137 1371 1137 1372.5 1095 c 128,-1,41
 1374 1053 1374 1053 1375 1020 c 0,42,43
 1375 1011 1375 1011 1369 1005 c 128,-1,44
 1363 999 1363 999 1355 994.5 c 128,-1,45
 1347 990 1347 990 1338.5 988 c 128,-1,46
 1330 986 1330 986 1324 986 c 0,47,48
 1316 986 1316 986 1306.5 987.5 c 128,-1,49
 1297 989 1297 989 1288.5 992.5 c 128,-1,50
 1280 996 1280 996 1274 1002.5 c 128,-1,51
 1268 1009 1268 1009 1267 1019 c 0,52,53
 1265 1035 1265 1035 1261 1063.5 c 128,-1,54
 1257 1092 1257 1092 1249.5 1125.5 c 128,-1,55
 1242 1159 1242 1159 1230.5 1193.5 c 128,-1,56
 1219 1228 1219 1228 1202.5 1256 c 128,-1,57
 1186 1284 1186 1284 1164 1302 c 128,-1,58
 1142 1320 1142 1320 1113 1320 c 2,59,-1
 869 1320 l 1,60,-1
 869 185 l 2,61,62
 869 153 869 153 889 134.5 c 128,-1,63
 909 116 909 116 939.5 106 c 128,-1,64
 970 96 970 96 1005.5 93 c 128,-1,65
 1041 90 1041 90 1071 88 c 0,66,67
 1092 86 1092 86 1099.5 80 c 128,-1,68
 1107 74 1107 74 1107 51 c 0,69,70
 1107 45 1107 45 1105 36.5 c 128,-1,71
 1103 28 1103 28 1098.5 20 c 128,-1,72
 1094 12 1094 12 1088 6 c 128,-1,73
 1082 0 1082 0 1073 0 c 2,74,-1
 328 0 l 2,75,76
 319 0 319 0 313 6 c 128,-1,77
 307 12 307 12 302.5 20 c 128,-1,78
 298 28 298 28 296 36.5 c 128,-1,79
 294 45 294 45 294 51 c 0,0,1
EndSplineSet
EndChar

StartChar: U
Encoding: 85 85 56
Width: 1706
GlyphClass: 2
Flags: W
LayerCount: 2
Fore
SplineSet
246 1234 m 2,0,1
 246 1266 246 1266 232.5 1284.5 c 128,-1,2
 219 1303 219 1303 198 1313 c 128,-1,3
 177 1323 177 1323 152 1326 c 128,-1,4
 127 1329 127 1329 104 1331 c 0,5,6
 83 1333 83 1333 75.5 1339 c 128,-1,7
 68 1345 68 1345 68 1368 c 0,8,9
 68 1374 68 1374 70 1382.5 c 128,-1,10
 72 1391 72 1391 76.5 1399 c 128,-1,11
 81 1407 81 1407 87 1413 c 128,-1,12
 93 1419 93 1419 102 1419 c 2,13,-1
 747 1419 l 2,14,15
 756 1419 756 1419 762 1413 c 128,-1,16
 768 1407 768 1407 772.5 1399 c 128,-1,17
 777 1391 777 1391 779 1382.5 c 128,-1,18
 781 1374 781 1374 781 1368 c 0,19,20
 781 1352 781 1352 774.5 1342.5 c 128,-1,21
 768 1333 768 1333 748 1331 c 0,22,23
 722 1329 722 1329 695 1325 c 128,-1,24
 668 1321 668 1321 645 1313.5 c 128,-1,25
 622 1306 622 1306 607.5 1294.5 c 128,-1,26
 593 1283 593 1283 593 1267 c 2,27,-1
 593 604 l 2,28,29
 593 466 593 466 609.5 364.5 c 128,-1,30
 626 263 626 263 663 196.5 c 128,-1,31
 700 130 700 130 760 97.5 c 128,-1,32
 820 65 820 65 908 65 c 0,33,34
 992 65 992 65 1057 84.5 c 128,-1,35
 1122 104 1122 104 1170 139.5 c 128,-1,36
 1218 175 1218 175 1251.5 224 c 128,-1,37
 1285 273 1285 273 1305 331.5 c 128,-1,38
 1325 390 1325 390 1334 456.5 c 128,-1,39
 1343 523 1343 523 1343 594 c 2,40,-1
 1343 1244 l 2,41,42
 1343 1269 1343 1269 1323.5 1285 c 128,-1,43
 1304 1301 1304 1301 1277 1310.5 c 128,-1,44
 1250 1320 1250 1320 1220 1324.5 c 128,-1,45
 1190 1329 1190 1329 1169 1331 c 256,46,47
 1148 1333 1148 1333 1140.5 1339 c 128,-1,48
 1133 1345 1133 1345 1133 1368 c 0,49,50
 1133 1374 1133 1374 1135 1382.5 c 128,-1,51
 1137 1391 1137 1391 1141.5 1399 c 128,-1,52
 1146 1407 1146 1407 1152 1413 c 128,-1,53
 1158 1419 1158 1419 1167 1419 c 2,54,-1
 1623 1419 l 2,55,56
 1632 1419 1632 1419 1638 1413 c 128,-1,57
 1644 1407 1644 1407 1648.5 1399 c 128,-1,58
 1653 1391 1653 1391 1655 1382.5 c 128,-1,59
 1657 1374 1657 1374 1657 1368 c 0,60,61
 1657 1352 1657 1352 1650.5 1342 c 128,-1,62
 1644 1332 1644 1332 1624 1331 c 0,63,64
 1546 1327 1546 1327 1499.5 1302.5 c 128,-1,65
 1453 1278 1453 1278 1453 1230 c 2,66,-1
 1453 596 l 2,67,68
 1453 439 1453 439 1413 322 c 128,-1,69
 1373 205 1373 205 1299.5 127 c 128,-1,70
 1226 49 1226 49 1122.5 10 c 128,-1,71
 1019 -29 1019 -29 891 -29 c 0,72,73
 709 -29 709 -29 585.5 14 c 128,-1,74
 462 57 462 57 386.5 137.5 c 128,-1,75
 311 218 311 218 278.5 334 c 128,-1,76
 246 450 246 450 246 596 c 2,77,-1
 246 1234 l 2,0,1
EndSplineSet
EndChar

StartChar: V
Encoding: 86 86 57
Width: 1561
GlyphClass: 2
Flags: W
LayerCount: 2
Fore
SplineSet
171 1254 m 1,0,1
 159 1287 159 1287 139 1302.5 c 128,-1,2
 119 1318 119 1318 96.5 1323.5 c 128,-1,3
 74 1329 74 1329 51 1329 c 128,-1,4
 28 1329 28 1329 10 1331 c 0,5,6
 -11 1333 -11 1333 -18.5 1339 c 128,-1,7
 -26 1345 -26 1345 -26 1368 c 0,8,9
 -26 1374 -26 1374 -24 1382.5 c 128,-1,10
 -22 1391 -22 1391 -17.5 1399 c 128,-1,11
 -13 1407 -13 1407 -6.5 1413 c 128,-1,12
 0 1419 0 1419 8 1419 c 2,13,-1
 663 1419 l 2,14,15
 672 1419 672 1419 678 1413 c 128,-1,16
 684 1407 684 1407 688.5 1399 c 128,-1,17
 693 1391 693 1391 695 1382.5 c 128,-1,18
 697 1374 697 1374 697 1368 c 0,19,20
 697 1352 697 1352 690.5 1342.5 c 128,-1,21
 684 1333 684 1333 664 1331 c 0,22,23
 630 1329 630 1329 601.5 1328.5 c 128,-1,24
 573 1328 573 1328 554.5 1324.5 c 128,-1,25
 536 1321 536 1321 528 1313 c 128,-1,26
 520 1305 520 1305 526 1287 c 1,27,-1
 904 383 l 1,28,-1
 1259 1257 l 1,29,30
 1265 1275 1265 1275 1254 1288 c 128,-1,31
 1243 1301 1243 1301 1220.5 1310 c 128,-1,32
 1198 1319 1198 1319 1166.5 1324 c 128,-1,33
 1135 1329 1135 1329 1101 1331 c 0,34,35
 1081 1333 1081 1333 1074.5 1342.5 c 128,-1,36
 1068 1352 1068 1352 1068 1368 c 0,37,38
 1068 1374 1068 1374 1070 1382.5 c 128,-1,39
 1072 1391 1072 1391 1076.5 1399 c 128,-1,40
 1081 1407 1081 1407 1087 1413 c 128,-1,41
 1093 1419 1093 1419 1102 1419 c 2,42,-1
 1557 1419 l 2,43,44
 1565 1419 1565 1419 1571.5 1413 c 128,-1,45
 1578 1407 1578 1407 1582.5 1399 c 128,-1,46
 1587 1391 1587 1391 1589 1382.5 c 128,-1,47
 1591 1374 1591 1374 1591 1368 c 0,48,49
 1591 1345 1591 1345 1583.5 1339 c 128,-1,50
 1576 1333 1576 1333 1555 1331 c 0,51,52
 1537 1329 1537 1329 1514 1329 c 128,-1,53
 1491 1329 1491 1329 1468.5 1323.5 c 128,-1,54
 1446 1318 1446 1318 1426 1302.5 c 128,-1,55
 1406 1287 1406 1287 1394 1254 c 1,56,-1
 859 -18 l 1,57,-1
 736 -18 l 1,58,-1
 171 1254 l 1,0,1
EndSplineSet
EndChar

StartChar: W
Encoding: 87 87 58
Width: 2306
GlyphClass: 2
Flags: W
LayerCount: 2
Fore
SplineSet
170 1254 m 2,0,1
 158 1287 158 1287 141 1302.5 c 128,-1,2
 124 1318 124 1318 105.5 1323.5 c 128,-1,3
 87 1329 87 1329 67 1329 c 128,-1,4
 47 1329 47 1329 29 1331 c 0,5,6
 8 1333 8 1333 0.5 1339 c 128,-1,7
 -7 1345 -7 1345 -7 1368 c 0,8,9
 -7 1374 -7 1374 -5 1382.5 c 128,-1,10
 -3 1391 -3 1391 1.5 1399 c 128,-1,11
 6 1407 6 1407 12.5 1413 c 128,-1,12
 19 1419 19 1419 27 1419 c 2,13,-1
 677 1419 l 2,14,15
 686 1419 686 1419 692 1413 c 128,-1,16
 698 1407 698 1407 702.5 1399 c 128,-1,17
 707 1391 707 1391 709 1382.5 c 128,-1,18
 711 1374 711 1374 711 1368 c 0,19,20
 711 1352 711 1352 704.5 1342.5 c 128,-1,21
 698 1333 698 1333 678 1331 c 0,22,23
 644 1329 644 1329 613 1328.5 c 128,-1,24
 582 1328 582 1328 559.5 1324.5 c 128,-1,25
 537 1321 537 1321 525.5 1313 c 128,-1,26
 514 1305 514 1305 520 1287 c 2,27,-1
 828 428 l 1,28,-1
 1147 1389 l 1,29,-1
 1351 1389 l 1,30,-1
 1704 428 l 1,31,-1
 2004 1287 l 2,32,33
 2010 1305 2010 1305 1993 1313 c 128,-1,34
 1976 1321 1976 1321 1946 1324.5 c 128,-1,35
 1916 1328 1916 1328 1879 1328.5 c 128,-1,36
 1842 1329 1842 1329 1809 1331 c 0,37,38
 1789 1333 1789 1333 1782.5 1342.5 c 128,-1,39
 1776 1352 1776 1352 1776 1368 c 0,40,41
 1776 1374 1776 1374 1778 1382.5 c 128,-1,42
 1780 1391 1780 1391 1784.5 1399 c 128,-1,43
 1789 1407 1789 1407 1795 1413 c 128,-1,44
 1801 1419 1801 1419 1810 1419 c 2,45,-1
 2295 1419 l 2,46,47
 2303 1419 2303 1419 2309.5 1413 c 128,-1,48
 2316 1407 2316 1407 2320.5 1399 c 128,-1,49
 2325 1391 2325 1391 2327 1382.5 c 128,-1,50
 2329 1374 2329 1374 2329 1368 c 0,51,52
 2329 1345 2329 1345 2321.5 1339 c 128,-1,53
 2314 1333 2314 1333 2293 1331 c 0,54,55
 2274 1329 2274 1329 2249 1329.5 c 128,-1,56
 2224 1330 2224 1330 2199.5 1324.5 c 128,-1,57
 2175 1319 2175 1319 2154 1303.5 c 128,-1,58
 2133 1288 2133 1288 2122 1254 c 1,59,-1
 1663 -18 l 1,60,-1
 1540 -18 l 1,61,-1
 1130 997 l 1,62,-1
 781 -18 l 1,63,-1
 658 -18 l 1,64,-1
 170 1254 l 2,0,1
EndSplineSet
EndChar

StartChar: X
Encoding: 88 88 59
Width: 1657
GlyphClass: 2
Flags: W
LayerCount: 2
Fore
SplineSet
47 51 m 0,0,1
 47 74 47 74 54.5 80 c 128,-1,2
 62 86 62 86 83 88 c 0,3,4
 101 90 101 90 124 93 c 128,-1,5
 147 96 147 96 171 103.5 c 128,-1,6
 195 111 195 111 219 125.5 c 128,-1,7
 243 140 243 140 264 165 c 2,8,-1
 683 660 l 1,9,-1
 254 1254 l 1,10,11
 235 1284 235 1284 212.5 1299 c 128,-1,12
 190 1314 190 1314 167.5 1320.5 c 128,-1,13
 145 1327 145 1327 123 1328 c 128,-1,14
 101 1329 101 1329 83 1331 c 0,15,16
 62 1333 62 1333 54.5 1339 c 128,-1,17
 47 1345 47 1345 47 1368 c 0,18,19
 47 1374 47 1374 49 1382.5 c 128,-1,20
 51 1391 51 1391 55.5 1399 c 128,-1,21
 60 1407 60 1407 66.5 1413 c 128,-1,22
 73 1419 73 1419 81 1419 c 2,23,-1
 776 1419 l 2,24,25
 785 1419 785 1419 791 1413 c 128,-1,26
 797 1407 797 1407 801.5 1399 c 128,-1,27
 806 1391 806 1391 808 1382.5 c 128,-1,28
 810 1374 810 1374 810 1368 c 0,29,30
 810 1352 810 1352 803.5 1342.5 c 128,-1,31
 797 1333 797 1333 777 1331 c 0,32,33
 743 1329 743 1329 712.5 1328 c 128,-1,34
 682 1327 682 1327 660 1323 c 128,-1,35
 638 1319 638 1319 629 1311 c 128,-1,36
 620 1303 620 1303 629 1287 c 1,37,-1
 908 871 l 1,38,-1
 1202 1257 l 2,39,40
 1213 1272 1213 1272 1208 1285 c 128,-1,41
 1203 1298 1203 1298 1186.5 1307.5 c 128,-1,42
 1170 1317 1170 1317 1143.5 1323 c 128,-1,43
 1117 1329 1117 1329 1084 1331 c 0,44,45
 1064 1333 1064 1333 1057.5 1342.5 c 128,-1,46
 1051 1352 1051 1352 1051 1368 c 0,47,48
 1051 1374 1051 1374 1053 1382.5 c 128,-1,49
 1055 1391 1055 1391 1059.5 1399 c 128,-1,50
 1064 1407 1064 1407 1070 1413 c 128,-1,51
 1076 1419 1076 1419 1085 1419 c 2,52,-1
 1540 1419 l 2,53,54
 1548 1419 1548 1419 1554.5 1413 c 128,-1,55
 1561 1407 1561 1407 1565.5 1399 c 128,-1,56
 1570 1391 1570 1391 1572 1382.5 c 128,-1,57
 1574 1374 1574 1374 1574 1368 c 0,58,59
 1574 1345 1574 1345 1566.5 1339 c 128,-1,60
 1559 1333 1559 1333 1538 1331 c 0,61,62
 1520 1329 1520 1329 1497.5 1327.5 c 128,-1,63
 1475 1326 1475 1326 1451 1319 c 128,-1,64
 1427 1312 1427 1312 1402.5 1297 c 128,-1,65
 1378 1282 1378 1282 1357 1254 c 1,66,-1
 968 785 l 1,67,-1
 1407 165 l 1,68,69
 1426 135 1426 135 1450 120 c 128,-1,70
 1474 105 1474 105 1498.5 98.5 c 128,-1,71
 1523 92 1523 92 1546.5 91 c 128,-1,72
 1570 90 1570 90 1588 88 c 0,73,74
 1609 86 1609 86 1616.5 80 c 128,-1,75
 1624 74 1624 74 1624 51 c 0,76,77
 1624 45 1624 45 1622 36.5 c 128,-1,78
 1620 28 1620 28 1615.5 20 c 128,-1,79
 1611 12 1611 12 1604.5 6 c 128,-1,80
 1598 0 1598 0 1590 0 c 2,81,-1
 885 0 l 2,82,83
 876 0 876 0 870 6 c 128,-1,84
 864 12 864 12 859.5 20 c 128,-1,85
 855 28 855 28 853 36.5 c 128,-1,86
 851 45 851 45 851 51 c 0,87,88
 851 67 851 67 857.5 76.5 c 128,-1,89
 864 86 864 86 884 88 c 0,90,91
 918 90 918 90 951 91 c 128,-1,92
 984 92 984 92 1007.5 96 c 128,-1,93
 1031 100 1031 100 1041.5 108 c 128,-1,94
 1052 116 1052 116 1042 132 c 2,95,-1
 741 578 l 1,96,-1
 421 162 l 1,97,98
 411 147 411 147 418.5 134 c 128,-1,99
 426 121 426 121 446 111.5 c 128,-1,100
 466 102 466 102 495.5 96 c 128,-1,101
 525 90 525 90 559 88 c 0,102,103
 579 86 579 86 585.5 76.5 c 128,-1,104
 592 67 592 67 592 51 c 0,105,106
 592 45 592 45 590 36.5 c 128,-1,107
 588 28 588 28 583.5 20 c 128,-1,108
 579 12 579 12 573 6 c 128,-1,109
 567 0 567 0 558 0 c 2,110,-1
 81 0 l 2,111,112
 73 0 73 0 66.5 6 c 128,-1,113
 60 12 60 12 55.5 20 c 128,-1,114
 51 28 51 28 49 36.5 c 128,-1,115
 47 45 47 45 47 51 c 0,0,1
EndSplineSet
EndChar

StartChar: Y
Encoding: 89 89 60
Width: 1499
GlyphClass: 2
Flags: W
LayerCount: 2
Fore
SplineSet
386 51 m 0,0,1
 386 67 386 67 398 76.5 c 128,-1,2
 410 86 410 86 429 88 c 0,3,4
 454 90 454 90 483 90 c 128,-1,5
 512 90 512 90 536.5 95 c 128,-1,6
 561 100 561 100 577.5 112.5 c 128,-1,7
 594 125 594 125 594 152 c 2,8,-1
 594 481 l 1,9,-1
 143 1254 l 2,10,11
 126 1285 126 1285 107 1302 c 128,-1,12
 88 1319 88 1319 68.5 1327 c 128,-1,13
 49 1335 49 1335 29.5 1337 c 128,-1,14
 10 1339 10 1339 -8 1341 c 0,15,16
 -29 1343 -29 1343 -36.5 1349 c 128,-1,17
 -44 1355 -44 1355 -44 1378 c 0,18,19
 -44 1389 -44 1389 -35.5 1404 c 128,-1,20
 -27 1419 -27 1419 -10 1419 c 2,21,-1
 695 1419 l 2,22,23
 712 1419 712 1419 720.5 1404 c 128,-1,24
 729 1389 729 1389 729 1378 c 0,25,26
 729 1362 729 1362 722.5 1352.5 c 128,-1,27
 716 1343 716 1343 696 1341 c 0,28,29
 662 1339 662 1339 631.5 1336.5 c 128,-1,30
 601 1334 601 1334 579 1329 c 128,-1,31
 557 1324 557 1324 548 1314 c 128,-1,32
 539 1304 539 1304 548 1287 c 2,33,-1
 868 688 l 1,34,-1
 1221 1287 l 2,35,36
 1230 1303 1230 1303 1221 1313 c 128,-1,37
 1212 1323 1212 1323 1190 1328.5 c 128,-1,38
 1168 1334 1168 1334 1137.5 1336.5 c 128,-1,39
 1107 1339 1107 1339 1073 1341 c 0,40,41
 1053 1343 1053 1343 1046.5 1352.5 c 128,-1,42
 1040 1362 1040 1362 1040 1378 c 0,43,44
 1040 1389 1040 1389 1048.5 1404 c 128,-1,45
 1057 1419 1057 1419 1074 1419 c 2,46,-1
 1489 1419 l 2,47,48
 1506 1419 1506 1419 1514.5 1404 c 128,-1,49
 1523 1389 1523 1389 1523 1378 c 0,50,51
 1523 1355 1523 1355 1515.5 1349 c 128,-1,52
 1508 1343 1508 1343 1487 1341 c 0,53,54
 1468 1339 1468 1339 1448 1337 c 128,-1,55
 1428 1335 1428 1335 1408.5 1326.5 c 128,-1,56
 1389 1318 1389 1318 1370.5 1301.5 c 128,-1,57
 1352 1285 1352 1285 1336 1254 c 1,58,-1
 931 589 l 1,59,-1
 931 165 l 2,60,61
 931 133 931 133 948.5 117.5 c 128,-1,62
 966 102 966 102 992 96 c 128,-1,63
 1018 90 1018 90 1048 90 c 128,-1,64
 1078 90 1078 90 1103 88 c 0,65,66
 1124 86 1124 86 1136.5 80 c 128,-1,67
 1149 74 1149 74 1149 51 c 0,68,69
 1149 45 1149 45 1147 36.5 c 128,-1,70
 1145 28 1145 28 1140.5 20 c 128,-1,71
 1136 12 1136 12 1129.5 6 c 128,-1,72
 1123 0 1123 0 1115 0 c 2,73,-1
 420 0 l 2,74,75
 411 0 411 0 405 6 c 128,-1,76
 399 12 399 12 394.5 20 c 128,-1,77
 390 28 390 28 388 36.5 c 128,-1,78
 386 45 386 45 386 51 c 0,0,1
EndSplineSet
EndChar

StartChar: Z
Encoding: 90 90 61
Width: 1411
GlyphClass: 2
Flags: W
LayerCount: 2
Fore
SplineSet
73 40 m 2,0,1
 73 45 73 45 74.5 51 c 128,-1,2
 76 57 76 57 80.5 66 c 128,-1,3
 85 75 85 75 93 89 c 128,-1,4
 101 103 101 103 115 123 c 1,5,-1
 888 1336 l 1,6,-1
 442 1336 l 2,7,8
 420 1336 420 1336 396.5 1316 c 128,-1,9
 373 1296 373 1296 350.5 1265 c 128,-1,10
 328 1234 328 1234 307.5 1196 c 128,-1,11
 287 1158 287 1158 271.5 1123 c 128,-1,12
 256 1088 256 1088 246 1059.5 c 128,-1,13
 236 1031 236 1031 235 1019 c 0,14,15
 233 999 233 999 223.5 992.5 c 128,-1,16
 214 986 214 986 198 986 c 0,17,18
 192 986 192 986 182 988 c 128,-1,19
 172 990 172 990 162 994.5 c 128,-1,20
 152 999 152 999 144.5 1005 c 128,-1,21
 137 1011 137 1011 137 1020 c 2,22,-1
 166 1378 l 1,23,24
 184 1418 184 1418 213 1419 c 1,25,-1
 1285 1419 l 2,26,27
 1296 1419 1296 1419 1302.5 1414 c 128,-1,28
 1309 1409 1309 1409 1309 1395 c 2,29,-1
 1309 1368 l 2,30,31
 1309 1360 1309 1360 1306.5 1354 c 128,-1,32
 1304 1348 1304 1348 1299 1340 c 2,33,-1
 493 83 l 1,34,-1
 973 83 l 2,35,36
 995 83 995 83 1022.5 105.5 c 128,-1,37
 1050 128 1050 128 1078.5 162.5 c 128,-1,38
 1107 197 1107 197 1134 238.5 c 128,-1,39
 1161 280 1161 280 1182 318.5 c 128,-1,40
 1203 357 1203 357 1216.5 387.5 c 128,-1,41
 1230 418 1230 418 1231 430 c 0,42,43
 1233 450 1233 450 1242.5 456.5 c 128,-1,44
 1252 463 1252 463 1268 463 c 0,45,46
 1274 463 1274 463 1285.5 461 c 128,-1,47
 1297 459 1297 459 1309 454.5 c 128,-1,48
 1321 450 1321 450 1330 444 c 128,-1,49
 1339 438 1339 438 1339 429 c 1,50,-1
 1289 41 l 1,51,52
 1271 1 1271 1 1242 0 c 1,53,-1
 97 0 l 2,54,55
 85 0 85 0 79 5 c 128,-1,56
 73 10 73 10 73 24 c 2,57,-1
 73 40 l 2,0,1
EndSplineSet
EndChar

StartChar: bracketleft
Encoding: 91 91 62
Width: 915
GlyphClass: 2
Flags: W
LayerCount: 2
Fore
SplineSet
186 1535 m 1,0,-1
 753 1536 l 1,1,-1
 753 1419 l 1,2,-1
 504 1419 l 1,3,-1
 504 -211 l 1,4,-1
 753 -211 l 1,5,-1
 753 -328 l 1,6,-1
 186 -327 l 1,7,-1
 186 1535 l 1,0,-1
EndSplineSet
EndChar

StartChar: asciicircum
Encoding: 94 94 65
Width: 1440
GlyphClass: 2
Flags: W
LayerCount: 2
Fore
SplineSet
659 1428 m 1,0,-1
 778 1428 l 1,1,-1
 1255 299 l 1,2,-1
 1049 299 l 1,3,-1
 718 1130 l 1,4,-1
 388 299 l 1,5,-1
 184 299 l 1,6,-1
 659 1428 l 1,0,-1
EndSplineSet
EndChar

StartChar: underscore
Encoding: 95 95 66
Width: 1440
GlyphClass: 2
Flags: W
LayerCount: 2
Fore
SplineSet
1465 -190 m 1,0,-1
 1465 -296 l 1,1,-1
 -25 -296 l 1,2,-1
 -25 -190 l 1,3,-1
 1465 -190 l 1,0,-1
EndSplineSet
EndChar

StartChar: grave
Encoding: 96 96 67
Width: 1024
GlyphClass: 2
Flags: W
LayerCount: 2
Fore
SplineSet
653 1101 m 1,0,1
 576 1158 576 1158 509.5 1202 c 128,-1,2
 443 1246 443 1246 391 1278 c 128,-1,3
 339 1310 339 1310 304.5 1331 c 128,-1,4
 270 1352 270 1352 258 1363 c 0,5,6
 244 1376 244 1376 235 1396.5 c 128,-1,7
 226 1417 226 1417 224.5 1441 c 128,-1,8
 223 1465 223 1465 230.5 1489.5 c 128,-1,9
 238 1514 238 1514 257 1534 c 256,10,11
 276 1554 276 1554 301 1561 c 128,-1,12
 326 1568 326 1568 351 1566 c 128,-1,13
 376 1564 376 1564 398.5 1554 c 128,-1,14
 421 1544 421 1544 435 1531 c 0,15,16
 447 1520 447 1520 469.5 1487 c 128,-1,17
 492 1454 492 1454 526 1404.5 c 128,-1,18
 560 1355 560 1355 605.5 1292.5 c 128,-1,19
 651 1230 651 1230 709 1159 c 1,20,-1
 653 1101 l 1,21,-1
 653 1101 l 1,0,1
EndSplineSet
EndChar

StartChar: a
Encoding: 97 97 68
Width: 1221
GlyphClass: 2
Flags: W
LayerCount: 2
Fore
SplineSet
81 235 m 0,0,1
 80 303 80 303 107 354.5 c 128,-1,2
 134 406 134 406 181.5 444 c 128,-1,3
 229 482 229 482 292.5 508 c 128,-1,4
 356 534 356 534 426.5 552 c 128,-1,5
 497 570 497 570 570.5 580.5 c 128,-1,6
 644 591 644 591 712 598 c 1,7,8
 712 657 712 657 712.5 700.5 c 128,-1,9
 713 744 713 744 713 763 c 0,10,11
 713 811 713 811 702 841 c 128,-1,12
 691 871 691 871 671.5 888.5 c 128,-1,13
 652 906 652 906 624 912.5 c 128,-1,14
 596 919 596 919 563 919 c 0,15,16
 531 919 531 919 509 916 c 128,-1,17
 487 913 487 913 473 909 c 0,18,19
 456 905 456 905 446 900 c 1,20,21
 439 889 439 889 426 862 c 128,-1,22
 413 835 413 835 398.5 804.5 c 128,-1,23
 384 774 384 774 369.5 745.5 c 128,-1,24
 355 717 355 717 346 702 c 0,25,26
 339 691 339 691 332.5 681 c 128,-1,27
 326 671 326 671 317 663 c 128,-1,28
 308 655 308 655 296 650 c 128,-1,29
 284 645 284 645 268 645 c 0,30,31
 242 645 242 645 217.5 655.5 c 128,-1,32
 193 666 193 666 173.5 684 c 128,-1,33
 154 702 154 702 142.5 727 c 128,-1,34
 131 752 131 752 131 781 c 0,35,36
 131 831 131 831 155.5 867.5 c 128,-1,37
 180 904 180 904 220 930 c 128,-1,38
 260 956 260 956 311.5 972.5 c 128,-1,39
 363 989 363 989 415.5 998 c 128,-1,40
 468 1007 468 1007 518 1010.5 c 128,-1,41
 568 1014 568 1014 606 1014 c 0,42,43
 720 1014 720 1014 802.5 993 c 128,-1,44
 885 972 885 972 937.5 934.5 c 128,-1,45
 990 897 990 897 1015 846.5 c 128,-1,46
 1040 796 1040 796 1040 736 c 2,47,-1
 1040 223 l 2,48,49
 1040 170 1040 170 1050.5 135.5 c 128,-1,50
 1061 101 1061 101 1078 101 c 0,51,52
 1092 101 1092 101 1105 102.5 c 128,-1,53
 1118 104 1118 104 1136 109 c 0,54,55
 1148 112 1148 112 1157 103 c 128,-1,56
 1166 94 1166 94 1171 81 c 128,-1,57
 1176 68 1176 68 1176 55 c 128,-1,58
 1176 42 1176 42 1170 37 c 0,59,60
 1162 31 1162 31 1139 21 c 128,-1,61
 1116 11 1116 11 1079.5 0.5 c 128,-1,62
 1043 -10 1043 -10 993.5 -17.5 c 128,-1,63
 944 -25 944 -25 883 -25 c 0,64,65
 841 -25 841 -25 813.5 -16.5 c 128,-1,66
 786 -8 786 -8 769 5 c 128,-1,67
 752 18 752 18 744 34 c 128,-1,68
 736 50 736 50 733 64.5 c 128,-1,69
 730 79 730 79 730.5 91 c 128,-1,70
 731 103 731 103 731 109 c 2,71,-1
 731 112 l 1,72,73
 665 43 665 43 575 9.5 c 128,-1,74
 485 -24 485 -24 379 -24 c 0,75,76
 334 -24 334 -24 282.5 -10 c 128,-1,77
 231 4 231 4 186.5 35 c 128,-1,78
 142 66 142 66 112 115.5 c 128,-1,79
 82 165 82 165 81 235 c 0,0,1
420 252 m 0,80,81
 420 227 420 227 428 203 c 128,-1,82
 436 179 436 179 452.5 160.5 c 128,-1,83
 469 142 469 142 493.5 131 c 128,-1,84
 518 120 518 120 551 120 c 0,85,86
 583 120 583 120 608.5 127.5 c 128,-1,87
 634 135 634 135 653.5 146 c 128,-1,88
 673 157 673 157 687.5 170.5 c 128,-1,89
 702 184 702 184 712 196 c 1,90,-1
 712 518 l 1,91,92
 661 510 661 510 609 497 c 128,-1,93
 557 484 557 484 515 455.5 c 128,-1,94
 473 427 473 427 446.5 378.5 c 128,-1,95
 420 330 420 330 420 252 c 0,80,81
EndSplineSet
Substitution2: "Single Substitution lookup 12 subtable" ordfeminine
Substitution2: "'aalt' Access All Alternates in Latin lookup 0 subtable" ordfeminine
EndChar

StartChar: b
Encoding: 98 98 69
Width: 1323
GlyphClass: 2
Flags: W
LayerCount: 2
Fore
SplineSet
160 1329 m 2,0,1
 160 1375 160 1375 144 1398.5 c 128,-1,2
 128 1422 128 1422 104.5 1432.5 c 128,-1,3
 81 1443 81 1443 55.5 1446 c 128,-1,4
 30 1449 30 1449 11 1454 c 1,5,6
 0 1459 0 1459 -6.5 1467 c 128,-1,7
 -13 1475 -13 1475 -13 1494 c 0,8,9
 -13 1506 -13 1506 -7 1521.5 c 128,-1,10
 -1 1537 -1 1537 11 1538 c 0,11,12
 80 1541 80 1541 145.5 1543 c 128,-1,13
 211 1545 211 1545 268 1546 c 128,-1,14
 325 1547 325 1547 370.5 1547.5 c 128,-1,15
 416 1548 416 1548 446 1548 c 0,16,17
 454 1548 454 1548 464 1540 c 128,-1,18
 474 1532 474 1532 476 1508 c 1,19,20
 479 1505 479 1505 476 1500 c 1,21,-1
 476 1015 l 1,22,-1
 466 877 l 1,23,24
 491 912 491 912 529.5 937.5 c 128,-1,25
 568 963 568 963 612 980 c 128,-1,26
 656 997 656 997 703 1005.5 c 128,-1,27
 750 1014 750 1014 794 1014 c 0,28,29
 917 1014 917 1014 1002.5 970.5 c 128,-1,30
 1088 927 1088 927 1141.5 854.5 c 128,-1,31
 1195 782 1195 782 1218.5 688 c 128,-1,32
 1242 594 1242 594 1242 493 c 256,33,34
 1242 392 1242 392 1210.5 298 c 128,-1,35
 1179 204 1179 204 1116 131 c 128,-1,36
 1053 58 1053 58 957 14.5 c 128,-1,37
 861 -29 861 -29 732 -29 c 0,38,39
 686 -29 686 -29 638.5 -25.5 c 128,-1,40
 591 -22 591 -22 544 -12 c 128,-1,41
 497 -2 497 -2 450.5 15.5 c 128,-1,42
 404 33 404 33 361 61 c 1,43,44
 333 44 333 44 306 26.5 c 128,-1,45
 279 9 279 9 259 -8 c 0,46,47
 237 -27 237 -27 223.5 -29.5 c 128,-1,48
 210 -32 210 -32 195 -32 c 0,49,50
 174 -32 174 -32 167 -14.5 c 128,-1,51
 160 3 160 3 160 25 c 2,52,-1
 160 1329 l 2,0,1
476 164 m 1,53,54
 482 153 482 153 499 138 c 128,-1,55
 516 123 516 123 538.5 109 c 128,-1,56
 561 95 561 95 586 85.5 c 128,-1,57
 611 76 611 76 635 76 c 0,58,59
 712 76 712 76 764 107.5 c 128,-1,60
 816 139 816 139 847.5 195 c 128,-1,61
 879 251 879 251 892 327.5 c 128,-1,62
 905 404 905 404 905 493 c 0,63,64
 905 571 905 571 892 639.5 c 128,-1,65
 879 708 879 708 849 759 c 128,-1,66
 819 810 819 810 770.5 839.5 c 128,-1,67
 722 869 722 869 651 869 c 0,68,69
 628 869 628 869 602.5 863 c 128,-1,70
 577 857 577 857 553 845.5 c 128,-1,71
 529 834 529 834 509 816.5 c 128,-1,72
 489 799 489 799 476 776 c 1,73,-1
 476 164 l 1,53,54
EndSplineSet
EndChar

StartChar: c
Encoding: 99 99 70
Width: 1087
GlyphClass: 2
Flags: W
LayerCount: 2
Fore
SplineSet
62 500 m 0,0,1
 62 625 62 625 109.5 721 c 128,-1,2
 157 817 157 817 238 882 c 128,-1,3
 319 947 319 947 426.5 980.5 c 128,-1,4
 534 1014 534 1014 654 1014 c 0,5,6
 731 1014 731 1014 791.5 1004 c 128,-1,7
 852 994 852 994 897.5 971.5 c 128,-1,8
 943 949 943 949 973.5 912.5 c 128,-1,9
 1004 876 1004 876 1022 824 c 0,10,11
 1041 766 1041 766 1032.5 726 c 128,-1,12
 1024 686 1024 686 1001.5 661 c 128,-1,13
 979 636 979 636 950 624.5 c 128,-1,14
 921 613 921 613 900 613 c 0,15,16
 865 613 865 613 845 618.5 c 128,-1,17
 825 624 825 624 817 642 c 2,18,-1
 686 912 l 1,19,20
 687 916 687 916 680 920 c 0,21,22
 674 923 674 923 659.5 926 c 128,-1,23
 645 929 645 929 616 929 c 0,24,25
 574 929 574 929 536.5 906 c 128,-1,26
 499 883 499 883 470 831.5 c 128,-1,27
 441 780 441 780 424 696 c 128,-1,28
 407 612 407 612 407 490 c 0,29,30
 407 383 407 383 433.5 309.5 c 128,-1,31
 460 236 460 236 500.5 190.5 c 128,-1,32
 541 145 541 145 589 125 c 128,-1,33
 637 105 637 105 681 105 c 0,34,35
 775 105 775 105 841 131 c 128,-1,36
 907 157 907 157 955 208 c 0,37,38
 960 213 960 213 965.5 219 c 128,-1,39
 971 225 971 225 981 223 c 1,40,-1
 1025 202 l 2,41,42
 1035 197 1035 197 1035 190.5 c 128,-1,43
 1035 184 1035 184 1029 173 c 0,44,45
 1004 128 1004 128 960.5 90.5 c 128,-1,46
 917 53 917 53 865.5 26.5 c 128,-1,47
 814 0 814 0 759 -14.5 c 128,-1,48
 704 -29 704 -29 655 -29 c 0,49,50
 498 -29 498 -29 385.5 8 c 128,-1,51
 273 45 273 45 201 114 c 128,-1,52
 129 183 129 183 95.5 280.5 c 128,-1,53
 62 378 62 378 62 500 c 0,0,1
EndSplineSet
EndChar

StartChar: d
Encoding: 100 100 71
Width: 1358
GlyphClass: 2
Flags: W
LayerCount: 2
Fore
SplineSet
82 492 m 256,0,1
 82 593 82 593 113.5 687 c 128,-1,2
 145 781 145 781 208 854 c 128,-1,3
 271 927 271 927 367 970.5 c 128,-1,4
 463 1014 463 1014 592 1014 c 0,5,6
 657 1014 657 1014 724.5 1006 c 128,-1,7
 792 998 792 998 858 975 c 1,8,-1
 848 1205 l 1,9,-1
 848 1329 l 2,10,11
 848 1375 848 1375 825 1398.5 c 128,-1,12
 802 1422 802 1422 770 1432.5 c 128,-1,13
 738 1443 738 1443 704 1446 c 128,-1,14
 670 1449 670 1449 649 1454 c 1,15,16
 638 1459 638 1459 631.5 1467 c 128,-1,17
 625 1475 625 1475 625 1494 c 0,18,19
 625 1506 625 1506 631.5 1521.5 c 128,-1,20
 638 1537 638 1537 649 1538 c 0,21,22
 719 1541 719 1541 792.5 1543 c 128,-1,23
 866 1545 866 1545 932 1546 c 128,-1,24
 998 1547 998 1547 1051 1547.5 c 128,-1,25
 1104 1548 1104 1548 1134 1548 c 0,26,27
 1142 1548 1142 1548 1152 1540 c 128,-1,28
 1162 1532 1162 1532 1164 1508 c 1,29,-1
 1164 175 l 2,30,31
 1164 143 1164 143 1174.5 124.5 c 128,-1,32
 1185 106 1185 106 1201.5 96 c 128,-1,33
 1218 86 1218 86 1238 83 c 128,-1,34
 1258 80 1258 80 1276 78 c 0,35,36
 1297 76 1297 76 1304.5 70 c 128,-1,37
 1312 64 1312 64 1312 41 c 0,38,39
 1312 30 1312 30 1303.5 15 c 128,-1,40
 1295 0 1295 0 1278 0 c 2,41,-1
 934 0 l 2,42,43
 904 0 904 0 888 7 c 128,-1,44
 872 14 872 14 865.5 27.5 c 128,-1,45
 859 41 859 41 858.5 61 c 128,-1,46
 858 81 858 81 858 108 c 1,47,48
 832 73 832 73 794 47.5 c 128,-1,49
 756 22 756 22 711.5 5 c 128,-1,50
 667 -12 667 -12 620 -20.5 c 128,-1,51
 573 -29 573 -29 530 -29 c 0,52,53
 407 -29 407 -29 321.5 14.5 c 128,-1,54
 236 58 236 58 182.5 130.5 c 128,-1,55
 129 203 129 203 105.5 297 c 128,-1,56
 82 391 82 391 82 492 c 256,0,1
419 492 m 0,57,58
 419 414 419 414 432 345.5 c 128,-1,59
 445 277 445 277 475 226 c 128,-1,60
 505 175 505 175 553.5 145.5 c 128,-1,61
 602 116 602 116 673 116 c 0,62,63
 696 116 696 116 721 122 c 128,-1,64
 746 128 746 128 770 139.5 c 128,-1,65
 794 151 794 151 814.5 168.5 c 128,-1,66
 835 186 835 186 848 209 c 1,67,-1
 848 801 l 1,68,69
 842 819 842 819 825 838.5 c 128,-1,70
 808 858 808 858 785.5 873.5 c 128,-1,71
 763 889 763 889 738 899 c 128,-1,72
 713 909 713 909 689 909 c 0,73,74
 612 909 612 909 560 877.5 c 128,-1,75
 508 846 508 846 476.5 790 c 128,-1,76
 445 734 445 734 432 657.5 c 128,-1,77
 419 581 419 581 419 492 c 0,57,58
EndSplineSet
EndChar

StartChar: e
Encoding: 101 101 72
Width: 1171
GlyphClass: 2
Flags: W
LayerCount: 2
Fore
SplineSet
72 502 m 256,0,1
 72 627 72 627 117.5 723 c 128,-1,2
 163 819 163 819 239.5 883.5 c 128,-1,3
 316 948 316 948 417 981 c 128,-1,4
 518 1014 518 1014 629 1014 c 0,5,6
 745 1014 745 1014 827.5 990.5 c 128,-1,7
 910 967 910 967 965.5 923 c 128,-1,8
 1021 879 1021 879 1052 816 c 128,-1,9
 1083 753 1083 753 1097 674 c 0,10,11
 1103 638 1103 638 1104.5 594.5 c 128,-1,12
 1106 551 1106 551 1106 509 c 1,13,-1
 417 509 l 1,14,-1
 417 508 l 2,15,16
 417 392 417 392 445 315 c 128,-1,17
 473 238 473 238 516.5 191 c 128,-1,18
 560 144 560 144 614 124.5 c 128,-1,19
 668 105 668 105 721 105 c 0,20,21
 812 105 812 105 875 127.5 c 128,-1,22
 938 150 938 150 985 208 c 0,23,24
 990 213 990 213 995.5 219 c 128,-1,25
 1001 225 1001 225 1011 223 c 1,26,-1
 1055 202 l 2,27,28
 1065 197 1065 197 1065 190.5 c 128,-1,29
 1065 184 1065 184 1059 173 c 0,30,31
 1010 82 1010 82 906.5 26.5 c 128,-1,32
 803 -29 803 -29 645 -29 c 0,33,34
 496 -29 496 -29 388 7 c 128,-1,35
 280 43 280 43 210 111 c 128,-1,36
 140 179 140 179 106 278 c 128,-1,37
 72 377 72 377 72 502 c 256,0,1
773 601 m 1,38,39
 773 775 773 775 737.5 852 c 128,-1,40
 702 929 702 929 626 929 c 0,41,42
 589 929 589 929 554.5 911 c 128,-1,43
 520 893 520 893 492.5 854 c 128,-1,44
 465 815 465 815 446 752.5 c 128,-1,45
 427 690 427 690 420 601 c 1,46,-1
 773 601 l 1,38,39
EndSplineSet
EndChar

StartChar: f
Encoding: 102 102 73
Width: 805
GlyphClass: 2
Flags: W
LayerCount: 2
Fore
SplineSet
59 41 m 0,0,1
 59 57 59 57 65.5 66.5 c 128,-1,2
 72 76 72 76 92 78 c 0,3,4
 110 80 110 80 130.5 84 c 128,-1,5
 151 88 151 88 168.5 95.5 c 128,-1,6
 186 103 186 103 197 114 c 128,-1,7
 208 125 208 125 208 142 c 2,8,-1
 208 885 l 1,9,-1
 54 885 l 1,10,11
 42 886 42 886 36 901.5 c 128,-1,12
 30 917 30 917 30 929 c 0,13,14
 30 948 30 948 37 959 c 128,-1,15
 44 970 44 970 55 975 c 1,16,-1
 208 992 l 1,17,-1
 208 1065 l 2,18,19
 208 1161 208 1161 232.5 1250.5 c 128,-1,20
 257 1340 257 1340 308.5 1409.5 c 128,-1,21
 360 1479 360 1479 439.5 1521 c 128,-1,22
 519 1563 519 1563 629 1563 c 0,23,24
 698 1563 698 1563 746 1552.5 c 128,-1,25
 794 1542 794 1542 825.5 1524 c 128,-1,26
 857 1506 857 1506 872.5 1481 c 128,-1,27
 888 1456 888 1456 891 1427 c 0,28,29
 894 1397 894 1397 885.5 1369.5 c 128,-1,30
 877 1342 877 1342 860 1321 c 128,-1,31
 843 1300 843 1300 820 1287.5 c 128,-1,32
 797 1275 797 1275 773 1275 c 0,33,34
 770 1275 770 1275 767 1276 c 1,35,36
 762 1276 762 1276 762 1278 c 1,37,-1
 549 1442 l 1,38,39
 544 1429 544 1429 539.5 1405.5 c 128,-1,40
 535 1382 535 1382 531.5 1341.5 c 128,-1,41
 528 1301 528 1301 526 1241.5 c 128,-1,42
 524 1182 524 1182 524 1097 c 2,43,-1
 524 992 l 1,44,-1
 756 992 l 1,45,46
 768 991 768 991 774 980.5 c 128,-1,47
 780 970 780 970 780 958 c 0,48,49
 780 949 780 949 778 937 c 128,-1,50
 776 925 776 925 773 914.5 c 128,-1,51
 770 904 770 904 765.5 895.5 c 128,-1,52
 761 887 761 887 756 885 c 1,53,-1
 524 885 l 1,54,-1
 524 175 l 2,55,56
 524 143 524 143 540 124.5 c 128,-1,57
 556 106 556 106 580.5 96 c 128,-1,58
 605 86 605 86 633.5 83 c 128,-1,59
 662 80 662 80 686 78 c 0,60,61
 707 76 707 76 714.5 70 c 128,-1,62
 722 64 722 64 722 41 c 0,63,64
 722 30 722 30 713.5 15 c 128,-1,65
 705 0 705 0 688 0 c 2,66,-1
 93 0 l 2,67,68
 76 0 76 0 67.5 15 c 128,-1,69
 59 30 59 30 59 41 c 0,0,1
EndSplineSet
EndChar

StartChar: g
Encoding: 103 103 74
Width: 1182
GlyphClass: 2
Flags: W
LayerCount: 2
Fore
SplineSet
43 -174 m 0,0,1
 43 -134 43 -134 58 -101 c 128,-1,2
 73 -68 73 -68 96.5 -41.5 c 128,-1,3
 120 -15 120 -15 147.5 5 c 128,-1,4
 175 25 175 25 201 39 c 1,5,6
 97 96 97 96 97 223 c 0,7,8
 97 265 97 265 115 297.5 c 128,-1,9
 133 330 133 330 160 354 c 128,-1,10
 187 378 187 378 217.5 393 c 128,-1,11
 248 408 248 408 273 416 c 1,12,13
 173 460 173 460 127 533 c 128,-1,14
 81 606 81 606 81 694 c 0,15,16
 81 761 81 761 107.5 819 c 128,-1,17
 134 877 134 877 190.5 920.5 c 128,-1,18
 247 964 247 964 334.5 989 c 128,-1,19
 422 1014 422 1014 544 1014 c 0,20,21
 663 1014 663 1014 745.5 990.5 c 128,-1,22
 828 967 828 967 882 926 c 1,23,24
 914 965 914 965 960 989.5 c 128,-1,25
 1006 1014 1006 1014 1066 1014 c 0,26,27
 1133 1014 1133 1014 1172.5 974.5 c 128,-1,28
 1212 935 1212 935 1212 864 c 0,29,30
 1212 809 1212 809 1190 778.5 c 128,-1,31
 1168 748 1168 748 1136 748 c 0,32,33
 1122 748 1122 748 1113 750.5 c 128,-1,34
 1104 753 1104 753 1097 759 c 128,-1,35
 1090 765 1090 765 1084.5 774.5 c 128,-1,36
 1079 784 1079 784 1072 798 c 0,37,38
 1057 827 1057 827 1042.5 855.5 c 128,-1,39
 1028 884 1028 884 1018 905 c 1,40,41
 997 903 997 903 976 893.5 c 128,-1,42
 955 884 955 884 937 870 c 1,43,44
 965 832 965 832 977.5 787.5 c 128,-1,45
 990 743 990 743 990 694 c 0,46,47
 990 628 990 628 966 568.5 c 128,-1,48
 942 509 942 509 889 465 c 128,-1,49
 836 421 836 421 751 395 c 128,-1,50
 666 369 666 369 544 369 c 0,51,52
 441 369 441 369 363 387 c 1,53,54
 339 367 339 367 323.5 338 c 128,-1,55
 308 309 308 309 308 280 c 0,56,57
 308 260 308 260 320.5 248.5 c 128,-1,58
 333 237 333 237 355.5 231.5 c 128,-1,59
 378 226 378 226 408.5 225 c 128,-1,60
 439 224 439 224 476 224 c 2,61,-1
 767 224 l 2,62,63
 846 224 846 224 915.5 208.5 c 128,-1,64
 985 193 985 193 1036.5 155.5 c 128,-1,65
 1088 118 1088 118 1117.5 56.5 c 128,-1,66
 1147 -5 1147 -5 1146 -98 c 0,67,68
 1146 -161 1146 -161 1108.5 -223.5 c 128,-1,69
 1071 -286 1071 -286 996.5 -336 c 128,-1,70
 922 -386 922 -386 811.5 -417 c 128,-1,71
 701 -448 701 -448 554 -448 c 0,72,73
 422 -448 422 -448 326 -429 c 128,-1,74
 230 -410 230 -410 167 -375 c 128,-1,75
 104 -340 104 -340 73.5 -289 c 128,-1,76
 43 -238 43 -238 43 -174 c 0,0,1
544 454 m 0,77,78
 588 454 588 454 619.5 474.5 c 128,-1,79
 651 495 651 495 671 529 c 128,-1,80
 691 563 691 563 700.5 607 c 128,-1,81
 710 651 710 651 710 698 c 256,82,83
 710 745 710 745 700.5 787 c 128,-1,84
 691 829 691 829 671 860.5 c 128,-1,85
 651 892 651 892 619.5 910 c 128,-1,86
 588 928 588 928 544 928 c 256,87,88
 500 928 500 928 470 908.5 c 128,-1,89
 440 889 440 889 422 856 c 128,-1,90
 404 823 404 823 396.5 780 c 128,-1,91
 389 737 389 737 389 690 c 256,92,93
 389 643 389 643 396.5 600.5 c 128,-1,94
 404 558 404 558 422 525.5 c 128,-1,95
 440 493 440 493 469.5 473.5 c 128,-1,96
 499 454 499 454 544 454 c 0,77,78
353 1 m 1,97,98
 344 -24 344 -24 334.5 -62.5 c 128,-1,99
 325 -101 325 -101 325 -155 c 0,100,101
 325 -216 325 -216 344 -254.5 c 128,-1,102
 363 -293 363 -293 395 -314.5 c 128,-1,103
 427 -336 427 -336 470.5 -344 c 128,-1,104
 514 -352 514 -352 564 -352 c 0,105,106
 611 -352 611 -352 662.5 -343 c 128,-1,107
 714 -334 714 -334 756.5 -310.5 c 128,-1,108
 799 -287 799 -287 827 -245.5 c 128,-1,109
 855 -204 855 -204 855 -139 c 0,110,111
 855 -99 855 -99 840.5 -72.5 c 128,-1,112
 826 -46 826 -46 798 -29.5 c 128,-1,113
 770 -13 770 -13 729.5 -6 c 128,-1,114
 689 1 689 1 638 1 c 2,115,-1
 361 1 l 1,116,-1
 353 1 l 1,97,98
EndSplineSet
EndChar

StartChar: h
Encoding: 104 104 75
Width: 1393
GlyphClass: 2
Flags: W
LayerCount: 2
Fore
SplineSet
38 41 m 0,0,1
 38 57 38 57 44.5 66.5 c 128,-1,2
 51 76 51 76 71 78 c 0,3,4
 89 80 89 80 109.5 84 c 128,-1,5
 130 88 130 88 147.5 95.5 c 128,-1,6
 165 103 165 103 176 114 c 128,-1,7
 187 125 187 125 187 142 c 2,8,-1
 187 1329 l 2,9,10
 187 1375 187 1375 171.5 1398 c 128,-1,11
 156 1421 156 1421 133 1430.5 c 128,-1,12
 110 1440 110 1440 84 1442.5 c 128,-1,13
 58 1445 58 1445 38 1450 c 1,14,15
 27 1455 27 1455 20.5 1463 c 128,-1,16
 14 1471 14 1471 14 1490 c 0,17,18
 14 1502 14 1502 20 1517.5 c 128,-1,19
 26 1533 26 1533 38 1534 c 0,20,21
 109 1537 109 1537 174.5 1539.5 c 128,-1,22
 240 1542 240 1542 296.5 1543.5 c 128,-1,23
 353 1545 353 1545 398 1546.5 c 128,-1,24
 443 1548 443 1548 473 1548 c 0,25,26
 481 1548 481 1548 491 1540 c 128,-1,27
 501 1532 501 1532 503 1508 c 1,28,-1
 503 992 l 1,29,-1
 493 845 l 1,30,31
 508 862 508 862 549.5 890.5 c 128,-1,32
 591 919 591 919 649 946.5 c 128,-1,33
 707 974 707 974 777 994 c 128,-1,34
 847 1014 847 1014 919 1014 c 0,35,36
 975 1014 975 1014 1027.5 1004.5 c 128,-1,37
 1080 995 1080 995 1120.5 968 c 128,-1,38
 1161 941 1161 941 1185.5 892.5 c 128,-1,39
 1210 844 1210 844 1210 766 c 2,40,-1
 1210 175 l 2,41,42
 1210 139 1210 139 1224.5 120.5 c 128,-1,43
 1239 102 1239 102 1260 93.5 c 128,-1,44
 1281 85 1281 85 1304.5 83 c 128,-1,45
 1328 81 1328 81 1347 78 c 0,46,47
 1364 76 1364 76 1372 69.5 c 128,-1,48
 1380 63 1380 63 1380 41 c 0,49,50
 1380 30 1380 30 1371.5 15 c 128,-1,51
 1363 0 1363 0 1346 0 c 2,52,-1
 799 0 l 2,53,54
 782 0 782 0 773.5 15 c 128,-1,55
 765 30 765 30 765 41 c 0,56,57
 765 57 765 57 770.5 66.5 c 128,-1,58
 776 76 776 76 796 78 c 0,59,60
 812 79 812 79 830.5 84 c 128,-1,61
 849 89 849 89 865 97 c 128,-1,62
 881 105 881 105 891.5 116.5 c 128,-1,63
 902 128 902 128 902 142 c 2,64,-1
 902 751 l 2,65,66
 902 764 902 764 900 781 c 128,-1,67
 898 798 898 798 887 814 c 128,-1,68
 876 830 876 830 852 841 c 128,-1,69
 828 852 828 852 783 852 c 0,70,71
 742 852 742 852 700 839.5 c 128,-1,72
 658 827 658 827 620 808.5 c 128,-1,73
 582 790 582 790 551.5 768 c 128,-1,74
 521 746 521 746 503 727 c 1,75,-1
 503 175 l 2,76,77
 503 143 503 143 513.5 124.5 c 128,-1,78
 524 106 524 106 540.5 96 c 128,-1,79
 557 86 557 86 577 83 c 128,-1,80
 597 80 597 80 615 78 c 0,81,82
 636 76 636 76 643.5 70 c 128,-1,83
 651 64 651 64 651 41 c 0,84,85
 651 30 651 30 642.5 15 c 128,-1,86
 634 0 634 0 617 0 c 2,87,-1
 72 0 l 2,88,89
 55 0 55 0 46.5 15 c 128,-1,90
 38 30 38 30 38 41 c 0,0,1
EndSplineSet
EndChar

StartChar: k
Encoding: 107 107 78
Width: 1294
GlyphClass: 2
Flags: W
LayerCount: 2
Fore
SplineSet
37 41 m 0,0,1
 37 57 37 57 43.5 66.5 c 128,-1,2
 50 76 50 76 70 78 c 0,3,4
 88 80 88 80 108.5 84 c 128,-1,5
 129 88 129 88 146.5 95.5 c 128,-1,6
 164 103 164 103 175 114 c 128,-1,7
 186 125 186 125 186 142 c 2,8,-1
 186 1329 l 2,9,10
 186 1375 186 1375 170.5 1398 c 128,-1,11
 155 1421 155 1421 132 1430.5 c 128,-1,12
 109 1440 109 1440 83 1442.5 c 128,-1,13
 57 1445 57 1445 37 1450 c 1,14,15
 26 1455 26 1455 19.5 1463 c 128,-1,16
 13 1471 13 1471 13 1490 c 0,17,18
 13 1502 13 1502 19 1517.5 c 128,-1,19
 25 1533 25 1533 37 1534 c 0,20,21
 108 1537 108 1537 173 1539.5 c 128,-1,22
 238 1542 238 1542 294.5 1543.5 c 128,-1,23
 351 1545 351 1545 396 1546.5 c 128,-1,24
 441 1548 441 1548 472 1548 c 0,25,26
 480 1548 480 1548 491 1540 c 128,-1,27
 502 1532 502 1532 502 1508 c 2,28,-1
 502 520 l 1,29,-1
 881 842 l 2,30,31
 896 855 896 855 887 866 c 128,-1,32
 878 877 878 877 857 885.5 c 128,-1,33
 836 894 836 894 808 899 c 128,-1,34
 780 904 780 904 756 906 c 0,35,36
 736 908 736 908 730.5 920.5 c 128,-1,37
 725 933 725 933 725 949 c 0,38,39
 725 955 725 955 727 962.5 c 128,-1,40
 729 970 729 970 733.5 977 c 128,-1,41
 738 984 738 984 744 989 c 128,-1,42
 750 994 750 994 759 994 c 2,43,-1
 1216 994 l 2,44,45
 1225 994 1225 994 1231 989 c 128,-1,46
 1237 984 1237 984 1241.5 977 c 128,-1,47
 1246 970 1246 970 1248 962.5 c 128,-1,48
 1250 955 1250 955 1250 949 c 0,49,50
 1250 931 1250 931 1242 918.5 c 128,-1,51
 1234 906 1234 906 1217 906 c 0,52,53
 1169 906 1169 906 1117.5 886 c 128,-1,54
 1066 866 1066 866 1029 837 c 2,55,-1
 797 649 l 1,56,57
 821 628 821 628 847 594 c 128,-1,58
 873 560 873 560 901.5 519 c 128,-1,59
 930 478 930 478 959.5 433 c 128,-1,60
 989 388 989 388 1019 344.5 c 128,-1,61
 1049 301 1049 301 1079 262 c 128,-1,62
 1109 223 1109 223 1138 194 c 0,63,64
 1159 173 1159 173 1178.5 153.5 c 128,-1,65
 1198 134 1198 134 1216.5 118 c 128,-1,66
 1235 102 1235 102 1253.5 91.5 c 128,-1,67
 1272 81 1272 81 1291 78 c 0,68,69
 1308 76 1308 76 1316 69.5 c 128,-1,70
 1324 63 1324 63 1324 41 c 0,71,72
 1324 30 1324 30 1315.5 15 c 128,-1,73
 1307 0 1307 0 1290 0 c 2,74,-1
 871 0 l 1,75,76
 843 61 843 61 808 127.5 c 128,-1,77
 773 194 773 194 735.5 257 c 128,-1,78
 698 320 698 320 658.5 376.5 c 128,-1,79
 619 433 619 433 582 474 c 1,80,-1
 502 409 l 1,81,-1
 502 175 l 2,82,83
 502 143 502 143 509.5 124.5 c 128,-1,84
 517 106 517 106 529.5 96 c 128,-1,85
 542 86 542 86 559 83 c 128,-1,86
 576 80 576 80 594 78 c 0,87,88
 615 76 615 76 622.5 70 c 128,-1,89
 630 64 630 64 630 41 c 0,90,91
 630 30 630 30 621.5 15 c 128,-1,92
 613 0 613 0 596 0 c 2,93,-1
 71 0 l 2,94,95
 54 0 54 0 45.5 15 c 128,-1,96
 37 30 37 30 37 41 c 0,0,1
EndSplineSet
EndChar

StartChar: l
Encoding: 108 108 79
Width: 705
GlyphClass: 2
Flags: W
LayerCount: 2
Fore
SplineSet
50 41 m 0,0,1
 50 57 50 57 56.5 66.5 c 128,-1,2
 63 76 63 76 83 78 c 0,3,4
 101 80 101 80 121.5 84 c 128,-1,5
 142 88 142 88 159 95.5 c 128,-1,6
 176 103 176 103 187 114 c 128,-1,7
 198 125 198 125 198 142 c 2,8,-1
 199 1328 l 1,9,-1
 199 1329 l 2,10,11
 199 1375 199 1375 180.5 1398 c 128,-1,12
 162 1421 162 1421 136 1430.5 c 128,-1,13
 110 1440 110 1440 80.5 1442.5 c 128,-1,14
 51 1445 51 1445 30 1450 c 1,15,16
 19 1455 19 1455 12.5 1463 c 128,-1,17
 6 1471 6 1471 6 1490 c 0,18,19
 6 1502 6 1502 12.5 1517.5 c 128,-1,20
 19 1533 19 1533 30 1534 c 0,21,22
 99 1537 99 1537 165.5 1539.5 c 128,-1,23
 232 1542 232 1542 290.5 1543.5 c 128,-1,24
 349 1545 349 1545 396.5 1546.5 c 128,-1,25
 444 1548 444 1548 475 1548 c 0,26,27
 483 1548 483 1548 494 1540 c 128,-1,28
 505 1532 505 1532 505 1508 c 2,29,-1
 505 175 l 2,30,31
 505 143 505 143 517 124.5 c 128,-1,32
 529 106 529 106 547.5 96 c 128,-1,33
 566 86 566 86 587.5 83 c 128,-1,34
 609 80 609 80 627 78 c 0,35,36
 648 76 648 76 655.5 70 c 128,-1,37
 663 64 663 64 663 41 c 0,38,39
 663 30 663 30 654.5 15 c 128,-1,40
 646 0 646 0 629 0 c 2,41,-1
 84 0 l 2,42,43
 67 0 67 0 58.5 15 c 128,-1,44
 50 30 50 30 50 41 c 0,0,1
EndSplineSet
EndChar

StartChar: m
Encoding: 109 109 80
Width: 2081
GlyphClass: 2
Flags: W
LayerCount: 2
Fore
SplineSet
61 41 m 0,0,1
 61 57 61 57 67.5 66.5 c 128,-1,2
 74 76 74 76 94 78 c 0,3,4
 112 80 112 80 132.5 84 c 128,-1,5
 153 88 153 88 170.5 95.5 c 128,-1,6
 188 103 188 103 199 114 c 128,-1,7
 210 125 210 125 210 142 c 2,8,-1
 210 778 l 2,9,10
 210 824 210 824 193.5 847 c 128,-1,11
 177 870 177 870 154 879.5 c 128,-1,12
 131 889 131 889 105.5 891.5 c 128,-1,13
 80 894 80 894 61 899 c 1,14,15
 50 904 50 904 43.5 912 c 128,-1,16
 37 920 37 920 37 939 c 0,17,18
 37 951 37 951 43 966.5 c 128,-1,19
 49 982 49 982 61 983 c 0,20,21
 130 986 130 986 194 988.5 c 128,-1,22
 258 991 258 991 313 992.5 c 128,-1,23
 368 994 368 994 412.5 995.5 c 128,-1,24
 457 997 457 997 486 997 c 0,25,26
 494 997 494 997 504 989 c 128,-1,27
 514 981 514 981 516 957 c 1,28,-1
 516 845 l 1,29,30
 532 862 532 862 571 890.5 c 128,-1,31
 610 919 610 919 666 946.5 c 128,-1,32
 722 974 722 974 790.5 994 c 128,-1,33
 859 1014 859 1014 933 1014 c 0,34,35
 977 1014 977 1014 1019 1008 c 128,-1,36
 1061 1002 1061 1002 1096.5 985.5 c 128,-1,37
 1132 969 1132 969 1159 940 c 128,-1,38
 1186 911 1186 911 1200 865 c 1,39,40
 1226 884 1226 884 1268 909.5 c 128,-1,41
 1310 935 1310 935 1364.5 958.5 c 128,-1,42
 1419 982 1419 982 1485.5 998 c 128,-1,43
 1552 1014 1552 1014 1627 1014 c 0,44,45
 1682 1014 1682 1014 1731.5 1004.5 c 128,-1,46
 1781 995 1781 995 1818.5 968 c 128,-1,47
 1856 941 1856 941 1877.5 892.5 c 128,-1,48
 1899 844 1899 844 1899 766 c 2,49,-1
 1899 175 l 2,50,51
 1899 139 1899 139 1913.5 120.5 c 128,-1,52
 1928 102 1928 102 1949 93.5 c 128,-1,53
 1970 85 1970 85 1993.5 83 c 128,-1,54
 2017 81 2017 81 2036 78 c 0,55,56
 2053 76 2053 76 2061 69.5 c 128,-1,57
 2069 63 2069 63 2069 41 c 0,58,59
 2069 30 2069 30 2060.5 15 c 128,-1,60
 2052 0 2052 0 2035 0 c 2,61,-1
 1478 0 l 2,62,63
 1461 0 1461 0 1452.5 15 c 128,-1,64
 1444 30 1444 30 1444 41 c 0,65,66
 1444 57 1444 57 1449.5 66.5 c 128,-1,67
 1455 76 1455 76 1475 78 c 0,68,69
 1491 79 1491 79 1509.5 84 c 128,-1,70
 1528 89 1528 89 1544 97 c 128,-1,71
 1560 105 1560 105 1570.5 116.5 c 128,-1,72
 1581 128 1581 128 1581 142 c 2,73,-1
 1581 761 l 2,74,75
 1581 774 1581 774 1579 791 c 128,-1,76
 1577 808 1577 808 1566 824 c 128,-1,77
 1555 840 1555 840 1531 851 c 128,-1,78
 1507 862 1507 862 1462 862 c 0,79,80
 1423 862 1423 862 1388 853 c 128,-1,81
 1353 844 1353 844 1322 829.5 c 128,-1,82
 1291 815 1291 815 1263.5 797 c 128,-1,83
 1236 779 1236 779 1214 761 c 1,84,-1
 1214 175 l 2,85,86
 1214 139 1214 139 1225.5 120.5 c 128,-1,87
 1237 102 1237 102 1254.5 93.5 c 128,-1,88
 1272 85 1272 85 1293 83 c 128,-1,89
 1314 81 1314 81 1333 78 c 0,90,91
 1350 76 1350 76 1358 69.5 c 128,-1,92
 1366 63 1366 63 1366 41 c 0,93,94
 1366 30 1366 30 1357.5 15 c 128,-1,95
 1349 0 1349 0 1332 0 c 2,96,-1
 795 0 l 2,97,98
 778 0 778 0 769.5 15 c 128,-1,99
 761 30 761 30 761 41 c 0,100,101
 761 57 761 57 766.5 66.5 c 128,-1,102
 772 76 772 76 792 78 c 0,103,104
 808 79 808 79 827.5 84 c 128,-1,105
 847 89 847 89 864.5 97 c 128,-1,106
 882 105 882 105 894 116.5 c 128,-1,107
 906 128 906 128 906 142 c 2,108,-1
 906 761 l 2,109,110
 906 774 906 774 902.5 791 c 128,-1,111
 899 808 899 808 886.5 824 c 128,-1,112
 874 840 874 840 848.5 851 c 128,-1,113
 823 862 823 862 778 862 c 0,114,115
 730 862 730 862 692.5 849.5 c 128,-1,116
 655 837 655 837 625 818.5 c 128,-1,117
 595 800 595 800 571 778 c 128,-1,118
 547 756 547 756 526 737 c 1,119,-1
 526 175 l 2,120,121
 526 143 526 143 536.5 124.5 c 128,-1,122
 547 106 547 106 563.5 96 c 128,-1,123
 580 86 580 86 600 83 c 128,-1,124
 620 80 620 80 638 78 c 0,125,126
 659 76 659 76 666.5 70 c 128,-1,127
 674 64 674 64 674 41 c 0,128,129
 674 30 674 30 665.5 15 c 128,-1,130
 657 0 657 0 640 0 c 2,131,-1
 95 0 l 2,132,133
 78 0 78 0 69.5 15 c 128,-1,134
 61 30 61 30 61 41 c 0,0,1
EndSplineSet
EndChar

StartChar: n
Encoding: 110 110 81
Width: 1413
GlyphClass: 2
Flags: W
LayerCount: 2
Fore
SplineSet
61 41 m 0,0,1
 61 57 61 57 67.5 66.5 c 128,-1,2
 74 76 74 76 94 78 c 0,3,4
 112 80 112 80 132.5 84 c 128,-1,5
 153 88 153 88 170.5 95.5 c 128,-1,6
 188 103 188 103 199 114 c 128,-1,7
 210 125 210 125 210 142 c 2,8,-1
 210 778 l 2,9,10
 210 824 210 824 193.5 847 c 128,-1,11
 177 870 177 870 154 879.5 c 128,-1,12
 131 889 131 889 105.5 891.5 c 128,-1,13
 80 894 80 894 61 899 c 1,14,15
 50 904 50 904 43.5 912 c 128,-1,16
 37 920 37 920 37 939 c 0,17,18
 37 951 37 951 43 966.5 c 128,-1,19
 49 982 49 982 61 983 c 0,20,21
 130 986 130 986 194 988.5 c 128,-1,22
 258 991 258 991 313 992.5 c 128,-1,23
 368 994 368 994 412.5 995.5 c 128,-1,24
 457 997 457 997 486 997 c 0,25,26
 494 997 494 997 504 989 c 128,-1,27
 514 981 514 981 516 957 c 1,28,-1
 516 845 l 1,29,30
 530 862 530 862 568.5 890.5 c 128,-1,31
 607 919 607 919 661 946.5 c 128,-1,32
 715 974 715 974 779.5 994 c 128,-1,33
 844 1014 844 1014 911 1014 c 0,34,35
 975 1014 975 1014 1033 1004.5 c 128,-1,36
 1091 995 1091 995 1135.5 968 c 128,-1,37
 1180 941 1180 941 1206.5 892.5 c 128,-1,38
 1233 844 1233 844 1233 766 c 2,39,-1
 1233 175 l 2,40,41
 1233 139 1233 139 1247.5 120.5 c 128,-1,42
 1262 102 1262 102 1283 93.5 c 128,-1,43
 1304 85 1304 85 1327.5 83 c 128,-1,44
 1351 81 1351 81 1370 78 c 0,45,46
 1387 76 1387 76 1395 69.5 c 128,-1,47
 1403 63 1403 63 1403 41 c 0,48,49
 1403 30 1403 30 1394.5 15 c 128,-1,50
 1386 0 1386 0 1369 0 c 2,51,-1
 812 0 l 2,52,53
 795 0 795 0 786.5 15 c 128,-1,54
 778 30 778 30 778 41 c 0,55,56
 778 57 778 57 783.5 66.5 c 128,-1,57
 789 76 789 76 809 78 c 0,58,59
 825 79 825 79 843.5 84 c 128,-1,60
 862 89 862 89 878 97 c 128,-1,61
 894 105 894 105 904.5 116.5 c 128,-1,62
 915 128 915 128 915 142 c 2,63,-1
 915 761 l 2,64,65
 915 774 915 774 913 791 c 128,-1,66
 911 808 911 808 900 824 c 128,-1,67
 889 840 889 840 865 851 c 128,-1,68
 841 862 841 862 796 862 c 0,69,70
 755 862 755 862 714.5 849.5 c 128,-1,71
 674 837 674 837 638 818.5 c 128,-1,72
 602 800 602 800 573 778 c 128,-1,73
 544 756 544 756 526 737 c 1,74,-1
 526 175 l 2,75,76
 526 143 526 143 536.5 124.5 c 128,-1,77
 547 106 547 106 563.5 96 c 128,-1,78
 580 86 580 86 600 83 c 128,-1,79
 620 80 620 80 638 78 c 0,80,81
 659 76 659 76 666.5 70 c 128,-1,82
 674 64 674 64 674 41 c 0,83,84
 674 30 674 30 665.5 15 c 128,-1,85
 657 0 657 0 640 0 c 2,86,-1
 95 0 l 2,87,88
 78 0 78 0 69.5 15 c 128,-1,89
 61 30 61 30 61 41 c 0,0,1
EndSplineSet
EndChar

StartChar: o
Encoding: 111 111 82
Width: 1303
GlyphClass: 2
Flags: W
LayerCount: 2
Fore
SplineSet
76 492 m 256,0,1
 76 622 76 622 118 719.5 c 128,-1,2
 160 817 160 817 236 882.5 c 128,-1,3
 312 948 312 948 419 981 c 128,-1,4
 526 1014 526 1014 657 1014 c 256,5,6
 788 1014 788 1014 893.5 981 c 128,-1,7
 999 948 999 948 1073 882.5 c 128,-1,8
 1147 817 1147 817 1187 719.5 c 128,-1,9
 1227 622 1227 622 1227 492 c 256,10,11
 1227 362 1227 362 1186 264.5 c 128,-1,12
 1145 167 1145 167 1069.5 101.5 c 128,-1,13
 994 36 994 36 887.5 3.5 c 128,-1,14
 781 -29 781 -29 650 -29 c 256,15,16
 519 -29 519 -29 413 3.5 c 128,-1,17
 307 36 307 36 232 101.5 c 128,-1,18
 157 167 157 167 116.5 264.5 c 128,-1,19
 76 362 76 362 76 492 c 256,0,1
427 492 m 0,20,21
 427 391 427 391 437.5 312 c 128,-1,22
 448 233 448 233 473.5 178.5 c 128,-1,23
 499 124 499 124 542.5 95 c 128,-1,24
 586 66 586 66 653 66 c 0,25,26
 719 66 719 66 762 95 c 128,-1,27
 805 124 805 124 830 178.5 c 128,-1,28
 855 233 855 233 865 312 c 128,-1,29
 875 391 875 391 875 492 c 0,30,31
 875 592 875 592 864.5 671.5 c 128,-1,32
 854 751 854 751 828.5 805.5 c 128,-1,33
 803 860 803 860 759 889 c 128,-1,34
 715 918 715 918 649 918 c 0,35,36
 582 918 582 918 539 889 c 128,-1,37
 496 860 496 860 471 805 c 128,-1,38
 446 750 446 750 436.5 671 c 128,-1,39
 427 592 427 592 427 492 c 0,20,21
EndSplineSet
Substitution2: "Single Substitution lookup 12 subtable" ordmasculine
Substitution2: "'aalt' Access All Alternates in Latin lookup 0 subtable" ordmasculine
EndChar

StartChar: p
Encoding: 112 112 83
Width: 1348
GlyphClass: 2
Flags: W
LayerCount: 2
Fore
SplineSet
186 778 m 2,0,1
 186 824 186 824 169.5 847 c 128,-1,2
 153 870 153 870 130 879.5 c 128,-1,3
 107 889 107 889 81.5 891.5 c 128,-1,4
 56 894 56 894 37 899 c 1,5,6
 26 904 26 904 19.5 912 c 128,-1,7
 13 920 13 920 13 939 c 0,8,9
 13 951 13 951 19 966.5 c 128,-1,10
 25 982 25 982 37 983 c 0,11,12
 106 986 106 986 170 988.5 c 128,-1,13
 234 991 234 991 289 992.5 c 128,-1,14
 344 994 344 994 388.5 995.5 c 128,-1,15
 433 997 433 997 462 997 c 0,16,17
 470 997 470 997 480 989 c 128,-1,18
 490 981 490 981 492 957 c 1,19,-1
 492 876 l 1,20,21
 517 911 517 911 555.5 937 c 128,-1,22
 594 963 594 963 638 980 c 128,-1,23
 682 997 682 997 729 1005.5 c 128,-1,24
 776 1014 776 1014 820 1014 c 0,25,26
 943 1014 943 1014 1028.5 970.5 c 128,-1,27
 1114 927 1114 927 1167.5 854.5 c 128,-1,28
 1221 782 1221 782 1244.5 688 c 128,-1,29
 1268 594 1268 594 1268 493 c 256,30,31
 1268 392 1268 392 1236.5 298 c 128,-1,32
 1205 204 1205 204 1142 131 c 128,-1,33
 1079 58 1079 58 983 14.5 c 128,-1,34
 887 -29 887 -29 758 -29 c 0,35,36
 693 -29 693 -29 625.5 -21.5 c 128,-1,37
 558 -14 558 -14 492 9 c 1,38,-1
 502 -87 l 1,39,-1
 502 -302 l 2,40,41
 502 -319 502 -319 518.5 -330 c 128,-1,42
 535 -341 535 -341 560.5 -348.5 c 128,-1,43
 586 -356 586 -356 617 -360 c 128,-1,44
 648 -364 648 -364 678 -366 c 0,45,46
 698 -368 698 -368 704.5 -377.5 c 128,-1,47
 711 -387 711 -387 711 -403 c 0,48,49
 711 -414 711 -414 702.5 -429 c 128,-1,50
 694 -444 694 -444 677 -444 c 2,51,-1
 62 -444 l 2,52,53
 45 -444 45 -444 36.5 -429 c 128,-1,54
 28 -414 28 -414 28 -403 c 0,55,56
 28 -380 28 -380 35.5 -374 c 128,-1,57
 43 -368 43 -368 64 -366 c 0,58,59
 82 -364 82 -364 103.5 -361 c 128,-1,60
 125 -358 125 -358 143.5 -348 c 128,-1,61
 162 -338 162 -338 174 -319.5 c 128,-1,62
 186 -301 186 -301 186 -269 c 2,63,-1
 186 778 l 2,0,1
502 164 m 1,64,65
 508 149 508 149 525 133.5 c 128,-1,66
 542 118 542 118 564.5 105.5 c 128,-1,67
 587 93 587 93 612 84.5 c 128,-1,68
 637 76 637 76 661 76 c 0,69,70
 738 76 738 76 790 107.5 c 128,-1,71
 842 139 842 139 873.5 195 c 128,-1,72
 905 251 905 251 918 327.5 c 128,-1,73
 931 404 931 404 931 493 c 0,74,75
 931 571 931 571 918 639.5 c 128,-1,76
 905 708 905 708 875 759 c 128,-1,77
 845 810 845 810 796.5 839.5 c 128,-1,78
 748 869 748 869 677 869 c 0,79,80
 654 869 654 869 628.5 863 c 128,-1,81
 603 857 603 857 579 845.5 c 128,-1,82
 555 834 555 834 535 816.5 c 128,-1,83
 515 799 515 799 502 776 c 1,84,-1
 502 164 l 1,64,65
EndSplineSet
EndChar

StartChar: q
Encoding: 113 113 84
Width: 1327
GlyphClass: 2
Flags: W
LayerCount: 2
Fore
SplineSet
87 492 m 256,0,1
 87 593 87 593 118.5 687 c 128,-1,2
 150 781 150 781 213 854 c 128,-1,3
 276 927 276 927 372 970.5 c 128,-1,4
 468 1014 468 1014 597 1014 c 0,5,6
 643 1014 643 1014 691 1010.5 c 128,-1,7
 739 1007 739 1007 787 997 c 128,-1,8
 835 987 835 987 881.5 968.5 c 128,-1,9
 928 950 928 950 972 921 c 1,10,11
 993 928 993 928 1011.5 940 c 128,-1,12
 1030 952 1030 952 1045 965 c 128,-1,13
 1060 978 1060 978 1071 989.5 c 128,-1,14
 1082 1001 1082 1001 1088 1008 c 0,15,16
 1097 1018 1097 1018 1110 1023 c 128,-1,17
 1123 1028 1123 1028 1136 1028 c 0,18,19
 1150 1028 1150 1028 1159.5 1020.5 c 128,-1,20
 1169 1013 1169 1013 1169 998 c 2,21,-1
 1169 -269 l 2,22,23
 1169 -301 1169 -301 1180.5 -319.5 c 128,-1,24
 1192 -338 1192 -338 1210 -348 c 128,-1,25
 1228 -358 1228 -358 1249.5 -361 c 128,-1,26
 1271 -364 1271 -364 1291 -366 c 0,27,28
 1312 -368 1312 -368 1319.5 -374 c 128,-1,29
 1327 -380 1327 -380 1327 -403 c 0,30,31
 1327 -414 1327 -414 1318.5 -429 c 128,-1,32
 1310 -444 1310 -444 1293 -444 c 2,33,-1
 668 -444 l 2,34,35
 651 -444 651 -444 642.5 -429 c 128,-1,36
 634 -414 634 -414 634 -403 c 0,37,38
 634 -387 634 -387 640.5 -377.5 c 128,-1,39
 647 -368 647 -368 667 -366 c 0,40,41
 695 -364 695 -364 727.5 -360 c 128,-1,42
 760 -356 760 -356 788 -348.5 c 128,-1,43
 816 -341 816 -341 834.5 -330 c 128,-1,44
 853 -319 853 -319 853 -302 c 2,45,-1
 853 0 l 1,46,-1
 862 108 l 1,47,48
 836 73 836 73 798 47.5 c 128,-1,49
 760 22 760 22 716 5 c 128,-1,50
 672 -12 672 -12 625 -20.5 c 128,-1,51
 578 -29 578 -29 535 -29 c 0,52,53
 412 -29 412 -29 326.5 14.5 c 128,-1,54
 241 58 241 58 187.5 130.5 c 128,-1,55
 134 203 134 203 110.5 297 c 128,-1,56
 87 391 87 391 87 492 c 256,0,1
424 492 m 0,57,58
 424 414 424 414 437 345.5 c 128,-1,59
 450 277 450 277 480 226 c 128,-1,60
 510 175 510 175 558.5 145.5 c 128,-1,61
 607 116 607 116 678 116 c 0,62,63
 701 116 701 116 726 122 c 128,-1,64
 751 128 751 128 775 139.5 c 128,-1,65
 799 151 799 151 819.5 168.5 c 128,-1,66
 840 186 840 186 853 209 c 1,67,-1
 853 801 l 1,68,69
 847 819 847 819 830 838.5 c 128,-1,70
 813 858 813 858 790.5 873.5 c 128,-1,71
 768 889 768 889 743 899 c 128,-1,72
 718 909 718 909 694 909 c 0,73,74
 617 909 617 909 565 877.5 c 128,-1,75
 513 846 513 846 481.5 790 c 128,-1,76
 450 734 450 734 437 657.5 c 128,-1,77
 424 581 424 581 424 492 c 0,57,58
EndSplineSet
EndChar

StartChar: r
Encoding: 114 114 85
Width: 1065
GlyphClass: 2
Flags: W
LayerCount: 2
Fore
SplineSet
59 41 m 0,0,1
 59 57 59 57 65.5 66.5 c 128,-1,2
 72 76 72 76 92 78 c 256,3,4
 112 80 112 80 133 84 c 128,-1,5
 154 88 154 88 170.5 95.5 c 128,-1,6
 187 103 187 103 197.5 114 c 128,-1,7
 208 125 208 125 208 142 c 2,8,-1
 208 778 l 2,9,10
 208 824 208 824 192.5 847.5 c 128,-1,11
 177 871 177 871 154 881.5 c 128,-1,12
 131 892 131 892 105 895 c 128,-1,13
 79 898 79 898 59 903 c 1,14,15
 48 908 48 908 41.5 916 c 128,-1,16
 35 924 35 924 35 943 c 0,17,18
 35 955 35 955 41.5 970.5 c 128,-1,19
 48 986 48 986 59 987 c 0,20,21
 130 990 130 990 195.5 992 c 128,-1,22
 261 994 261 994 317.5 995 c 128,-1,23
 374 996 374 996 419 996.5 c 128,-1,24
 464 997 464 997 494 997 c 0,25,26
 502 997 502 997 512 989 c 128,-1,27
 522 981 522 981 524 957 c 1,28,-1
 524 822 l 1,29,30
 537 843 537 843 566 875.5 c 128,-1,31
 595 908 595 908 637.5 938.5 c 128,-1,32
 680 969 680 969 735.5 991.5 c 128,-1,33
 791 1014 791 1014 859 1014 c 0,34,35
 958 1014 958 1014 1000.5 956 c 128,-1,36
 1043 898 1043 898 1043 792 c 0,37,38
 1043 739 1043 739 1024.5 701 c 128,-1,39
 1006 663 1006 663 980 641 c 128,-1,40
 954 619 954 619 925.5 613 c 128,-1,41
 897 607 897 607 877 616 c 1,42,43
 871 622 871 622 856.5 646 c 128,-1,44
 842 670 842 670 823 702 c 128,-1,45
 804 734 804 734 783 771 c 128,-1,46
 762 808 762 808 744 840 c 1,47,48
 720 839 720 839 688 829.5 c 128,-1,49
 656 820 656 820 624 803.5 c 128,-1,50
 592 787 592 787 565 763.5 c 128,-1,51
 538 740 538 740 524 712 c 1,52,-1
 524 175 l 2,53,54
 524 143 524 143 541 124.5 c 128,-1,55
 558 106 558 106 584 96 c 128,-1,56
 610 86 610 86 640 83 c 128,-1,57
 670 80 670 80 696 78 c 0,58,59
 717 76 717 76 724.5 70 c 128,-1,60
 732 64 732 64 732 41 c 0,61,62
 732 30 732 30 723.5 15 c 128,-1,63
 715 0 715 0 698 0 c 2,64,-1
 93 0 l 2,65,66
 76 0 76 0 67.5 15 c 128,-1,67
 59 30 59 30 59 41 c 0,0,1
EndSplineSet
EndChar

StartChar: s
Encoding: 115 115 86
Width: 1051
GlyphClass: 2
Flags: W
LayerCount: 2
Fore
SplineSet
107 24 m 0,0,1
 107 32 107 32 106.5 54.5 c 128,-1,2
 106 77 106 77 105 106.5 c 128,-1,3
 104 136 104 136 102.5 170.5 c 128,-1,4
 101 205 101 205 100 237 c 128,-1,5
 99 269 99 269 98.5 295.5 c 128,-1,6
 98 322 98 322 98 336 c 0,7,8
 98 357 98 357 112 367.5 c 128,-1,9
 126 378 126 378 143 379.5 c 128,-1,10
 160 381 160 381 175.5 374.5 c 128,-1,11
 191 368 191 368 194 357 c 256,12,13
 197 346 197 346 201 331.5 c 128,-1,14
 205 317 205 317 213 297 c 128,-1,15
 221 277 221 277 233.5 250 c 128,-1,16
 246 223 246 223 267 188 c 0,17,18
 288 152 288 152 321.5 127 c 128,-1,19
 355 102 355 102 392.5 86 c 128,-1,20
 430 70 430 70 468 62.5 c 128,-1,21
 506 55 506 55 537 55 c 0,22,23
 569 55 569 55 600.5 60.5 c 128,-1,24
 632 66 632 66 656.5 80 c 128,-1,25
 681 94 681 94 696.5 119.5 c 128,-1,26
 712 145 712 145 712 186 c 0,27,28
 712 223 712 223 687.5 250 c 128,-1,29
 663 277 663 277 622.5 298.5 c 128,-1,30
 582 320 582 320 530 339 c 128,-1,31
 478 358 478 358 423 380 c 0,32,33
 366 402 366 402 312 430.5 c 128,-1,34
 258 459 258 459 216 499.5 c 128,-1,35
 174 540 174 540 148 595 c 128,-1,36
 122 650 122 650 122 725 c 0,37,38
 122 791 122 791 153.5 844.5 c 128,-1,39
 185 898 185 898 241.5 935.5 c 128,-1,40
 298 973 298 973 376.5 993.5 c 128,-1,41
 455 1014 455 1014 550 1014 c 0,42,43
 598 1014 598 1014 634 1009 c 128,-1,44
 670 1004 670 1004 695.5 997.5 c 128,-1,45
 721 991 721 991 738.5 985 c 128,-1,46
 756 979 756 979 767 977 c 0,47,48
 785 974 785 974 793.5 976 c 128,-1,49
 802 978 802 978 806.5 983 c 128,-1,50
 811 988 811 988 813 995 c 128,-1,51
 815 1002 815 1002 819 1008 c 0,52,53
 826 1020 826 1020 843 1025 c 128,-1,54
 860 1030 860 1030 878 1028 c 128,-1,55
 896 1026 896 1026 909.5 1017.5 c 128,-1,56
 923 1009 923 1009 923 994 c 0,57,58
 923 987 923 987 922 960 c 128,-1,59
 921 933 921 933 920.5 898 c 128,-1,60
 920 863 920 863 920.5 825 c 128,-1,61
 921 787 921 787 925 757 c 0,62,63
 928 731 928 731 914.5 719.5 c 128,-1,64
 901 708 901 708 883 706.5 c 128,-1,65
 865 705 865 705 848.5 710 c 128,-1,66
 832 715 832 715 829 722 c 0,67,68
 815 752 815 752 796.5 788 c 128,-1,69
 778 824 778 824 747 855 c 128,-1,70
 716 886 716 886 669.5 907 c 128,-1,71
 623 928 623 928 554 928 c 0,72,73
 521 928 521 928 494 923.5 c 128,-1,74
 467 919 467 919 447 907.5 c 128,-1,75
 427 896 427 896 415.5 876 c 128,-1,76
 404 856 404 856 403 825 c 0,77,78
 401 789 401 789 419.5 761 c 128,-1,79
 438 733 438 733 470 709 c 128,-1,80
 502 685 502 685 545.5 664 c 128,-1,81
 589 643 589 643 637 622 c 0,82,83
 700 595 700 595 764.5 566 c 128,-1,84
 829 537 829 537 881.5 499 c 128,-1,85
 934 461 934 461 967 409.5 c 128,-1,86
 1000 358 1000 358 1000 285 c 0,87,88
 1000 130 1000 130 885 50 c 128,-1,89
 770 -30 770 -30 540 -30 c 0,90,91
 488 -30 488 -30 444.5 -25 c 128,-1,92
 401 -20 401 -20 366.5 -12.5 c 128,-1,93
 332 -5 332 -5 307.5 4 c 128,-1,94
 283 13 283 13 270 20 c 0,95,96
 244 34 244 34 229.5 31.5 c 128,-1,97
 215 29 215 29 208 18 c 0,98,99
 199 3 199 3 182 -2 c 128,-1,100
 165 -7 165 -7 148.5 -5.5 c 128,-1,101
 132 -4 132 -4 119.5 4 c 128,-1,102
 107 12 107 12 107 24 c 0,0,1
EndSplineSet
EndChar

StartChar: t
Encoding: 116 116 87
Width: 813
GlyphClass: 2
Flags: W
LayerCount: 2
Fore
SplineSet
201 885 m 1,0,-1
 64 885 l 1,1,2
 52 886 52 886 46 901.5 c 128,-1,3
 40 917 40 917 40 929 c 0,4,5
 40 948 40 948 47 959 c 128,-1,6
 54 970 54 970 65 975 c 1,7,-1
 133 979 l 1,8,9
 161 985 161 985 191.5 1002 c 128,-1,10
 222 1019 222 1019 253.5 1052 c 128,-1,11
 285 1085 285 1085 317 1137.5 c 128,-1,12
 349 1190 349 1190 379 1268 c 0,13,14
 387 1291 387 1291 406 1299 c 128,-1,15
 425 1307 425 1307 448 1307 c 0,16,17
 476 1307 476 1307 496.5 1300.5 c 128,-1,18
 517 1294 517 1294 517 1277 c 2,19,-1
 517 992 l 1,20,-1
 753 992 l 1,21,22
 765 991 765 991 771 980.5 c 128,-1,23
 777 970 777 970 777 958 c 0,24,25
 777 949 777 949 775 937 c 128,-1,26
 773 925 773 925 770 914.5 c 128,-1,27
 767 904 767 904 762.5 895.5 c 128,-1,28
 758 887 758 887 753 885 c 1,29,-1
 517 885 l 1,30,-1
 517 312 l 2,31,32
 517 248 517 248 522 208 c 128,-1,33
 527 168 527 168 538 145 c 128,-1,34
 549 122 549 122 568 113.5 c 128,-1,35
 587 105 587 105 615 105 c 0,36,37
 632 105 632 105 652.5 106 c 128,-1,38
 673 107 673 107 694 110 c 128,-1,39
 715 113 715 113 735.5 119 c 128,-1,40
 756 125 756 125 774 134 c 1,41,-1
 808 68 l 1,42,43
 789 47 789 47 755.5 29 c 128,-1,44
 722 11 722 11 682 -2 c 128,-1,45
 642 -15 642 -15 601 -22.5 c 128,-1,46
 560 -30 560 -30 526 -30 c 0,47,48
 463 -30 463 -30 404 -19 c 128,-1,49
 345 -8 345 -8 300 20.5 c 128,-1,50
 255 49 255 49 228 98 c 128,-1,51
 201 147 201 147 201 223 c 2,52,-1
 201 885 l 1,0,-1
EndSplineSet
EndChar

StartChar: u
Encoding: 117 117 88
Width: 1386
GlyphClass: 2
Flags: W
LayerCount: 2
Fore
SplineSet
180 819 m 2,0,1
 180 851 180 851 169.5 869.5 c 128,-1,2
 159 888 159 888 143 898 c 128,-1,3
 127 908 127 908 107.5 911 c 128,-1,4
 88 914 88 914 70 916 c 0,5,6
 49 918 49 918 41.5 924 c 128,-1,7
 34 930 34 930 34 953 c 0,8,9
 34 964 34 964 42.5 979 c 128,-1,10
 51 994 51 994 68 994 c 2,11,-1
 461 994 l 2,12,13
 482 994 482 994 490 984 c 128,-1,14
 498 974 498 974 498 958 c 2,15,-1
 498 291 l 2,16,17
 498 273 498 273 500.5 245 c 128,-1,18
 503 217 503 217 512 190.5 c 128,-1,19
 521 164 521 164 538.5 145.5 c 128,-1,20
 556 127 556 127 587 127 c 0,21,22
 638 127 638 127 678 133 c 128,-1,23
 718 139 718 139 751 151.5 c 128,-1,24
 784 164 784 164 811 183 c 128,-1,25
 838 202 838 202 862 228 c 1,26,-1
 862 819 l 2,27,28
 862 851 862 851 848 869.5 c 128,-1,29
 834 888 834 888 812 898 c 128,-1,30
 790 908 790 908 763 911 c 128,-1,31
 736 914 736 914 710 916 c 0,32,33
 689 918 689 918 681.5 924 c 128,-1,34
 674 930 674 930 674 953 c 0,35,36
 674 964 674 964 682.5 979 c 128,-1,37
 691 994 691 994 708 994 c 2,38,-1
 1141 994 l 2,39,40
 1161 994 1161 994 1169.5 984 c 128,-1,41
 1178 974 1178 974 1178 958 c 2,42,-1
 1178 240 l 2,43,44
 1178 187 1178 187 1188.5 152.5 c 128,-1,45
 1199 118 1199 118 1216 118 c 0,46,47
 1230 118 1230 118 1243 119.5 c 128,-1,48
 1256 121 1256 121 1274 126 c 0,49,50
 1286 129 1286 129 1295 117.5 c 128,-1,51
 1304 106 1304 106 1309 89.5 c 128,-1,52
 1314 73 1314 73 1314 57.5 c 128,-1,53
 1314 42 1314 42 1308 37 c 0,54,55
 1299 31 1299 31 1277 21 c 128,-1,56
 1255 11 1255 11 1219 0.5 c 128,-1,57
 1183 -10 1183 -10 1133.5 -17.5 c 128,-1,58
 1084 -25 1084 -25 1021 -25 c 0,59,60
 971 -25 971 -25 942.5 -6 c 128,-1,61
 914 13 914 13 899.5 40 c 128,-1,62
 885 67 885 67 882 96.5 c 128,-1,63
 879 126 879 126 879 147 c 1,64,65
 853 113 853 113 811.5 81.5 c 128,-1,66
 770 50 770 50 719 26 c 128,-1,67
 668 2 668 2 610.5 -12.5 c 128,-1,68
 553 -27 553 -27 496 -27 c 0,69,70
 436 -27 436 -27 379 -17 c 128,-1,71
 322 -7 322 -7 277.5 22.5 c 128,-1,72
 233 52 233 52 206.5 104 c 128,-1,73
 180 156 180 156 180 240 c 2,74,-1
 180 819 l 2,0,1
EndSplineSet
EndChar

StartChar: v
Encoding: 118 118 89
Width: 1161
GlyphClass: 2
Flags: W
LayerCount: 2
Fore
SplineSet
97 829 m 2,0,1
 84 855 84 855 72 871 c 128,-1,2
 60 887 60 887 46.5 896.5 c 128,-1,3
 33 906 33 906 18 910 c 128,-1,4
 3 914 3 914 -15 916 c 0,5,6
 -36 918 -36 918 -43.5 924 c 128,-1,7
 -51 930 -51 930 -51 953 c 0,8,9
 -51 964 -51 964 -42.5 979 c 128,-1,10
 -34 994 -34 994 -17 994 c 2,11,-1
 552 994 l 2,12,13
 569 994 569 994 577.5 979 c 128,-1,14
 586 964 586 964 586 953 c 0,15,16
 586 937 586 937 579.5 927.5 c 128,-1,17
 573 918 573 918 553 916 c 0,18,19
 535 914 535 914 512 911 c 128,-1,20
 489 908 489 908 470 902 c 128,-1,21
 451 896 451 896 441 886.5 c 128,-1,22
 431 877 431 877 437 862 c 2,23,-1
 695 256 l 1,24,-1
 946 862 l 2,25,26
 952 877 952 877 940.5 887 c 128,-1,27
 929 897 929 897 909 902.5 c 128,-1,28
 889 908 889 908 865 911 c 128,-1,29
 841 914 841 914 823 916 c 0,30,31
 803 918 803 918 796.5 927.5 c 128,-1,32
 790 937 790 937 790 953 c 0,33,34
 790 964 790 964 798.5 979 c 128,-1,35
 807 994 807 994 824 994 c 2,36,-1
 1189 994 l 2,37,38
 1206 994 1206 994 1214.5 979 c 128,-1,39
 1223 964 1223 964 1223 953 c 0,40,41
 1223 930 1223 930 1215.5 924 c 128,-1,42
 1208 918 1208 918 1187 916 c 0,43,44
 1169 914 1169 914 1152 910 c 128,-1,45
 1135 906 1135 906 1119.5 897 c 128,-1,46
 1104 888 1104 888 1090.5 871.5 c 128,-1,47
 1077 855 1077 855 1065 829 c 2,48,-1
 686 -9 l 1,49,-1
 504 -9 l 1,50,-1
 97 829 l 2,0,1
EndSplineSet
EndChar

StartChar: w
Encoding: 119 119 90
Width: 1767
GlyphClass: 2
Flags: W
LayerCount: 2
Fore
SplineSet
131 829 m 2,0,1
 120 856 120 856 107 872.5 c 128,-1,2
 94 889 94 889 78 898 c 128,-1,3
 62 907 62 907 44.5 910.5 c 128,-1,4
 27 914 27 914 9 916 c 0,5,6
 -12 918 -12 918 -19.5 924 c 128,-1,7
 -27 930 -27 930 -27 953 c 0,8,9
 -27 964 -27 964 -18.5 979 c 128,-1,10
 -10 994 -10 994 7 994 c 2,11,-1
 562 994 l 2,12,13
 579 994 579 994 587.5 979 c 128,-1,14
 596 964 596 964 596 953 c 0,15,16
 596 937 596 937 589.5 927.5 c 128,-1,17
 583 918 583 918 563 916 c 0,18,19
 545 914 545 914 524 911 c 128,-1,20
 503 908 503 908 486 902.5 c 128,-1,21
 469 897 469 897 460 887 c 128,-1,22
 451 877 451 877 457 862 c 2,23,-1
 655 306 l 1,24,-1
 865 966 l 1,25,-1
 1101 966 l 1,26,-1
 1332 322 l 1,27,-1
 1529 862 l 2,28,29
 1535 877 1535 877 1521 887 c 128,-1,30
 1507 897 1507 897 1485 902.5 c 128,-1,31
 1463 908 1463 908 1437 911 c 128,-1,32
 1411 914 1411 914 1393 916 c 0,33,34
 1373 918 1373 918 1366.5 927.5 c 128,-1,35
 1360 937 1360 937 1360 953 c 0,36,37
 1360 964 1360 964 1368.5 979 c 128,-1,38
 1377 994 1377 994 1394 994 c 2,39,-1
 1759 994 l 2,40,41
 1776 994 1776 994 1784.5 979 c 128,-1,42
 1793 964 1793 964 1793 953 c 0,43,44
 1793 930 1793 930 1785.5 924 c 128,-1,45
 1778 918 1778 918 1757 916 c 0,46,47
 1739 914 1739 914 1723 910.5 c 128,-1,48
 1707 907 1707 907 1693 898 c 128,-1,49
 1679 889 1679 889 1667 872.5 c 128,-1,50
 1655 856 1655 856 1645 829 c 2,51,-1
 1318 -9 l 1,52,-1
 1134 -9 l 1,53,-1
 884 641 l 1,54,-1
 653 -9 l 1,55,-1
 459 -9 l 1,56,-1
 131 829 l 2,0,1
EndSplineSet
EndChar

StartChar: x
Encoding: 120 120 91
Width: 1204
GlyphClass: 2
Flags: W
LayerCount: 2
Fore
SplineSet
21 41 m 0,0,1
 21 78 21 78 54 78 c 0,2,3
 79 78 79 78 103 87 c 128,-1,4
 127 96 127 96 148 109.5 c 128,-1,5
 169 123 169 123 186.5 138.5 c 128,-1,6
 204 154 204 154 217 168 c 2,7,-1
 473 434 l 1,8,-1
 167 827 l 2,9,10
 149 850 149 850 134.5 865.5 c 128,-1,11
 120 881 120 881 106 891 c 128,-1,12
 92 901 92 901 77 906 c 128,-1,13
 62 911 62 911 43 914 c 0,14,15
 26 916 26 916 18 922.5 c 128,-1,16
 10 929 10 929 10 951 c 0,17,18
 10 962 10 962 18.5 977 c 128,-1,19
 27 992 27 992 44 992 c 2,20,-1
 583 992 l 2,21,22
 600 992 600 992 608.5 977 c 128,-1,23
 617 962 617 962 617 951 c 0,24,25
 617 935 617 935 611.5 925.5 c 128,-1,26
 606 916 606 916 586 914 c 0,27,28
 570 912 570 912 554.5 911 c 128,-1,29
 539 910 539 910 530 905.5 c 128,-1,30
 521 901 521 901 521 890.5 c 128,-1,31
 521 880 521 880 535 860 c 2,32,-1
 686 627 l 1,33,-1
 888 846 l 2,34,35
 903 862 903 862 899 874.5 c 128,-1,36
 895 887 895 887 881 895 c 128,-1,37
 867 903 867 903 847.5 907.5 c 128,-1,38
 828 912 828 912 812 914 c 0,39,40
 792 916 792 916 786.5 925.5 c 128,-1,41
 781 935 781 935 781 951 c 0,42,43
 781 962 781 962 789.5 977 c 128,-1,44
 798 992 798 992 815 992 c 2,45,-1
 1158 992 l 2,46,47
 1175 992 1175 992 1183.5 977 c 128,-1,48
 1192 962 1192 962 1192 951 c 0,49,50
 1192 914 1192 914 1159 914 c 0,51,52
 1133 914 1133 914 1111 906 c 128,-1,53
 1089 898 1089 898 1070 885.5 c 128,-1,54
 1051 873 1051 873 1034 857.5 c 128,-1,55
 1017 842 1017 842 1002 827 c 2,56,-1
 737 566 l 1,57,-1
 1071 165 l 2,58,59
 1086 147 1086 147 1099 132 c 128,-1,60
 1112 117 1112 117 1125.5 106 c 128,-1,61
 1139 95 1139 95 1154 88 c 128,-1,62
 1169 81 1169 81 1188 78 c 0,63,64
 1205 76 1205 76 1213 69.5 c 128,-1,65
 1221 63 1221 63 1221 41 c 0,66,67
 1221 30 1221 30 1212.5 15 c 128,-1,68
 1204 0 1204 0 1187 0 c 2,69,-1
 650 0 l 2,70,71
 633 0 633 0 624.5 15 c 128,-1,72
 616 30 616 30 616 41 c 0,73,74
 616 57 616 57 621.5 66.5 c 128,-1,75
 627 76 627 76 647 78 c 0,76,77
 662 79 662 79 677.5 81.5 c 128,-1,78
 693 84 693 84 703 89.5 c 128,-1,79
 713 95 713 95 714.5 105 c 128,-1,80
 716 115 716 115 703 132 c 2,81,-1
 528 373 l 1,82,-1
 331 146 l 2,83,84
 316 129 316 129 323 117 c 128,-1,85
 330 105 330 105 348 96.5 c 128,-1,86
 366 88 366 88 388.5 83.5 c 128,-1,87
 411 79 411 79 427 78 c 0,88,89
 447 76 447 76 452.5 66.5 c 128,-1,90
 458 57 458 57 458 41 c 0,91,92
 458 30 458 30 449.5 15 c 128,-1,93
 441 0 441 0 424 0 c 2,94,-1
 55 0 l 2,95,96
 38 0 38 0 29.5 15 c 128,-1,97
 21 30 21 30 21 41 c 0,0,1
EndSplineSet
EndChar

StartChar: y
Encoding: 121 121 92
Width: 1151
GlyphClass: 2
Flags: W
LayerCount: 2
Fore
SplineSet
326 -308 m 1,0,1
 348 -299 348 -299 372.5 -282 c 128,-1,2
 397 -265 397 -265 424.5 -234.5 c 128,-1,3
 452 -204 452 -204 482.5 -156.5 c 128,-1,4
 513 -109 513 -109 546 -39 c 1,5,-1
 135 829 l 2,6,7
 123 855 123 855 109 871.5 c 128,-1,8
 95 888 95 888 80 897 c 128,-1,9
 65 906 65 906 48 910 c 128,-1,10
 31 914 31 914 13 916 c 0,11,12
 -8 918 -8 918 -15.5 924 c 128,-1,13
 -23 930 -23 930 -23 953 c 0,14,15
 -23 964 -23 964 -15 979 c 128,-1,16
 -7 994 -7 994 10 994 c 2,17,-1
 557 994 l 2,18,19
 574 994 574 994 582.5 979 c 128,-1,20
 591 964 591 964 591 953 c 0,21,22
 591 937 591 937 584.5 927.5 c 128,-1,23
 578 918 578 918 558 916 c 0,24,25
 540 914 540 914 518.5 911 c 128,-1,26
 497 908 497 908 480 902 c 128,-1,27
 463 896 463 896 454.5 886.5 c 128,-1,28
 446 877 446 877 452 862 c 2,29,-1
 696 294 l 1,30,-1
 914 862 l 2,31,32
 920 877 920 877 910.5 887 c 128,-1,33
 901 897 901 897 884 902.5 c 128,-1,34
 867 908 867 908 845 911 c 128,-1,35
 823 914 823 914 805 916 c 0,36,37
 785 918 785 918 778.5 927.5 c 128,-1,38
 772 937 772 937 772 953 c 0,39,40
 772 964 772 964 780.5 979 c 128,-1,41
 789 994 789 994 806 994 c 2,42,-1
 1151 994 l 2,43,44
 1168 994 1168 994 1176.5 979 c 128,-1,45
 1185 964 1185 964 1185 953 c 0,46,47
 1185 930 1185 930 1177.5 924 c 128,-1,48
 1170 918 1170 918 1149 916 c 0,49,50
 1131 914 1131 914 1115 910 c 128,-1,51
 1099 906 1099 906 1085.5 897 c 128,-1,52
 1072 888 1072 888 1060 872 c 128,-1,53
 1048 856 1048 856 1037 829 c 2,54,-1
 755 170 l 2,55,56
 720 88 720 88 685.5 10.5 c 128,-1,57
 651 -67 651 -67 614.5 -135.5 c 128,-1,58
 578 -204 578 -204 538.5 -261.5 c 128,-1,59
 499 -319 499 -319 453.5 -361 c 128,-1,60
 408 -403 408 -403 355.5 -426 c 128,-1,61
 303 -449 303 -449 241 -449 c 0,62,63
 193 -449 193 -449 152 -428 c 128,-1,64
 111 -407 111 -407 81 -376 c 128,-1,65
 51 -345 51 -345 34 -311 c 128,-1,66
 17 -277 17 -277 17 -251 c 0,67,68
 17 -197 17 -197 34 -162.5 c 128,-1,69
 51 -128 51 -128 74.5 -109 c 128,-1,70
 98 -90 98 -90 121.5 -85 c 128,-1,71
 145 -80 145 -80 159 -85 c 1,72,-1
 326 -308 l 1,0,1
EndSplineSet
EndChar

StartChar: z
Encoding: 122 122 93
Width: 1075
GlyphClass: 2
Flags: W
LayerCount: 2
Fore
SplineSet
49 40 m 2,0,1
 49 45 49 45 50.5 51 c 128,-1,2
 52 57 52 57 56.5 66 c 128,-1,3
 61 75 61 75 69 89 c 128,-1,4
 77 103 77 103 91 123 c 2,5,-1
 613 911 l 1,6,-1
 402 911 l 2,7,8
 372 911 372 911 345.5 895.5 c 128,-1,9
 319 880 319 880 296.5 855.5 c 128,-1,10
 274 831 274 831 255.5 801 c 128,-1,11
 237 771 237 771 224 742.5 c 128,-1,12
 211 714 211 714 203 690 c 128,-1,13
 195 666 195 666 194 654 c 0,14,15
 193 644 193 644 183.5 637.5 c 128,-1,16
 174 631 174 631 162 627.5 c 128,-1,17
 150 624 150 624 137.5 622.5 c 128,-1,18
 125 621 125 621 117 621 c 0,19,20
 106 621 106 621 96 629.5 c 128,-1,21
 86 638 86 638 86 655 c 2,22,-1
 86 953 l 2,23,24
 86 971 86 971 102 982 c 128,-1,25
 118 993 118 993 133 994 c 1,26,-1
 971 994 l 2,27,28
 983 994 983 994 994 987.5 c 128,-1,29
 1005 981 1005 981 1005 967 c 2,30,-1
 1005 943 l 2,31,32
 1005 935 1005 935 1002.5 929 c 128,-1,33
 1000 923 1000 923 995 915 c 2,34,-1
 448 85 l 1,35,-1
 711 93 l 2,36,37
 738 94 738 94 762 109 c 128,-1,38
 786 124 786 124 806.5 147.5 c 128,-1,39
 827 171 827 171 843.5 199.5 c 128,-1,40
 860 228 860 228 872 255 c 128,-1,41
 884 282 884 282 891 305 c 128,-1,42
 898 328 898 328 899 340 c 0,43,44
 900 350 900 350 911 356 c 128,-1,45
 922 362 922 362 936 366 c 128,-1,46
 950 370 950 370 964 371.5 c 128,-1,47
 978 373 978 373 986 373 c 0,48,49
 997 373 997 373 1007 364.5 c 128,-1,50
 1017 356 1017 356 1017 339 c 2,51,-1
 1017 41 l 2,52,53
 1017 21 1017 21 1001 11 c 128,-1,54
 985 1 985 1 970 0 c 1,55,-1
 73 0 l 2,56,57
 61 0 61 0 55 5 c 128,-1,58
 49 10 49 10 49 24 c 2,59,-1
 49 40 l 2,0,1
EndSplineSet
EndChar

StartChar: braceleft
Encoding: 123 123 94
Width: 1024
GlyphClass: 2
Flags: W
LayerCount: 2
Fore
SplineSet
361 358 m 2,0,1
 361 399 361 399 341.5 434.5 c 128,-1,2
 322 470 322 470 291 496.5 c 128,-1,3
 260 523 260 523 220.5 538.5 c 128,-1,4
 181 554 181 554 142 554 c 2,5,-1
 122 554 l 1,6,-1
 122 654 l 1,7,-1
 142 654 l 2,8,9
 181 654 181 654 220.5 669.5 c 128,-1,10
 260 685 260 685 291 711.5 c 128,-1,11
 322 738 322 738 341.5 773.5 c 128,-1,12
 361 809 361 809 361 850 c 2,13,-1
 361 1237 l 2,14,15
 361 1293 361 1293 379.5 1336.5 c 128,-1,16
 398 1380 398 1380 429 1413 c 128,-1,17
 460 1446 460 1446 502 1469.5 c 128,-1,18
 544 1493 544 1493 590 1508 c 128,-1,19
 636 1523 636 1523 684.5 1529.5 c 128,-1,20
 733 1536 733 1536 778 1536 c 2,21,-1
 951 1536 l 1,22,-1
 951 1429 l 1,23,-1
 838 1429 l 2,24,25
 797 1429 797 1429 769 1413.5 c 128,-1,26
 741 1398 741 1398 724 1373 c 128,-1,27
 707 1348 707 1348 699.5 1318 c 128,-1,28
 692 1288 692 1288 692 1260 c 2,29,-1
 692 883 l 2,30,31
 692 823 692 823 662.5 775.5 c 128,-1,32
 633 728 633 728 583.5 694 c 128,-1,33
 534 660 534 660 470.5 641 c 128,-1,34
 407 622 407 622 340 618 c 1,35,-1
 340 587 l 1,36,37
 409 584 409 584 472.5 565.5 c 128,-1,38
 536 547 536 547 585 514 c 128,-1,39
 634 481 634 481 663 433.5 c 128,-1,40
 692 386 692 386 692 325 c 2,41,-1
 692 -52 l 2,42,43
 692 -81 692 -81 699.5 -110.5 c 128,-1,44
 707 -140 707 -140 724.5 -165 c 128,-1,45
 742 -190 742 -190 769.5 -205.5 c 128,-1,46
 797 -221 797 -221 838 -221 c 2,47,-1
 951 -221 l 1,48,-1
 951 -328 l 1,49,-1
 778 -328 l 2,50,51
 733 -328 733 -328 684.5 -321.5 c 128,-1,52
 636 -315 636 -315 590 -300 c 128,-1,53
 544 -285 544 -285 502 -261.5 c 128,-1,54
 460 -238 460 -238 429 -205 c 128,-1,55
 398 -172 398 -172 379.5 -128.5 c 128,-1,56
 361 -85 361 -85 361 -29 c 2,57,-1
 361 358 l 2,0,1
EndSplineSet
EndChar

StartChar: bar
Encoding: 124 124 95
Width: 795
GlyphClass: 2
Flags: W
LayerCount: 2
Fore
SplineSet
320 1535 m 1,0,-1
 475 1535 l 1,1,-1
 475 -367 l 1,2,-1
 320 -367 l 1,3,-1
 320 1535 l 1,0,-1
EndSplineSet
EndChar

StartChar: asciitilde
Encoding: 126 126 97
Width: 1440
GlyphClass: 2
Flags: W
LayerCount: 2
Fore
SplineSet
303 408 m 1,0,1
 292 406 292 406 276.5 418.5 c 128,-1,2
 261 431 261 431 250 446 c 0,3,4
 243 456 243 456 243 477 c 128,-1,5
 243 498 243 498 249 508 c 0,6,7
 260 526 260 526 269.5 542 c 128,-1,8
 279 558 279 558 289.5 572.5 c 128,-1,9
 300 587 300 587 311.5 601 c 128,-1,10
 323 615 323 615 338 630 c 1,11,12
 353 648 353 648 375.5 665.5 c 128,-1,13
 398 683 398 683 424 696 c 128,-1,14
 450 709 450 709 477 717 c 128,-1,15
 504 725 504 725 529 725 c 0,16,17
 570 725 570 725 604 715.5 c 128,-1,18
 638 706 638 706 669.5 691.5 c 128,-1,19
 701 677 701 677 732 660.5 c 128,-1,20
 763 644 763 644 797 629 c 1,21,22
 853 601 853 601 896.5 596 c 128,-1,23
 940 591 940 591 973.5 599.5 c 128,-1,24
 1007 608 1007 608 1032.5 626 c 128,-1,25
 1058 644 1058 644 1077 663.5 c 128,-1,26
 1096 683 1096 683 1111 700 c 128,-1,27
 1126 717 1126 717 1139 722 c 1,28,29
 1150 724 1150 724 1165.5 711.5 c 128,-1,30
 1181 699 1181 699 1192 684 c 0,31,32
 1195 679 1195 679 1195 670.5 c 128,-1,33
 1195 662 1195 662 1193 653 c 128,-1,34
 1191 644 1191 644 1188 635.5 c 128,-1,35
 1185 627 1185 627 1183 622 c 0,36,37
 1169 585 1169 585 1151.5 552.5 c 128,-1,38
 1134 520 1134 520 1104 490 c 1,39,40
 1089 472 1089 472 1066 456 c 128,-1,41
 1043 440 1043 440 1017 429 c 128,-1,42
 991 418 991 418 963.5 411.5 c 128,-1,43
 936 405 936 405 913 405 c 0,44,45
 870 405 870 405 834.5 414.5 c 128,-1,46
 799 424 799 424 766.5 438.5 c 128,-1,47
 734 453 734 453 702 469.5 c 128,-1,48
 670 486 670 486 635 501 c 1,49,50
 579 529 579 529 536 534 c 128,-1,51
 493 539 493 539 460.5 530.5 c 128,-1,52
 428 522 428 522 404.5 504 c 128,-1,53
 381 486 381 486 362.5 466.5 c 128,-1,54
 344 447 344 447 330 430 c 128,-1,55
 316 413 316 413 303 408 c 1,0,1
EndSplineSet
EndChar

StartChar: Aring
Encoding: 197 197 99
Width: 1552
Flags: W
LayerCount: 2
Fore
SplineSet
4 0 m 2,0,1
 -4 0 -4 0 -9 6 c 128,-1,2
 -14 12 -14 12 -16.5 20 c 128,-1,3
 -19 28 -19 28 -19.5 36.5 c 128,-1,4
 -20 45 -20 45 -20 51 c 0,5,6
 -20 71 -20 71 -9.5 78.5 c 128,-1,7
 1 86 1 86 17.5 88 c 128,-1,8
 34 90 34 90 55 90.5 c 128,-1,9
 76 91 76 91 97 97 c 128,-1,10
 118 103 118 103 137 118 c 128,-1,11
 156 133 156 133 169 165 c 2,12,-1
 672 1402 l 1,13,14
 630 1412 630 1412 593.5 1433.5 c 128,-1,15
 557 1455 557 1455 530 1485 c 128,-1,16
 503 1515 503 1515 487.5 1553 c 128,-1,17
 472 1591 472 1591 472 1636 c 0,18,19
 472 1691 472 1691 495 1735.5 c 128,-1,20
 518 1780 518 1780 556.5 1811.5 c 128,-1,21
 595 1843 595 1843 645.5 1860.5 c 128,-1,22
 696 1878 696 1878 752 1878 c 0,23,24
 807 1878 807 1878 858 1860 c 128,-1,25
 909 1842 909 1842 947.5 1810 c 128,-1,26
 986 1778 986 1778 1009 1733 c 128,-1,27
 1032 1688 1032 1688 1032 1633 c 0,28,29
 1032 1588 1032 1588 1016 1549.5 c 128,-1,30
 1000 1511 1000 1511 972.5 1481.5 c 128,-1,31
 945 1452 945 1452 907.5 1431.5 c 128,-1,32
 870 1411 870 1411 827 1401 c 1,33,-1
 1392 165 l 2,34,35
 1406 134 1406 134 1425.5 119 c 128,-1,36
 1445 104 1445 104 1466 98 c 128,-1,37
 1487 92 1487 92 1507 91.5 c 128,-1,38
 1527 91 1527 91 1543 89 c 128,-1,39
 1559 87 1559 87 1569 79 c 128,-1,40
 1579 71 1579 71 1579 51 c 0,41,42
 1579 45 1579 45 1577 36.5 c 128,-1,43
 1575 28 1575 28 1570.5 20 c 128,-1,44
 1566 12 1566 12 1559.5 6 c 128,-1,45
 1553 0 1553 0 1545 0 c 2,46,-1
 874 0 l 2,47,48
 865 0 865 0 859 6 c 128,-1,49
 853 12 853 12 848.5 20 c 128,-1,50
 844 28 844 28 842 36.5 c 128,-1,51
 840 45 840 45 840 51 c 0,52,53
 840 67 840 67 846.5 77 c 128,-1,54
 853 87 853 87 873 88 c 0,55,56
 905 89 905 89 933.5 90.5 c 128,-1,57
 962 92 962 92 983.5 94.5 c 128,-1,58
 1005 97 1005 97 1017.5 102 c 128,-1,59
 1030 107 1030 107 1030 116 c 0,60,61
 1030 127 1030 127 1025 136.5 c 128,-1,62
 1020 146 1020 146 1015 160 c 2,63,-1
 909 408 l 1,64,-1
 400 408 l 1,65,-1
 295 132 l 2,66,67
 293 128 293 128 293 120 c 0,68,69
 293 107 293 107 307 101.5 c 128,-1,70
 321 96 321 96 344.5 94 c 128,-1,71
 368 92 368 92 397.5 91.5 c 128,-1,72
 427 91 427 91 458 88 c 0,73,74
 478 86 478 86 484.5 76.5 c 128,-1,75
 491 67 491 67 491 51 c 0,76,77
 491 45 491 45 490.5 36.5 c 128,-1,78
 490 28 490 28 487.5 20 c 128,-1,79
 485 12 485 12 480.5 6 c 128,-1,80
 476 0 476 0 467 0 c 2,81,-1
 4 0 l 2,0,1
752 1498 m 256,82,83
 795 1498 795 1498 825 1508.5 c 128,-1,84
 855 1519 855 1519 874 1538 c 128,-1,85
 893 1557 893 1557 902 1582.5 c 128,-1,86
 911 1608 911 1608 911 1637 c 256,87,88
 911 1666 911 1666 902 1691 c 128,-1,89
 893 1716 893 1716 874 1734.5 c 128,-1,90
 855 1753 855 1753 825 1763.5 c 128,-1,91
 795 1774 795 1774 752 1774 c 256,92,93
 709 1774 709 1774 679 1763 c 128,-1,94
 649 1752 649 1752 630 1733.5 c 128,-1,95
 611 1715 611 1715 602.5 1689.5 c 128,-1,96
 594 1664 594 1664 594 1635 c 256,97,98
 594 1606 594 1606 602.5 1581 c 128,-1,99
 611 1556 611 1556 630 1537.5 c 128,-1,100
 649 1519 649 1519 679 1508.5 c 128,-1,101
 709 1498 709 1498 752 1498 c 256,82,83
873 494 m 1,102,-1
 641 1040 l 1,103,-1
 433 494 l 1,104,-1
 873 494 l 1,102,-1
EndSplineSet
EndChar

StartChar: Ccedilla
Encoding: 199 199 100
Width: 1464
Flags: W
LayerCount: 2
Fore
SplineSet
487 -335 m 0,0,1
 499 -328 499 -328 522 -326.5 c 128,-1,2
 545 -325 545 -325 572.5 -324.5 c 128,-1,3
 600 -324 600 -324 628.5 -322 c 128,-1,4
 657 -320 657 -320 680.5 -311.5 c 128,-1,5
 704 -303 704 -303 719 -286.5 c 128,-1,6
 734 -270 734 -270 734 -239 c 0,7,8
 734 -207 734 -207 711.5 -188 c 128,-1,9
 689 -169 689 -169 661 -159 c 0,10,11
 628 -148 628 -148 588 -145 c 1,12,-1
 592 -144 l 1,13,-1
 588 -144 l 1,14,-1
 623 -3 l 1,15,16
 510 22 510 22 409.5 74 c 128,-1,17
 309 126 309 126 234 211.5 c 128,-1,18
 159 297 159 297 115 419 c 128,-1,19
 71 541 71 541 71 706 c 0,20,21
 71 838 71 838 105 944.5 c 128,-1,22
 139 1051 139 1051 197.5 1133.5 c 128,-1,23
 256 1216 256 1216 334 1275.5 c 128,-1,24
 412 1335 412 1335 500 1373.5 c 128,-1,25
 588 1412 588 1412 680.5 1430.5 c 128,-1,26
 773 1449 773 1449 861 1449 c 0,27,28
 983 1449 983 1449 1064.5 1435 c 128,-1,29
 1146 1421 1146 1421 1199 1404.5 c 128,-1,30
 1252 1388 1252 1388 1283 1374.5 c 128,-1,31
 1314 1361 1314 1361 1334 1361 c 1,32,-1
 1356 1051 l 2,33,34
 1357 1042 1357 1042 1351 1035 c 128,-1,35
 1345 1028 1345 1028 1335.5 1023 c 128,-1,36
 1326 1018 1326 1018 1316 1015 c 128,-1,37
 1306 1012 1306 1012 1300 1011 c 0,38,39
 1292 1010 1292 1010 1277.5 1010.5 c 128,-1,40
 1263 1011 1263 1011 1248.5 1014 c 128,-1,41
 1234 1017 1234 1017 1222.5 1023 c 128,-1,42
 1211 1029 1211 1029 1209 1039 c 0,43,44
 1196 1103 1196 1103 1171.5 1160 c 128,-1,45
 1147 1217 1147 1217 1106 1260 c 128,-1,46
 1065 1303 1065 1303 1004.5 1328 c 128,-1,47
 944 1353 944 1353 859 1353 c 0,48,49
 818 1353 818 1353 772 1345.5 c 128,-1,50
 726 1338 726 1338 680.5 1315 c 128,-1,51
 635 1292 635 1292 593.5 1248.5 c 128,-1,52
 552 1205 552 1205 520 1133 c 128,-1,53
 488 1061 488 1061 469 956.5 c 128,-1,54
 450 852 450 852 450 706 c 0,55,56
 450 568 450 568 471 466.5 c 128,-1,57
 492 365 492 365 526.5 293.5 c 128,-1,58
 561 222 561 222 605.5 177.5 c 128,-1,59
 650 133 650 133 698 108 c 128,-1,60
 746 83 746 83 793.5 74 c 128,-1,61
 841 65 841 65 881 65 c 0,62,63
 957 65 957 65 1017.5 92 c 128,-1,64
 1078 119 1078 119 1122 165.5 c 128,-1,65
 1166 212 1166 212 1194 273 c 128,-1,66
 1222 334 1222 334 1233 403 c 0,67,68
 1237 423 1237 423 1250.5 429.5 c 128,-1,69
 1264 436 1264 436 1281 436 c 0,70,71
 1287 436 1287 436 1299 434 c 128,-1,72
 1311 432 1311 432 1322.5 427.5 c 128,-1,73
 1334 423 1334 423 1343 417 c 128,-1,74
 1352 411 1352 411 1352 402 c 1,75,-1
 1319 108 l 2,76,77
 1317 97 1317 97 1282 74.5 c 128,-1,78
 1247 52 1247 52 1188 28.5 c 128,-1,79
 1129 5 1129 5 1050 -12.5 c 128,-1,80
 971 -30 971 -30 882 -30 c 0,81,82
 842 -30 842 -30 805 -27 c 1,83,-1
 805 -107 l 1,84,85
 846 -112 846 -112 883.5 -125 c 128,-1,86
 921 -138 921 -138 949.5 -158 c 128,-1,87
 978 -178 978 -178 995 -203.5 c 128,-1,88
 1012 -229 1012 -229 1012 -258 c 0,89,90
 1012 -306 1012 -306 990 -339.5 c 128,-1,91
 968 -373 968 -373 927.5 -394.5 c 128,-1,92
 887 -416 887 -416 828.5 -426 c 128,-1,93
 770 -436 770 -436 698 -436 c 0,94,95
 657 -436 657 -436 629 -433.5 c 128,-1,96
 601 -431 601 -431 579.5 -426.5 c 128,-1,97
 558 -422 558 -422 540 -417.5 c 128,-1,98
 522 -413 522 -413 501 -408 c 0,99,100
 490 -406 490 -406 480.5 -398 c 128,-1,101
 471 -390 471 -390 471 -379 c 0,102,103
 471 -359 471 -359 473.5 -350.5 c 128,-1,104
 476 -342 476 -342 487 -335 c 0,0,1
EndSplineSet
EndChar

StartChar: ccedilla
Encoding: 231 231 111
Width: 1087
Flags: W
LayerCount: 2
Fore
SplineSet
476 -14 m 1,0,1
 367 5 367 5 288.5 49.5 c 128,-1,2
 210 94 210 94 160 160 c 128,-1,3
 110 226 110 226 86 311.5 c 128,-1,4
 62 397 62 397 62 500 c 0,5,6
 62 625 62 625 109.5 721 c 128,-1,7
 157 817 157 817 238 882 c 128,-1,8
 319 947 319 947 426.5 980.5 c 128,-1,9
 534 1014 534 1014 654 1014 c 0,10,11
 731 1014 731 1014 791.5 1004 c 128,-1,12
 852 994 852 994 897.5 971.5 c 128,-1,13
 943 949 943 949 973.5 912.5 c 128,-1,14
 1004 876 1004 876 1022 824 c 0,15,16
 1041 766 1041 766 1032.5 726 c 128,-1,17
 1024 686 1024 686 1001.5 661 c 128,-1,18
 979 636 979 636 950 624.5 c 128,-1,19
 921 613 921 613 900 613 c 0,20,21
 865 613 865 613 845 618.5 c 128,-1,22
 825 624 825 624 817 642 c 2,23,-1
 686 912 l 1,24,25
 687 916 687 916 680 920 c 0,26,27
 674 923 674 923 659.5 926 c 128,-1,28
 645 929 645 929 616 929 c 0,29,30
 574 929 574 929 536.5 906 c 128,-1,31
 499 883 499 883 470 831.5 c 128,-1,32
 441 780 441 780 424 696 c 128,-1,33
 407 612 407 612 407 490 c 0,34,35
 407 383 407 383 433.5 309.5 c 128,-1,36
 460 236 460 236 500.5 190.5 c 128,-1,37
 541 145 541 145 589 125 c 128,-1,38
 637 105 637 105 681 105 c 0,39,40
 775 105 775 105 841 131 c 128,-1,41
 907 157 907 157 955 208 c 0,42,43
 960 213 960 213 965.5 219 c 128,-1,44
 971 225 971 225 981 223 c 1,45,-1
 1025 202 l 2,46,47
 1035 197 1035 197 1035 190.5 c 128,-1,48
 1035 184 1035 184 1029 173 c 0,49,50
 1004 128 1004 128 961.5 91.5 c 128,-1,51
 919 55 919 55 868.5 28.5 c 128,-1,52
 818 2 818 2 763.5 -13 c 128,-1,53
 709 -28 709 -28 661 -29 c 1,54,-1
 661 -107 l 1,55,56
 702 -112 702 -112 739.5 -125 c 128,-1,57
 777 -138 777 -138 805.5 -158 c 128,-1,58
 834 -178 834 -178 851 -203.5 c 128,-1,59
 868 -229 868 -229 868 -258 c 0,60,61
 868 -306 868 -306 846 -339.5 c 128,-1,62
 824 -373 824 -373 783.5 -394.5 c 128,-1,63
 743 -416 743 -416 684.5 -426 c 128,-1,64
 626 -436 626 -436 554 -436 c 0,65,66
 513 -436 513 -436 485 -433.5 c 128,-1,67
 457 -431 457 -431 435.5 -426.5 c 128,-1,68
 414 -422 414 -422 396 -417.5 c 128,-1,69
 378 -413 378 -413 357 -408 c 0,70,71
 346 -406 346 -406 336.5 -398 c 128,-1,72
 327 -390 327 -390 327 -379 c 0,73,74
 327 -359 327 -359 329.5 -350.5 c 128,-1,75
 332 -342 332 -342 343 -335 c 0,76,77
 355 -328 355 -328 378 -326.5 c 128,-1,78
 401 -325 401 -325 428.5 -324.5 c 128,-1,79
 456 -324 456 -324 484.5 -322 c 128,-1,80
 513 -320 513 -320 536.5 -311.5 c 128,-1,81
 560 -303 560 -303 575 -286.5 c 128,-1,82
 590 -270 590 -270 590 -239 c 0,83,84
 590 -207 590 -207 567.5 -188 c 128,-1,85
 545 -169 545 -169 517 -159 c 0,86,87
 484 -148 484 -148 444 -145 c 1,88,-1
 448 -144 l 1,89,-1
 444 -144 l 1,90,-1
 476 -14 l 1,0,1
EndSplineSet
EndChar

StartChar: dagger
Encoding: 8224 8224 130
Width: 987
GlyphClass: 2
Flags: W
LayerCount: 2
Fore
SplineSet
395 117 m 0,0,1
 395 122 395 122 397 162 c 128,-1,2
 399 202 399 202 402 265 c 128,-1,3
 405 328 405 328 409.5 407.5 c 128,-1,4
 414 487 414 487 418.5 570 c 128,-1,5
 423 653 423 653 427.5 734.5 c 128,-1,6
 432 816 432 816 436 882.5 c 128,-1,7
 440 949 440 949 443 994.5 c 128,-1,8
 446 1040 446 1040 447 1053 c 1,9,10
 433 1050 433 1050 410.5 1045 c 128,-1,11
 388 1040 388 1040 361.5 1033 c 128,-1,12
 335 1026 335 1026 307.5 1019 c 128,-1,13
 280 1012 280 1012 255.5 1006 c 128,-1,14
 231 1000 231 1000 213 996 c 128,-1,15
 195 992 195 992 189 992 c 0,16,17
 139 992 139 992 105.5 1021.5 c 128,-1,18
 72 1051 72 1051 72 1101 c 256,19,20
 72 1151 72 1151 105.5 1176 c 128,-1,21
 139 1201 139 1201 189 1201 c 0,22,23
 199 1201 199 1201 232.5 1191.5 c 128,-1,24
 266 1182 266 1182 306.5 1169.5 c 128,-1,25
 347 1157 347 1157 386 1145 c 128,-1,26
 425 1133 425 1133 446 1129 c 1,27,28
 443 1144 443 1144 437.5 1170.5 c 128,-1,29
 432 1197 432 1197 425 1229.5 c 128,-1,30
 418 1262 418 1262 411 1296.5 c 128,-1,31
 404 1331 404 1331 398 1360.5 c 128,-1,32
 392 1390 392 1390 388 1411.5 c 128,-1,33
 384 1433 384 1433 384 1440 c 0,34,35
 384 1490 384 1490 414 1523.5 c 128,-1,36
 444 1557 444 1557 495 1557 c 0,37,38
 544 1557 544 1557 574.5 1523.5 c 128,-1,39
 605 1490 605 1490 605 1440 c 0,40,41
 605 1433 605 1433 601 1411.5 c 128,-1,42
 597 1390 597 1390 590.5 1360.5 c 128,-1,43
 584 1331 584 1331 576.5 1296.5 c 128,-1,44
 569 1262 569 1262 561.5 1230 c 128,-1,45
 554 1198 554 1198 548.5 1171 c 128,-1,46
 543 1144 543 1144 541 1129 c 1,47,48
 555 1132 555 1132 577.5 1138.5 c 128,-1,49
 600 1145 600 1145 626 1153 c 128,-1,50
 652 1161 652 1161 680 1169.5 c 128,-1,51
 708 1178 708 1178 732 1185 c 128,-1,52
 756 1192 756 1192 774 1196.5 c 128,-1,53
 792 1201 792 1201 799 1201 c 0,54,55
 848 1201 848 1201 881.5 1176 c 128,-1,56
 915 1151 915 1151 915 1101 c 256,57,58
 915 1051 915 1051 881.5 1021.5 c 128,-1,59
 848 992 848 992 799 992 c 0,60,61
 788 992 788 992 754.5 1000 c 128,-1,62
 721 1008 721 1008 680 1018.5 c 128,-1,63
 639 1029 639 1029 600 1039 c 128,-1,64
 561 1049 561 1049 540 1053 c 1,65,66
 541 1040 541 1040 544 994.5 c 128,-1,67
 547 949 547 949 551 882.5 c 128,-1,68
 555 816 555 816 559.5 734.5 c 128,-1,69
 564 653 564 653 569 570 c 128,-1,70
 574 487 574 487 578 407.5 c 128,-1,71
 582 328 582 328 585.5 265 c 128,-1,72
 589 202 589 202 591 162 c 128,-1,73
 593 122 593 122 593 117 c 0,74,75
 593 67 593 67 568.5 33.5 c 128,-1,76
 544 0 544 0 495 0 c 0,77,78
 444 0 444 0 419.5 33.5 c 128,-1,79
 395 67 395 67 395 117 c 0,0,1
EndSplineSet
EndChar

StartChar: degree
Encoding: 176 176 131
Width: 860
GlyphClass: 2
Flags: W
LayerCount: 2
Fore
SplineSet
429 774 m 256,0,1
 353 774 353 774 290.5 798.5 c 128,-1,2
 228 823 228 823 183.5 868 c 128,-1,3
 139 913 139 913 114.5 975.5 c 128,-1,4
 90 1038 90 1038 90 1113 c 256,5,6
 90 1188 90 1188 115 1250.5 c 128,-1,7
 140 1313 140 1313 185.5 1357 c 128,-1,8
 231 1401 231 1401 294 1425.5 c 128,-1,9
 357 1450 357 1450 433 1450 c 256,10,11
 509 1450 509 1450 571 1425.5 c 128,-1,12
 633 1401 633 1401 677 1357 c 128,-1,13
 721 1313 721 1313 745.5 1250.5 c 128,-1,14
 770 1188 770 1188 770 1113 c 256,15,16
 770 1038 770 1038 745 975.5 c 128,-1,17
 720 913 720 913 675 868 c 128,-1,18
 630 823 630 823 567.5 798.5 c 128,-1,19
 505 774 505 774 429 774 c 256,0,1
431 884 m 256,20,21
 470 884 470 884 504 898.5 c 128,-1,22
 538 913 538 913 563.5 941.5 c 128,-1,23
 589 970 589 970 603.5 1013 c 128,-1,24
 618 1056 618 1056 618 1113 c 256,25,26
 618 1170 618 1170 603 1213 c 128,-1,27
 588 1256 588 1256 562 1284 c 128,-1,28
 536 1312 536 1312 501.5 1326 c 128,-1,29
 467 1340 467 1340 428 1340 c 256,30,31
 389 1340 389 1340 355.5 1326 c 128,-1,32
 322 1312 322 1312 296.5 1284 c 128,-1,33
 271 1256 271 1256 256.5 1213 c 128,-1,34
 242 1170 242 1170 242 1113 c 256,35,36
 242 1056 242 1056 257 1013 c 128,-1,37
 272 970 272 970 297.5 941.5 c 128,-1,38
 323 913 323 913 357.5 898.5 c 128,-1,39
 392 884 392 884 431 884 c 256,20,21
EndSplineSet
EndChar

StartChar: cent
Encoding: 162 162 132
Width: 1239
GlyphClass: 2
Flags: W
LayerCount: 2
Fore
SplineSet
119 500 m 0,0,1
 119 615 119 615 159.5 706 c 128,-1,2
 200 797 200 797 270 861.5 c 128,-1,3
 340 926 340 926 434.5 963.5 c 128,-1,4
 529 1001 529 1001 637 1010 c 1,5,-1
 637 1225 l 1,6,-1
 753 1225 l 1,7,-1
 753 1013 l 1,8,9
 888 1008 888 1008 967 964.5 c 128,-1,10
 1046 921 1046 921 1079 824 c 0,11,12
 1098 766 1098 766 1089.5 726 c 128,-1,13
 1081 686 1081 686 1058.5 661 c 128,-1,14
 1036 636 1036 636 1007 624.5 c 128,-1,15
 978 613 978 613 957 613 c 0,16,17
 922 613 922 613 902 618.5 c 128,-1,18
 882 624 882 624 874 642 c 2,19,-1
 743 912 l 1,20,21
 744 916 744 916 737 920 c 0,22,23
 731 923 731 923 716.5 926 c 128,-1,24
 702 929 702 929 673 929 c 0,25,26
 631 929 631 929 593.5 906 c 128,-1,27
 556 883 556 883 527 831.5 c 128,-1,28
 498 780 498 780 481 696 c 128,-1,29
 464 612 464 612 464 490 c 0,30,31
 464 383 464 383 490.5 309.5 c 128,-1,32
 517 236 517 236 557.5 190.5 c 128,-1,33
 598 145 598 145 646 125 c 128,-1,34
 694 105 694 105 738 105 c 0,35,36
 832 105 832 105 898 131 c 128,-1,37
 964 157 964 157 1012 208 c 0,38,39
 1017 213 1017 213 1022.5 219 c 128,-1,40
 1028 225 1028 225 1038 223 c 1,41,-1
 1082 202 l 2,42,43
 1092 197 1092 197 1092 190.5 c 128,-1,44
 1092 184 1092 184 1086 173 c 0,45,46
 1063 132 1063 132 1025.5 97.5 c 128,-1,47
 988 63 988 63 942.5 37.5 c 128,-1,48
 897 12 897 12 847 -4.5 c 128,-1,49
 797 -21 797 -21 751 -26 c 1,50,-1
 751 -228 l 1,51,-1
 635 -228 l 1,52,-1
 635 -26 l 1,53,54
 498 -17 498 -17 400.5 23.5 c 128,-1,55
 303 64 303 64 240.5 132 c 128,-1,56
 178 200 178 200 148.5 293 c 128,-1,57
 119 386 119 386 119 500 c 0,0,1
EndSplineSet
EndChar

StartChar: sterling
Encoding: 163 163 133
Width: 1413
GlyphClass: 2
Flags: W
LayerCount: 2
Fore
SplineSet
45 92 m 0,0,1
 45 132 45 132 68 161 c 128,-1,2
 91 190 91 190 126 208.5 c 128,-1,3
 161 227 161 227 203 236 c 128,-1,4
 245 245 245 245 283 247 c 1,5,6
 303 292 303 292 307 353 c 128,-1,7
 311 414 311 414 311 473 c 2,8,-1
 311 672 l 1,9,-1
 143 672 l 2,10,11
 137 672 137 672 132.5 678.5 c 128,-1,12
 128 685 128 685 125 693.5 c 128,-1,13
 122 702 122 702 120.5 711 c 128,-1,14
 119 720 119 720 119 726 c 0,15,16
 119 745 119 745 125.5 759.5 c 128,-1,17
 132 774 132 774 143 779 c 1,18,-1
 311 779 l 1,19,-1
 311 871 l 2,20,21
 311 997 311 997 338 1103 c 128,-1,22
 365 1209 365 1209 429 1285.5 c 128,-1,23
 493 1362 493 1362 598.5 1405 c 128,-1,24
 704 1448 704 1448 861 1448 c 0,25,26
 970 1448 970 1448 1045.5 1417.5 c 128,-1,27
 1121 1387 1121 1387 1167.5 1345 c 128,-1,28
 1214 1303 1214 1303 1235 1259.5 c 128,-1,29
 1256 1216 1256 1216 1256 1190 c 0,30,31
 1256 1156 1256 1156 1232 1127.5 c 128,-1,32
 1208 1099 1208 1099 1173 1079.5 c 128,-1,33
 1138 1060 1138 1060 1099 1052.5 c 128,-1,34
 1060 1045 1060 1045 1031 1053 c 1,35,36
 1025 1056 1025 1056 1012 1073.5 c 128,-1,37
 999 1091 999 1091 982 1117.5 c 128,-1,38
 965 1144 965 1144 946 1175.5 c 128,-1,39
 927 1207 927 1207 908 1239.5 c 128,-1,40
 889 1272 889 1272 872.5 1301.5 c 128,-1,41
 856 1331 856 1331 844 1352 c 1,42,43
 832 1356 832 1356 817 1356 c 0,44,45
 770 1356 770 1356 737 1331 c 128,-1,46
 704 1306 704 1306 683 1249.5 c 128,-1,47
 662 1193 662 1193 652.5 1100.5 c 128,-1,48
 643 1008 643 1008 643 873 c 2,49,-1
 643 779 l 1,50,-1
 916 779 l 1,51,52
 928 778 928 778 934 767.5 c 128,-1,53
 940 757 940 757 940 745 c 0,54,55
 940 736 940 736 938 724 c 128,-1,56
 936 712 936 712 933 701.5 c 128,-1,57
 930 691 930 691 925.5 682.5 c 128,-1,58
 921 674 921 674 916 672 c 1,59,-1
 644 672 l 1,60,-1
 644 603 l 2,61,62
 644 529 644 529 634 469 c 128,-1,63
 624 409 624 409 607.5 361.5 c 128,-1,64
 591 314 591 314 569.5 279.5 c 128,-1,65
 548 245 548 245 526 223 c 1,66,67
 572 205 572 205 605 185.5 c 128,-1,68
 638 166 638 166 670.5 149.5 c 128,-1,69
 703 133 703 133 740.5 122 c 128,-1,70
 778 111 778 111 835 108 c 0,71,72
 960 103 960 103 1021 134.5 c 128,-1,73
 1082 166 1082 166 1096 230 c 1,74,75
 1072 287 1072 287 1053.5 337.5 c 128,-1,76
 1035 388 1035 388 1024 418 c 1,77,78
 1024 428 1024 428 1043 451 c 128,-1,79
 1062 474 1062 474 1095 491 c 128,-1,80
 1128 508 1128 508 1173.5 510.5 c 128,-1,81
 1219 513 1219 513 1272 482 c 0,82,83
 1306 462 1306 462 1325 431.5 c 128,-1,84
 1344 401 1344 401 1349.5 361.5 c 128,-1,85
 1355 322 1355 322 1348 275 c 128,-1,86
 1341 228 1341 228 1323 176 c 0,87,88
 1310 139 1310 139 1274.5 104.5 c 128,-1,89
 1239 70 1239 70 1184.5 43 c 128,-1,90
 1130 16 1130 16 1059 0 c 128,-1,91
 988 -16 988 -16 904 -16 c 0,92,93
 827 -16 827 -16 768 -5 c 128,-1,94
 709 6 709 6 663 22.5 c 128,-1,95
 617 39 617 39 583 57 c 128,-1,96
 549 75 549 75 521.5 90 c 128,-1,97
 494 105 494 105 472 113.5 c 128,-1,98
 450 122 450 122 428 118 c 1,99,100
 417 106 417 106 397 86 c 128,-1,101
 377 66 377 66 345 47 c 128,-1,102
 313 28 313 28 268 14 c 128,-1,103
 223 0 223 0 163 0 c 0,104,105
 149 0 149 0 129 3 c 128,-1,106
 109 6 109 6 90 16 c 128,-1,107
 71 26 71 26 58 44 c 128,-1,108
 45 62 45 62 45 92 c 0,0,1
EndSplineSet
EndChar

StartChar: section
Encoding: 167 167 134
Width: 1153
GlyphClass: 2
Flags: W
LayerCount: 2
Fore
SplineSet
211 -152 m 1,0,1
 207 -123 207 -123 219 -100.5 c 128,-1,2
 231 -78 231 -78 252.5 -62 c 128,-1,3
 274 -46 274 -46 301 -36 c 128,-1,4
 328 -26 328 -26 354.5 -21.5 c 128,-1,5
 381 -17 381 -17 403 -18 c 128,-1,6
 425 -19 425 -19 436 -24 c 1,7,8
 445 -30 445 -30 457 -51.5 c 128,-1,9
 469 -73 469 -73 483 -103 c 128,-1,10
 497 -133 497 -133 513 -168 c 128,-1,11
 529 -203 529 -203 546 -236 c 1,12,13
 612 -231 612 -231 646 -187.5 c 128,-1,14
 680 -144 680 -144 677 -70 c 1,15,16
 674 -37 674 -37 652 -4 c 128,-1,17
 630 29 630 29 593.5 63 c 128,-1,18
 557 97 557 97 510.5 132 c 128,-1,19
 464 167 464 167 413.5 204.5 c 128,-1,20
 363 242 363 242 311 283 c 128,-1,21
 259 324 259 324 213 369 c 1,22,23
 188 396 188 396 170.5 423.5 c 128,-1,24
 153 451 153 451 142 480 c 128,-1,25
 131 509 131 509 126 542.5 c 128,-1,26
 121 576 121 576 121 615 c 0,27,28
 121 649 121 649 134 687.5 c 128,-1,29
 147 726 147 726 173.5 765 c 128,-1,30
 200 804 200 804 240.5 842.5 c 128,-1,31
 281 881 281 881 337 916 c 1,32,33
 288 967 288 967 256 1019.5 c 128,-1,34
 224 1072 224 1072 220 1128 c 1,35,36
 213 1204 213 1204 243 1263.5 c 128,-1,37
 273 1323 273 1323 330 1364.5 c 128,-1,38
 387 1406 387 1406 466.5 1427.5 c 128,-1,39
 546 1449 546 1449 639 1449 c 0,40,41
 714 1449 714 1449 773.5 1432 c 128,-1,42
 833 1415 833 1415 875 1389.5 c 128,-1,43
 917 1364 917 1364 939.5 1334 c 128,-1,44
 962 1304 962 1304 964 1278 c 1,45,46
 964 1234 964 1234 936.5 1205.5 c 128,-1,47
 909 1177 909 1177 872.5 1162 c 128,-1,48
 836 1147 836 1147 800.5 1144.5 c 128,-1,49
 765 1142 765 1142 749 1150 c 0,50,51
 739 1156 739 1156 727 1176.5 c 128,-1,52
 715 1197 715 1197 701 1225.5 c 128,-1,53
 687 1254 687 1254 670.5 1288.5 c 128,-1,54
 654 1323 654 1323 636 1356 c 1,55,56
 563 1351 563 1351 522.5 1303 c 128,-1,57
 482 1255 482 1255 491 1180 c 1,58,59
 493 1147 493 1147 514.5 1113.5 c 128,-1,60
 536 1080 536 1080 570.5 1046 c 128,-1,61
 605 1012 605 1012 649 976.5 c 128,-1,62
 693 941 693 941 741.5 903.5 c 128,-1,63
 790 866 790 866 840 825.5 c 128,-1,64
 890 785 890 785 935 741 c 1,65,66
 960 714 960 714 977.5 686.5 c 128,-1,67
 995 659 995 659 1006 630 c 128,-1,68
 1017 601 1017 601 1022 567.5 c 128,-1,69
 1027 534 1027 534 1027 495 c 0,70,71
 1027 426 1027 426 974.5 346 c 128,-1,72
 922 266 922 266 816 197 c 1,73,74
 864 145 864 145 894 91.5 c 128,-1,75
 924 38 924 38 928 -18 c 0,76,77
 933 -94 933 -94 904.5 -153.5 c 128,-1,78
 876 -213 876 -213 821.5 -254.5 c 128,-1,79
 767 -296 767 -296 690.5 -317.5 c 128,-1,80
 614 -339 614 -339 523 -339 c 0,81,82
 452 -339 452 -339 395 -319.5 c 128,-1,83
 338 -300 338 -300 297.5 -271.5 c 128,-1,84
 257 -243 257 -243 234.5 -210.5 c 128,-1,85
 212 -178 212 -178 211 -152 c 1,0,1
488 488 m 0,86,87
 543 440 543 440 605.5 389.5 c 128,-1,88
 668 339 668 339 726 286 c 1,89,90
 742 311 742 311 755 338.5 c 128,-1,91
 768 366 768 366 768 396 c 0,92,93
 768 433 768 433 758.5 465.5 c 128,-1,94
 749 498 749 498 733.5 526 c 128,-1,95
 718 554 718 554 698.5 578 c 128,-1,96
 679 602 679 602 660 622 c 0,97,98
 608 676 608 676 546.5 727.5 c 128,-1,99
 485 779 485 779 426 831 c 1,100,101
 409 807 409 807 394.5 779 c 128,-1,102
 380 751 380 751 380 714 c 0,103,104
 380 639 380 639 410.5 584 c 128,-1,105
 441 529 441 529 488 488 c 0,86,87
EndSplineSet
EndChar

StartChar: bullet
Encoding: 8226 8226 135
Width: 895
GlyphClass: 2
Flags: W
LayerCount: 2
Fore
SplineSet
447 246 m 256,0,1
 378 246 378 246 320 269 c 128,-1,2
 262 292 262 292 220 334.5 c 128,-1,3
 178 377 178 377 154.5 437.5 c 128,-1,4
 131 498 131 498 131 573 c 256,5,6
 131 648 131 648 154.5 708.5 c 128,-1,7
 178 769 178 769 220 811.5 c 128,-1,8
 262 854 262 854 320 877 c 128,-1,9
 378 900 378 900 447 900 c 256,10,11
 516 900 516 900 574 877 c 128,-1,12
 632 854 632 854 674.5 811.5 c 128,-1,13
 717 769 717 769 740.5 708.5 c 128,-1,14
 764 648 764 648 764 573 c 256,15,16
 764 498 764 498 740.5 437.5 c 128,-1,17
 717 377 717 377 674.5 334.5 c 128,-1,18
 632 292 632 292 574 269 c 128,-1,19
 516 246 516 246 447 246 c 256,0,1
EndSplineSet
EndChar

StartChar: paragraph
Encoding: 182 182 136
Width: 1124
GlyphClass: 2
Flags: W
LayerCount: 2
Fore
SplineSet
218 -199 m 0,0,1
 242 -197 242 -197 268.5 -194 c 128,-1,2
 295 -191 295 -191 317.5 -181 c 128,-1,3
 340 -171 340 -171 355 -152.5 c 128,-1,4
 370 -134 370 -134 370 -102 c 2,5,-1
 369 575 l 1,6,7
 295 595 295 595 235.5 634 c 128,-1,8
 176 673 176 673 134.5 727.5 c 128,-1,9
 93 782 93 782 70.5 851 c 128,-1,10
 48 920 48 920 48 1000 c 0,11,12
 48 1117 48 1117 85.5 1197 c 128,-1,13
 123 1277 123 1277 184.5 1327 c 128,-1,14
 246 1377 246 1377 326 1399 c 128,-1,15
 406 1421 406 1421 490 1421 c 2,16,-1
 705 1419 l 1,17,-1
 1013 1419 l 2,18,19
 1022 1419 1022 1419 1028 1413 c 128,-1,20
 1034 1407 1034 1407 1038.5 1399 c 128,-1,21
 1043 1391 1043 1391 1045 1382.5 c 128,-1,22
 1047 1374 1047 1374 1047 1368 c 0,23,24
 1047 1345 1047 1345 1039.5 1339 c 128,-1,25
 1032 1333 1032 1333 1011 1331 c 0,26,27
 988 1329 988 1329 966 1326 c 128,-1,28
 944 1323 944 1323 927 1313 c 128,-1,29
 910 1303 910 1303 899.5 1284.5 c 128,-1,30
 889 1266 889 1266 889 1234 c 2,31,-1
 889 -135 l 2,32,33
 889 -152 889 -152 903 -163 c 128,-1,34
 917 -174 917 -174 938 -181.5 c 128,-1,35
 959 -189 959 -189 985 -193 c 128,-1,36
 1011 -197 1011 -197 1035 -199 c 0,37,38
 1055 -201 1055 -201 1061.5 -210.5 c 128,-1,39
 1068 -220 1068 -220 1068 -236 c 0,40,41
 1068 -242 1068 -242 1066 -250.5 c 128,-1,42
 1064 -259 1064 -259 1059.5 -267 c 128,-1,43
 1055 -275 1055 -275 1049 -281 c 128,-1,44
 1043 -287 1043 -287 1034 -287 c 2,45,-1
 722 -287 l 1,46,-1
 722 1302 l 1,47,-1
 542 1302 l 1,48,-1
 542 -287 l 1,49,-1
 216 -287 l 2,50,51
 207 -287 207 -287 201 -281 c 128,-1,52
 195 -275 195 -275 190.5 -267 c 128,-1,53
 186 -259 186 -259 184 -250.5 c 128,-1,54
 182 -242 182 -242 182 -236 c 0,55,56
 182 -213 182 -213 189.5 -207 c 128,-1,57
 197 -201 197 -201 218 -199 c 0,0,1
EndSplineSet
EndChar

StartChar: germandbls
Encoding: 223 223 137
Width: 1348
GlyphClass: 2
Flags: W
LayerCount: 2
Fore
SplineSet
27 51 m 0,0,1
 27 67 27 67 33.5 76.5 c 128,-1,2
 40 86 40 86 60 88 c 0,3,4
 78 90 78 90 96.5 94 c 128,-1,5
 115 98 115 98 129 105.5 c 128,-1,6
 143 113 143 113 152 124 c 128,-1,7
 161 135 161 135 161 152 c 2,8,-1
 161 1031 l 2,9,10
 161 1142 161 1142 200 1238 c 128,-1,11
 239 1334 239 1334 314 1405.5 c 128,-1,12
 389 1477 389 1477 499 1518 c 128,-1,13
 609 1559 609 1559 751 1559 c 0,14,15
 838 1559 838 1559 917.5 1548 c 128,-1,16
 997 1537 997 1537 1057.5 1509.5 c 128,-1,17
 1118 1482 1118 1482 1154 1436 c 128,-1,18
 1190 1390 1190 1390 1190 1320 c 0,19,20
 1190 1253 1190 1253 1166.5 1208 c 128,-1,21
 1143 1163 1143 1163 1108 1131.5 c 128,-1,22
 1073 1100 1073 1100 1032.5 1078 c 128,-1,23
 992 1056 992 1056 957 1035 c 128,-1,24
 922 1014 922 1014 898.5 988.5 c 128,-1,25
 875 963 875 963 875 926 c 0,26,27
 875 900 875 900 908 876 c 128,-1,28
 941 852 941 852 990.5 823 c 128,-1,29
 1040 794 1040 794 1098 756 c 128,-1,30
 1156 718 1156 718 1205.5 665 c 128,-1,31
 1255 612 1255 612 1288 539 c 128,-1,32
 1321 466 1321 466 1321 367 c 0,33,34
 1321 292 1321 292 1300.5 234 c 128,-1,35
 1280 176 1280 176 1246.5 133 c 128,-1,36
 1213 90 1213 90 1168.5 61 c 128,-1,37
 1124 32 1124 32 1076.5 14 c 128,-1,38
 1029 -4 1029 -4 981 -11.5 c 128,-1,39
 933 -19 933 -19 891 -19 c 0,40,41
 727 -19 727 -19 652 33.5 c 128,-1,42
 577 86 577 86 577 180 c 0,43,44
 577 210 577 210 588.5 232.5 c 128,-1,45
 600 255 600 255 617 269.5 c 128,-1,46
 634 284 634 284 653.5 291.5 c 128,-1,47
 673 299 673 299 688 299 c 0,48,49
 712 299 712 299 729.5 292 c 128,-1,50
 747 285 747 285 752 268 c 2,51,-1
 816 86 l 1,52,53
 825 82 825 82 836 78 c 0,54,55
 845 75 845 75 856.5 72.5 c 128,-1,56
 868 70 868 70 882 70 c 0,57,58
 913 70 913 70 938 89 c 128,-1,59
 963 108 963 108 980 141.5 c 128,-1,60
 997 175 997 175 1006.5 220 c 128,-1,61
 1016 265 1016 265 1016 317 c 0,62,63
 1016 384 1016 384 992.5 434.5 c 128,-1,64
 969 485 969 485 934 527.5 c 128,-1,65
 899 570 899 570 857.5 608 c 128,-1,66
 816 646 816 646 781 686 c 128,-1,67
 746 726 746 726 722.5 772.5 c 128,-1,68
 699 819 699 819 699 880 c 0,69,70
 699 922 699 922 712 950 c 128,-1,71
 725 978 725 978 744.5 1001 c 128,-1,72
 764 1024 764 1024 787 1046 c 128,-1,73
 810 1068 810 1068 829.5 1097.5 c 128,-1,74
 849 1127 849 1127 862 1168 c 128,-1,75
 875 1209 875 1209 875 1270 c 0,76,77
 875 1313 875 1313 865 1349.5 c 128,-1,78
 855 1386 855 1386 836 1412 c 128,-1,79
 817 1438 817 1438 788 1452.5 c 128,-1,80
 759 1467 759 1467 722 1467 c 0,81,82
 698 1467 698 1467 670.5 1464.5 c 128,-1,83
 643 1462 643 1462 615.5 1450 c 128,-1,84
 588 1438 588 1438 562 1415 c 128,-1,85
 536 1392 536 1392 516 1350 c 128,-1,86
 496 1308 496 1308 484 1245.5 c 128,-1,87
 472 1183 472 1183 472 1093 c 2,88,-1
 472 0 l 1,89,-1
 61 0 l 2,90,91
 52 0 52 0 46 6 c 128,-1,92
 40 12 40 12 35.5 20 c 128,-1,93
 31 28 31 28 29 36.5 c 128,-1,94
 27 45 27 45 27 51 c 0,0,1
EndSplineSet
EndChar

